<ttFont>
          <CharString index="0">
            rmoveto
            -86 hlineto
            -29 0 -10 -21 -15 -21 5 6 -25 vhcurveto
            7 -31 -38 9 -35 hhcurveto
            -88 -2 -52 -91 hvcurveto
            87 hlineto
            29 0 11 20 16 21 -6 -5 25 vhcurveto
            -8 31 37 -9 36 hhcurveto
            88 1 53 90 hvcurveto
            return
          </CharString>
          <CharString index="1">
            183 378 hlineto
            243 -9 75 -239 -240 -8 -75 -243 vhcurveto
            -378 183 178 130 vlineto
            241 vmoveto
            -96 -130 96 vlineto
            123 2 10 63 63 2 -10 -123 vhcurveto
            return
          </CharString>
          <CharString index="2">
            rmoveto
            258 5 81 271 271 -5 81 -258 -259 -4 -81 -271 -271 4 -81 259 hvcurveto
            143 vmoveto
            -26 callgsubr
            205 205 2 4 77 77 2 -4 -205 -205 -2 -4 -77 hvcurveto
            return
          </CharString>
          <CharString index="3">
            rmoveto
            92 hlineto
            17 4 3 -60 callsubr
            6 rlineto
            44 15 20 15 55 vvcurveto
            89 -60 8 -77 -39 -52 -5 -7 -34 vhcurveto
            -81 vlineto
            3 29 45 2 29 hhcurveto
            38 11 -2 -20 -15 -6 -4 -28 -9 hvcurveto
            -77 callsubr
            return
          </CharString>
          <CharString index="4">
            rmoveto
            -94 hlineto
            -32 -1 -23 -52 -52 0 23 32 vhcurveto
            -93 hlineto
            -84 18 -60 127 -72 callgsubr
            vhcurveto
            return
          </CharString>
          <CharString index="5">
            -265 hlineto
            -100 callgsubr
            return
          </CharString>
          <CharString index="6">
            rmoveto
            223 11 87 176 hvcurveto
            452 -161 vlineto
            -4 -59 rlineto
            -10 hlineto
            55 -24 -49 12 -48 hhcurveto
            -103 -41 -52 -204 -200 39 -57 106 51 41 12 48 26 hvcurveto
            8 -41 hlineto
            -93 -3 -8 -106 vhcurveto
            -38 -41 1 -44 hhcurveto
            -116 vlineto
            -7 39 69 -6 59 hhcurveto
            15 348 rmoveto
            -49 -3 5 113 114 3 4 49 28 13 -5 -30 5 hvcurveto
            4 -18 0 -27 -38 vvcurveto
            -42 0 -28 -5 -19 vhcurveto
            -25 -29 callgsubr
          </CharString>
          <CharString index="7">
            rmoveto
            131 96 22 205 59 -8 41 -12 25 hvcurveto
            -25 54 -42 12 -45 7 -103 15 rcurveline
            -47 7 -4 7 47 vvcurveto
            25 2 15 14 9 vhcurveto
            9 12 23 2 42 hhcurveto
            57 63 -5 -5 42 hvcurveto
            133 vlineto
            10 -45 -76 10 -78 hhcurveto
            -137 -102 -29 -181 -114 20 -76 86 -12 hvcurveto
            106 -16 rlineto
            67 -10 7 -5 -53 vvcurveto
            -25 -1 -16 -11 -10 vhcurveto
            -11 -11 -25 -3 -51 hhcurveto
            -41 -67 4 5 -62 hvcurveto
            -135 vlineto
            -10 60 89 -7 76 hhcurveto
            return
          </CharString>
          <CharString index="8">
            117 vlineto
            -3 -49 -57 -3 -31 hhcurveto
            -101 -6 5 90 hvcurveto
            260 hlineto
            -208 -14 callsubr
            44 7 -6 -91 hvcurveto
            -103 hlineto
            89 7 8 45 vhcurveto
            return
          </CharString>
          <CharString index="9">
            rmoveto
            109 78 20 148 126 -44 18 -56 8 hvcurveto
            -90 12 rlineto
            -37 5 -2 3 28 vvcurveto
            30 10 4 70 26 52 -4 -4 44 -5 callsubr
            8 -37 -70 7 -58 hhcurveto
            -114 -82 -24 -132 -97 15 -51 67 -9 hvcurveto
            102 -14 rlineto
            42 -6 3 -3 -29 vvcurveto
            -32 -7 -5 -78 -34 -53 3 5 -43 -4 callgsubr
            -9 50 78 -6 59 hhcurveto
            return
          </CharString>
          <CharString index="10">
            rmoveto
            116 31 35 70 62 -22 20 -43 10 hvcurveto
            2 vlineto
            41 10 21 25 55 vvcurveto
            71 -38 29 -106 -106 -38 -29 -71 -55 20 -25 41 -10 vhcurveto
            -2 vlineto
            -41 -10 -23 -20 -62 vvcurveto
            -70 31 -35 116 vhcurveto
            231 vmoveto
            -34 -6 4 36 36 6 4 34 34 5 -4 -36 -36 -5 -4 -34 hvcurveto
            -154 vmoveto
            -34 -8 4 37 39 8 4 34 34 8 -4 -39 -37 -8 -4 -34 hvcurveto
            endchar
          </CharString>
          <CharString index="11">
            rmoveto
            235 2 78 187 hvcurveto
            156 -246 -134 69 -36 vlineto
            -107 -1 -4 -69 -73 -10 9 203 203 11 7 148 28 61 -5 -7 60 vhcurveto
            132 vlineto
            13 -58 -86 9 -60 hhcurveto
            -234 -51 -73 -279 -279 32 -73 242 hvcurveto
            return
          </CharString>
          <CharString index="12">
            17 4 4 -60 callsubr
            5 rlineto
            44 16 20 14 55 vvcurveto
            89 -60 8 -77 -39 -52 -5 -7 -34 vhcurveto
            -81 vlineto
            3 29 45 2 29 hhcurveto
            38 11 -1 -21 return
          </CharString>
          <CharString index="13">
            rmoveto
            -219 vlineto
            -123 -1 -10 -64 -63 -2 10 123 vhcurveto
            219 -183 -178 vlineto
            -208 7 -85 151 -20 vhcurveto
            -197 183 197 vlineto
            149 21 6 85 207 vvcurveto
            178 vlineto
            return
          </CharString>
          <CharString index="14">
            hlineto
            -95 callsubr
            -71 callgsubr
            return
          </CharString>
          <CharString index="15">
            rmoveto
            16 21 -6 -5 25 hvcurveto
            -8 31 37 -9 36 hhcurveto
            88 1 53 90 hvcurveto
            -86 hlineto
            -29 0 -10 -21 -15 -21 5 6 -25 vhcurveto
            7 -31 -38 9 -35 hhcurveto
            -88 -2 -52 -91 hvcurveto
            87 hlineto
            29 0 11 20 vhcurveto
            return
          </CharString>
          <CharString index="16">
            rmoveto
            131 11 32 83 84 -11 33 -131 -130 -10 -33 -84 -83 10 -32 130 hvcurveto
            69 vmoveto
            -48 -1 10 36 37 1 11 48 50 0 -11 -37 -36 0 -10 -50 hvcurveto
            return
          </CharString>
          <CharString index="17">
            -89 callsubr
            endchar
          </CharString>
          <CharString index="18">
            rmoveto
            -32 vlineto
            -44 -8 -14 -57 vhcurveto
            -36 hlineto
            6 -31 -37 2 -45 10 callsubr
            -271 4 -81 259 258 5 81 271 141 -1 90 -38 54 hvcurveto
            86 10 12 35 85 vvcurveto
            19 vlineto
            -322 -643 rmoveto
            -26 callgsubr
            205 205 2 4 77 77 2 -4 -205 -205 -2 -4 -77 hvcurveto
            return
          </CharString>
          <CharString index="19">
            rmoveto
            -93 callgsubr
            return
          </CharString>
          <CharString index="20">
            -64 vlineto
            151 18 34 121 hvcurveto
            74 -167 -114 60 -10 vlineto
            -32 -8 -9 -54 vhcurveto
            endchar
          </CharString>
          <CharString index="21">
            rmoveto
            -5 103 -32 24 -61 17 rrcurveto
            4 vlineto
            68 21 37 37 123 vvcurveto
            123 -48 65 -128 vhcurveto
            -321 -688 183 238 56 hlineto
            60 4 -20 -66 5 hvcurveto
            12 -152 rlineto
            181 hlineto
            -260 376 rmoveto
            -58 170 58 hlineto
            64 7 -10 -75 -76 -7 -9 -64 hvcurveto
            endchar
          </CharString>
          <CharString index="22">
            rmoveto
            -65 -354 rlineto
            -9 hlineto
            -67 354 rlineto
            -170 hlineto
            124 -510 rlineto
            63 hlineto
            -46 -192 rlineto
            168 hlineto
            170 702 rlineto
            endchar
          </CharString>
          <CharString index="23">
            -102 callgsubr
            -174 -171 -106 callgsubr
            return
          </CharString>
          <CharString index="24">
            183 231 hlineto
            193 457 -24 callsubr
            -95 -279 rlineto
            -8 hlineto
            -97 279 rlineto
            -187 hlineto
            193 -457 rlineto
            return
          </CharString>
          <CharString index="25">
            209 hlineto
            102 510 rlineto
            -161 hlineto
            -45 -337 rlineto
            -10 hlineto
            -71 337 rlineto
            -157 hlineto
            -69 -337 rlineto
            -9 hlineto
            -48 337 rlineto
            -165 hlineto
            102 -510 rlineto
            211 hlineto
            50 246 rlineto
            10 hlineto
            endchar
          </CharString>
          <CharString index="26">
            rmoveto
            100 hlineto
            89 116 rlineto
            4 -131 vlineto
            -58 -115 rlineto
            169 -5 rmoveto
            102 hlineto
            88 116 rlineto
            4 -131 vlineto
            -59 -115 rlineto
            return
          </CharString>
          <CharString index="27">
            720 rmoveto
            -15 -6 -4 -28 -9 vhcurveto
            -77 callsubr
            -11 92 vlineto
            17 4 3 -60 callsubr
            6 rlineto
            44 15 20 15 55 vvcurveto
            89 -60 8 -77 -39 -52 -5 -7 -34 vhcurveto
            -81 vlineto
            3 29 45 2 29 hhcurveto
            38 11 -2 -20 hvcurveto
            return
          </CharString>
          <CharString index="28">
            177 -8 rmoveto
            48 49 12 55 24 hvcurveto
            10 -14 callgsubr
            743 -169 -286 -9 hlineto
            48 -26 -42 13 -51 hhcurveto
            -105 -39 -61 -203 -209 41 -53 103 hvcurveto
            return
          </CharString>
          <CharString index="29">
            169 202 hlineto
            129 39 29 104 vhcurveto
            158 vlineto
            -71 -41 -21 -72 -25 hvcurveto
            -9 hlineto
            -4 85 rlineto
            -162 hlineto
            return
          </CharString>
          <CharString index="30">
            -14 -5 rlineto
            -36 -11 -9 -11 -43 vvcurveto
            return
          </CharString>
          <CharString index="31">
            222 hlineto
            270 4 77 267 267 -4 77 -270 hvcurveto
            -222 hlineto
            183 -545 rmoveto
            402 39 vlineto
            88 3 -3 -198 -197 -3 -4 -88 hvcurveto
            return
          </CharString>
          <CharString index="32">
            rmoveto
            193 -2 71 -196 -63 -48 -12 -25 -33 vhcurveto
            25 -33 -48 12 -65 hhcurveto
            -70 -59 -8 -8 -45 hvcurveto
            -118 vlineto
            4 45 51 2 35 hhcurveto
            90 11 -3 -68 hvcurveto
            -20 vlineto
            2 -27 -59 2 -23 hhcurveto
            -118 -31 -41 -115 -107 32 -48 134 58 58 6 35 46 hvcurveto
            -28 31 52 -13 84 hhcurveto
            64 -11 callsubr
            39 hvcurveto
            117 vlineto
            -3 -48 -59 -3 -31 hhcurveto
            -100 -6 6 89 hvcurveto
            260 hlineto
            -209 -14 callsubr
            44 7 -6 -91 hvcurveto
            -102 hlineto
            89 6 8 45 vhcurveto
            -221 -208 rmoveto
            -20 -1 -15 -3 -12 vhcurveto
            -22 -5 -14 -8 -29 hhcurveto
            -44 -4 12 37 47 7 6 38 hvcurveto
            55 hlineto
            endchar
          </CharString>
          <CharString index="33">
            rmoveto
            -134 vlineto
            289 12 14 303 hvcurveto
            371 -183 -430 vlineto
            -117 -3 -6 -115 -1 vhcurveto
            endchar
          </CharString>
          <CharString index="34">
            rmoveto
            5 -161 vlineto
            -71 -142 rlineto
            -5 -4 callsubr
            return
          </CharString>
          <CharString index="35">
            834 rmoveto
            -15 -6 -4 -28 -9 vhcurveto
            -6 callsubr
            -11 92 vlineto
            -95 callsubr
            hvcurveto
            return
          </CharString>
          <CharString index="36">
            20 275 -8 -100 callsubr
            return
          </CharString>
          <CharString index="37">
            hlineto
            63 7 5 93 vhcurveto
            115 vlineto
            -229 -42 -8 -201 hvcurveto
            -23 -76 -128 76 vlineto
            return
          </CharString>
          <CharString index="38">
            rmoveto
            171 510 -171 hlineto
            return
          </CharString>
          <CharString index="39">
            102 44 hmoveto
            226 137 hlineto
            -35 12 -5 65 140 vvcurveto
            186 2 14 77 76 2 -14 -186 -140 -4 -65 -36 -12 vhcurveto
            -137 226 139 -10 vlineto
            -36 -9 -35 -14 -36 -11 rrcurveto
            8 vlineto
            73 37 42 84 153 vvcurveto
            201 -10 108 -252 -253 -10 -108 -201 -153 42 -84 73 -37 vhcurveto
            -8 vlineto
            -36 11 -35 14 -36 9 rrcurveto
            -10 hlineto
            endchar
          </CharString>
          <CharString index="40">
            -74 228 -8 -98 callsubr
            return
          </CharString>
          <CharString index="41">
            rmoveto
            48 101 rlineto
            -142 hlineto
            -26 -52 rlineto
            3 -26 -31 2 -36 10 callsubr
            -153 1 -93 48 -51 hvcurveto
            -49 -102 rlineto
            142 hlineto
            25 52 rlineto
            -3 27 32 -2 37 hhcurveto
            258 5 81 271 154 -2 93 -48 51 hvcurveto
            -213 -507 -17 callgsubr
          </CharString>
          <CharString index="42">
            rmoveto
            20 19 3 31 44 vvcurveto
            91 -11 36 -142 -141 -12 -36 -91 -43 3 -31 21 -20 vhcurveto
            -171 -687 -20 callgsubr
            hlineto
            26 124 rlineto
            184 hlineto
            28 -124 rlineto
            183 hlineto
            -301 832 rmoveto
            54 0 -11 -40 -39 0 -10 -54 -52 -1 10 39 40 1 11 52 hvcurveto
            -63 -569 rmoveto
            57 268 rlineto
            7 hlineto
            58 -268 rlineto
            endchar
          </CharString>
          <CharString index="43">
            rmoveto
            140 hlineto
            24 49 rlineto
            -2 16 19 0 21 hhcurveto
            209 13 56 207 115 -4 68 -40 38 hvcurveto
            44 89 rlineto
            -141 hlineto
            -24 -50 rlineto
            2 -17 -19 1 -21 10 callgsubr
            -115 4 -69 40 -38 hvcurveto
            177 87 -44 callsubr
          </CharString>
          <CharString index="44">
            rmoveto
            17 0 9 4 7 vhcurveto
            2 6 7 4 9 3 24 10 31 14 24 10 rrcurveto
            32 13 23 25 72 vvcurveto
            99 -60 10 -69 -39 -52 -5 -7 -32 vhcurveto
            -76 vlineto
            4 37 39 2 21 hhcurveto
            39 9 -2 -31 -27 -3 -3 -25 -11 hvcurveto
            -23 -9 -23 -11 -26 -11 rrcurveto
            -50 -24 -2 -33 -88 vvcurveto
            -53 259 83 -156 vlineto
            endchar
          </CharString>
          <CharString index="45">
            -12 callgsubr
            -46 -49 -14 -52 -28 vhcurveto
            -8 291 -169 -743 169 265 hlineto
            100 2 13 46 43 3 -3 -103 vhcurveto
            return
          </CharString>
          <CharString index="46">
            77 237 238 rmoveto
            56 hlineto
            60 4 -20 -66 5 hvcurveto
            12 -152 rlineto
            181 hlineto
            -11 171 -5 103 -32 24 -61 17 rlinecurve
            4 vlineto
            68 21 37 37 123 vvcurveto
            123 -48 65 -128 vhcurveto
            -321 -688 183 hlineto
            546 vmoveto
            58 hlineto
            64 7 -10 -75 -76 -7 -9 -64 hvcurveto
            -58 hlineto
            return
          </CharString>
          <CharString index="47">
            29 11 vhcurveto
            14 return
          </CharString>
          <CharString index="48">
            119 hlineto
            18 146 21 228 45 vvcurveto
            35 -197 -35 vlineto
            -45 21 -228 18 -146 vhcurveto
            return
          </CharString>
          <CharString index="49">
            -49 callsubr
            hlineto
            return
          </CharString>
          <CharString index="50">
            -8 rmoveto
            202 53 64 127 -45 callgsubr
            -64 54 -185 -185 -64 -54 -126 -100 34 -45 72 -18 vhcurveto
            -4 vlineto
            -73 -18 -39 -35 -113 vvcurveto
            -127 53 -64 202 vhcurveto
            418 vmoveto
            -60 return
          </CharString>
          <CharString index="51">
            25 39 45 129 vvcurveto
            176 -104 19 -122 -69 -91 -9 -12 -57 vhcurveto
            -133 vlineto
            7 65 68 5 38 hhcurveto
            71 18 -5 -58 -50 -7 -8 -44 -20 hvcurveto
            -40 -19 -42 -18 -46 -21 rrcurveto
            -90 -42 -3 -59 -159 vvcurveto
            -95 455 144 -278 vlineto
            endchar
          </CharString>
          <CharString index="52">
            93 314 rmoveto
            112 374 -77 hlineto
            -94 -48 rlineto
            -93 vlineto
            59 25 rlineto
            -13 -572 rmoveto
            103 hlineto
            402 688 rlineto
            -102 hlineto
            return
          </CharString>
          <CharString index="53">
            21 4 4 18 8 vhcurveto
            25 10 20 9 24 10 rrcurveto
            36 16 22 25 70 vvcurveto
            101 -59 10 -69 -39 -52 -5 -7 -33 vhcurveto
            -85 vlineto
            4 37 40 3 21 hhcurveto
            34 8 -2 -24 -22 -5 -4 -21 -11 hvcurveto
            -75 -35 rlineto
            -43 -20 -2 -34 -82 vvcurveto
            -58 258 return
          </CharString>
          <CharString index="54">
            126 -16 65 -116 return
          </CharString>
          <CharString index="55">
            -8 hlineto
            -4 59 rlineto
            -162 return
          </CharString>
          <CharString index="56">
            393 149 -210 539 -183 hlineto
            return
          </CharString>
          <CharString index="57">
            74 237 235 rmoveto
            69 hlineto
            70 -235 rlineto
            189 hlineto
            -90 262 rlineto
            65 37 10 76 87 vvcurveto
            147 -25 79 -173 vhcurveto
            -298 -688 183 hlineto
            547 vmoveto
            56 hlineto
            70 4 -11 -76 -79 -8 -9 -66 hvcurveto
            -56 hlineto
            return
          </CharString>
          <CharString index="58">
            -31 callsubr
            -183 return
          </CharString>
          <CharString index="59">
            rmoveto
            132 9 31 163 163 -9 32 -132 -133 -9 -32 -163 -163 9 -31 133 hvcurveto
            81 vmoveto
            -36 0 2 111 112 0 1 36 35 1 -1 -112 -111 -1 -2 -35 hvcurveto
            endchar
          </CharString>
          <CharString index="60">
            608 -50 callgsubr
            return
          </CharString>
          <CharString index="61">
            11 310 510 rmoveto
            -265 vlineto
            -100 -3 -13 -46 -42 -3 3 103 vhcurveto
            272 -169 -699 169 188 vlineto
            44 5 25 21 19 34 rrcurveto
            9 -14 callgsubr
            510 hlineto
            endchar
          </CharString>
          <CharString index="62">
            4 330 hmoveto
            183 hlineto
            -137 268 135 242 rlineto
            -176 hlineto
            -99 -193 rlineto
            -20 return
          </CharString>
          <CharString index="63">
            rmoveto
            -43 callsubr
          </CharString>
          <CharString index="64">
            -51 -1 -33 callgsubr
            127 1 8 51 52 1 -8 -30 callgsubr
            -1 -8 -52 hvcurveto
            endchar
          </CharString>
          <CharString index="65">
            183 539 154 149 -490 -149 153 hlineto
            return
          </CharString>
          <CharString index="66">
            84 132 rlineto
            8 -109 vlineto
            -52 -72 -53 72 rlineto
            -110 -8 hlineto
            83 -132 rlineto
            return
          </CharString>
          <CharString index="67">
            128 vlineto
            -39 9 -52 7 -48 3 rrcurveto
            82 -124 -83 vlineto
            -149 -14 -34 -66 -189 vvcurveto
            -191 29 -66 154 -13 vhcurveto
            -82 124 82 vlineto
            153 return
          </CharString>
          <CharString index="68">
            rmoveto
            109 hlineto
            111 200 -111 201 rlineto
            -109 hlineto
            85 -201 rlineto
            return
          </CharString>
          <CharString index="69">
            86 398 hmoveto
            199 hlineto
            -186 362 184 326 rlineto
            -194 hlineto
            -138 -267 rlineto
            -26 267 -183 -688 183 278 26 hlineto
            return
          </CharString>
          <CharString index="70">
            -64 vlineto
            151 18 40 142 hvcurveto
            return
          </CharString>
          <CharString index="71">
            -743 rmoveto
            -55 callgsubr
            return
          </CharString>
          <CharString index="72">
            -37 callsubr
            105 -167 -140 60 -15 vlineto
            -52 return
          </CharString>
          <CharString index="73">
            -55 callgsubr
            endchar
          </CharString>
          <CharString index="74">
            -138 47 hmoveto
            -78 callsubr
            return
          </CharString>
          <CharString index="75">
            hmoveto
            171 743 -171 hlineto
            return
          </CharString>
          <CharString index="76">
            183 688 return
          </CharString>
          <CharString index="77">
            rmoveto
            32 51 rlineto
            -14 9 -10 16 20 vvcurveto
            20 10 16 15 9 vhcurveto
            -32 51 rlineto
            -32 -20 -21 -35 -41 vvcurveto
            -42 21 -34 31 -20 vhcurveto
            return
          </CharString>
          <CharString index="78">
            3 23 hhcurveto
            39 5 -3 -29 -29 -5 -4 -22 hvcurveto
            -62 -79 62 hlineto
            24 6 -4 -31 -30 -8 -3 -34 -20 -37 3 4 -44 hvcurveto
            return
          </CharString>
          <CharString index="79">
            104 72 39 81 -39 80 -70 hlineto
            -31 -80 rlineto
            -55 hlineto
            105 227 rlineto
            -111 hlineto
            -101 -236 rlineto
            -72 159 vlineto
            endchar
          </CharString>
          <CharString index="80">
            rmoveto
            116 hlineto
            return
          </CharString>
          <CharString index="81">
            31 20 21 34 42 vvcurveto
            41 -21 35 -32 20 vhcurveto
            -32 -51 rlineto
            15 -9 10 -16 -20 vvcurveto
            -20 -10 -16 -14 -9 vhcurveto
            endchar
          </CharString>
          <CharString index="82">
            114 hlineto
            118 306 rlineto
            74 -258 -82 148 vlineto
            return
          </CharString>
          <CharString index="83">
            rlineto
            -182 hlineto
            return
          </CharString>
          <CharString index="84">
            7 10 38 return
          </CharString>
          <CharString index="85">
            20 548 11 callgsubr
            77 -167 -113 60 -14 vlineto
            -52 -9 -16 -53 vhcurveto
            return
          </CharString>
          <CharString index="86">
            -27 callsubr
            49 212 9 111 rlineto
            -150 hlineto
            return
          </CharString>
          <CharString index="87">
            56 -82 rmoveto
            -64 vlineto
            152 18 40 142 hvcurveto
            105 -168 -141 60 -15 vlineto
            -52 -8 -15 -54 vhcurveto
            return
          </CharString>
          <CharString index="88">
            763 rmoveto
            64 vlineto
            -151 -18 -34 -121 hvcurveto
            -75 167 114 -60 11 vlineto
            32 8 9 54 vhcurveto
            return
          </CharString>
          <CharString index="89">
            rmoveto
            126 128 128 125 -128 129 -126 -129 -127 -125 127 hlineto
            return
          </CharString>
          <CharString index="90">
            rmoveto
            -26 callgsubr
            206 206 2 4 77 76 3 -4 -206 -206 -3 -4 -76 hvcurveto
            endchar
          </CharString>
          <CharString index="91">
            54 hmoveto
            -51 callsubr
            return
          </CharString>
          <CharString index="92">
            -26 callgsubr
            205 205 2 4 77 77 2 -4 -205 -205 -2 -4 -77 hvcurveto
            endchar
          </CharString>
          <CharString index="93">
            183 rmoveto
            return
          </CharString>
          <CharString index="94">
            -189 rmoveto
            148 hlineto
            35 192 rlineto
            5 -110 vlineto
            -73 -192 rlineto
            endchar
          </CharString>
          <CharString index="95">
            46 -47 callsubr
            return
          </CharString>
          <CharString index="96">
            74 7 10 return
          </CharString>
          <CharString index="97">
            hhcurveto
            -6 140 rmoveto
            -51 -16 2 88 62 5 14 62 60 13 -5 -79 -77 return
          </CharString>
          <CharString index="98">
            -206 -13 -79 -185 -185 11 -77 223 65 74 -23 callsubr
            return
          </CharString>
          <CharString index="99">
            74 425 -27 callsubr
            17 212 rlineto
            51 -150 -51 vlineto
            return
          </CharString>
          <CharString index="100">
            -118 397 hmoveto
            696 vlineto
            -207 -145 -143 -205 return
          </CharString>
          <CharString index="101">
            -14 -4 rlineto
            -36 -11 -9 -12 -43 vvcurveto
            return
          </CharString>
          <CharString index="102">
            vhcurveto
            117 vlineto
            return
          </CharString>
          <CharString index="103">
            123 vlineto
            return
          </CharString>
          <CharString index="104">
            -174 47 217 rmoveto
            247 135 -247 hlineto
            endchar
          </CharString>
          <CharString index="105">
            50 -1 628 rmoveto
            567 60 -567 hlineto
            -688 vmoveto
            return
          </CharString>
          <CharString index="106">
            -7 -60 hvcurveto
            -282 vmoveto
            -60 -13 7 71 72 13 7 60 return
          </CharString>
          <CharString index="107">
            44 7 -6 -91 hvcurveto
            -103 hlineto
            89 7 8 45 vhcurveto
            endchar
          </CharString>
          <CharString index="108">
            vlineto
            -70 -184 rlineto
            -5 148 vlineto
            34 189 rlineto
            return
          </CharString>
          <CharString index="109">
            -196 rmoveto
            21 30 2 2 17 hvcurveto
            81 vlineto
            -1 -6 return
          </CharString>
          <CharString index="110">
            rmoveto
            -251 -136 251 hlineto
            return
          </CharString>
          <CharString index="111">
            9 callgsubr
            -3 hhcurveto
            return
          </CharString>
          <CharString index="112">
            285 142 -285 143 return
          </CharString>
          <CharString index="113">
            84 270 868 rmoveto
            60 -106 137 113 return
          </CharString>
          <CharString index="114">
            -888 -61 callgsubr
          </CharString>
          <CharString index="115">
            -208 -13 -56 -207 return
          </CharString>
          <CharString index="116">
            80 -151 -33 -39 -3 -4 -26 hvcurveto
            112 return
          </CharString>
          <CharString index="117">
            hhcurveto
            -259 -4 -81 -271 return
          </CharString>
          <CharString index="118">
            183 204 152 85 -137 hlineto
            return
          </CharString>
          <CharString index="119">
            730 rmoveto
            -136 -113 136 hlineto
            return
          </CharString>
        <CharString name=".notdef">
          -15 0 vmoveto
          500 700 -500 hlineto
          450 -50 rmoveto
          -600 -400 600 vlineto
          179 -435 rmoveto
          53 53 hlineto
          33 21 18 23 19 vhcurveto
          30 26 37 36 67 vvcurveto
          12 -3 123 -140 -140 -11 -124 -23 -12 2 -13 2 -6 vhcurveto
          49 28 hlineto
          23 8 77 90 77 12 -59 -28 -51 -28 -24 -28 -23 vhcurveto
          -28 -23 -26 -23 -43 vvcurveto
          -4 -179 rmoveto
          60 70 -60 hlineto
          endchar
        </CharString>
        <CharString name="A">
          92 421 hmoveto
          -103 callgsubr
          endchar
        </CharString>
        <CharString name="A.ss01">
          84 364 hmoveto
          -106 callsubr
          endchar
        </CharString>
        <CharString name="AE">
          327 402 hmoveto
          -56 callgsubr
        </CharString>
        <CharString name="AEacute">
          327 353 741 -102 callgsubr
          49 -746 rmoveto
          -56 callgsubr
        </CharString>
        <CharString name="Aacute">
          91 217 750 -102 callgsubr
          204 -755 rmoveto
          -103 callgsubr
          endchar
        </CharString>
        <CharString name="Aacute.ss01">
          84 239 749 -102 callgsubr
          125 -754 rmoveto
          -106 callsubr
          endchar
        </CharString>
        <CharString name="Abreve">
          92 450 888 -103 callsubr
          -29 -888 rmoveto
          -103 callgsubr
          endchar
        </CharString>
        <CharString name="Abreve.ss01">
          84 446 888 -103 callsubr
          -82 -888 rmoveto
          -106 callsubr
          endchar
        </CharString>
        <CharString name="Acircumflex">
          91 141 750 -106 callgsubr
          280 -758 rmoveto
          -103 callgsubr
          endchar
        </CharString>
        <CharString name="Acircumflex.ss01">
          84 140 750 -106 callgsubr
          224 -758 rmoveto
          -106 callsubr
          endchar
        </CharString>
        <CharString name="Adieresis">
          91 136 778 -88 callsubr
          89 -891 rmoveto
          -103 callgsubr
          endchar
        </CharString>
        <CharString name="Adieresis.ss01">
          84 137 776 -88 callsubr
          31 -889 rmoveto
          -106 callsubr
          endchar
        </CharString>
        <CharString name="Agrave">
          91 253 749 -92 callgsubr
          276 -891 rmoveto
          -103 callgsubr
          endchar
        </CharString>
        <CharString name="Agrave.ss01">
          84 244 749 -92 callgsubr
          228 -891 rmoveto
          -106 callsubr
          endchar
        </CharString>
        <CharString name="Amacron">
          92 178 752 -68 callgsubr
          243 -888 rmoveto
          -103 callgsubr
          endchar
        </CharString>
        <CharString name="Amacron.ss01">
          84 174 752 -68 callgsubr
          190 -888 rmoveto
          -106 callsubr
          endchar
        </CharString>
        <CharString name="Aogonek">
          91 497 -77 rmoveto
          28 28 32 23 17 vhcurveto
          55 hlineto
          -171 688 rlineto
          -258 hlineto
          -171 -688 rlineto
          179 hlineto
          27 124 rlineto
          183 hlineto
          28 -123 rlineto
          -33 -32 -23 -40 -38 vvcurveto
          -46 27 -41 95 21 -11 callgsubr
          -3 hhcurveto
          -35 -8 15 20 hvcurveto
          -258 339 rmoveto
          57 269 rlineto
          8 hlineto
          58 -269 rlineto
          endchar
        </CharString>
        <CharString name="Aogonek.ss01">
          84 492 hmoveto
          55 378 hlineto
          243 -9 75 -239 -240 -8 -75 -243 vhcurveto
          -378 183 178 130 -176 vlineto
          -33 -33 -24 -40 -38 vvcurveto
          -46 28 -41 95 22 28 2 2 19 vhcurveto
          -6 callgsubr
          -8 15 20 28 29 32 23 17 hvcurveto
          -258 323 rmoveto
          96 vlineto
          123 2 10 63 63 2 -10 -123 vhcurveto
          -96 vlineto
          endchar
        </CharString>
        <CharString name="Aring">
          92 433 687 -65 callsubr
        </CharString>
        <CharString name="Aring.ss01">
          84 302 730 -91 callsubr
          62 -799 rmoveto
          -106 callsubr
          endchar
        </CharString>
        <CharString name="Aringacute">
          92 467 1103 -73 callsubr
          75 -274 -65 callsubr
        </CharString>
        <CharString name="Aringacute.ss01">
          84 234 969 -102 callgsubr
          65 -260 -91 callsubr
          65 -783 rmoveto
          -106 callsubr
          endchar
        </CharString>
        <CharString name="Atilde">
          91 484 905 -107 callsubr
          -63 -905 rmoveto
          -103 callgsubr
          endchar
        </CharString>
        <CharString name="Atilde.ss01">
          84 484 904 -107 callsubr
          -120 -904 rmoveto
          -106 callsubr
          endchar
        </CharString>
        <CharString name="B">
          68 54 hmoveto
          304 hlineto
          136 53 64 120 111 -38 36 -74 18 hvcurveto
          4 vlineto
          73 18 35 44 100 vvcurveto
          119 -65 54 -119 vhcurveto
          -305 hlineto
          243 -276 rmoveto
          -62 136 62 hlineto
          56 8 -9 -59 -58 -10 -10 -54 hvcurveto
          2 -272 rmoveto
          -64 143 64 hlineto
          55 10 -10 -62 -62 -9 -9 -56 hvcurveto
          endchar
        </CharString>
        <CharString name="C">
          -25 457 9 -86 callgsubr
        </CharString>
        <CharString name="Cacute">
          -25 177 741 -102 callgsubr
          280 -737 -86 callgsubr
        </CharString>
        <CharString name="Cacute.loclPLK">
          -25 177 741 -77 callgsubr
          280 -737 -86 callgsubr
        </CharString>
        <CharString name="Ccaron">
          -25 166 748 -99 callgsubr
          374 -871 -86 callgsubr
        </CharString>
        <CharString name="Ccedilla">
          -25 342 135 rmoveto
          -113 -3 16 193 192 3 17 113 21 34 -3 -5 57 hvcurveto
          133 vlineto
          10 -36 -63 8 -54 hhcurveto
          -229 -30 -84 -268 -217 19 -96 129 -29 hvcurveto
          -71 -186 rlineto
          -5 148 vlineto
          33 181 rlineto
          1 hlineto
          53 65 -23 callsubr
          hvcurveto
          134 vlineto
          -5 -32 -48 -3 -35 hhcurveto
          endchar
        </CharString>
        <CharString name="Ccircumflex">
          -25 83 748 -106 callgsubr
          374 -747 -86 callgsubr
        </CharString>
        <CharString name="Cdotaccent">
          -25 177 -53 callgsubr
          280 -866 -86 callgsubr
        </CharString>
        <CharString name="D">
          77 54 hmoveto
          -76 callsubr
          endchar
        </CharString>
        <CharString name="Dcaron">
          77 217 748 -99 callgsubr
          -80 -880 rmoveto
          -76 callsubr
          endchar
        </CharString>
        <CharString name="Dcroat">
          -52 callgsubr
        </CharString>
        <CharString name="E">
          7 54 hmoveto
          -94 callgsubr
          endchar
        </CharString>
        <CharString name="Eacute">
          4 201 750 -102 callgsubr
          -147 -755 rmoveto
          -94 callgsubr
          endchar
        </CharString>
        <CharString name="Ebreve">
          7 411 888 -103 callsubr
          -357 -888 rmoveto
          -94 callgsubr
          endchar
        </CharString>
        <CharString name="Ecaron">
          7 186 748 -99 callgsubr
          -49 -880 rmoveto
          -94 callgsubr
          endchar
        </CharString>
        <CharString name="Ecircumflex">
          4 102 750 -106 callgsubr
          -48 -758 rmoveto
          -94 callgsubr
          endchar
        </CharString>
        <CharString name="Edieresis">
          4 99 764 -88 callsubr
          -241 -877 rmoveto
          -94 callgsubr
          endchar
        </CharString>
        <CharString name="Edotaccent">
          7 197 -53 callgsubr
          -143 -875 rmoveto
          -94 callgsubr
          endchar
        </CharString>
        <CharString name="Egrave">
          4 225 750 -92 callgsubr
          -63 -892 rmoveto
          -94 callgsubr
          endchar
        </CharString>
        <CharString name="Emacron">
          7 139 752 -68 callgsubr
          -85 -888 rmoveto
          -94 callgsubr
          endchar
        </CharString>
        <CharString name="Eng">
          107 394 688 rmoveto
          -315 -6 vlineto
          -151 315 rlineto
          -183 -688 174 355 5 hlineto
          161 -337 rlineto
          -47 vlineto
          -37 -3 -15 -65 -4 callgsubr
          199 43 18 192 1 hvcurveto
          676 vlineto
          endchar
        </CharString>
        <CharString name="Eogonek">
          4 399 2 callsubr
          -5 8 callgsubr
          16 34 39 31 28 15 hvcurveto
          142 -240 135 203 141 -203 128 240 142 -422 -688 291 vlineto
          -41 -33 -28 -36 -43 vvcurveto
          -42 28 -42 95 vhcurveto
          endchar
        </CharString>
        <CharString name="Eth">
          -52 callgsubr
        </CharString>
        <CharString name="Euro">
          16 342 -8 rmoveto
          55 64 8 9 34 hvcurveto
          131 vlineto
          -4 -29 -45 -4 -38 hhcurveto
          -84 -24 10 84 -7 hvcurveto
          182 85 -184 67 184 85 -182 hlineto
          84 7 24 9 84 hhcurveto
          25 49 -4 -4 35 hvcurveto
          130 vlineto
          9 -29 -63 9 -58 hhcurveto
          -186 -52 -63 -170 -13 hvcurveto
          -65 -85 62 -67 -62 -85 64 hlineto
          -174 13 51 -60 188 hhcurveto
          endchar
        </CharString>
        <CharString name="F">
          -26 54 hmoveto
          183 253 194 143 -194 149 224 143 -407 hlineto
          endchar
        </CharString>
        <CharString name="G">
          68 369 273 -96 callgsubr
          endchar
        </CharString>
        <CharString name="G.ss01">
          80 316 -8 -96 callsubr
          endchar
        </CharString>
        <CharString name="G_tilde.loclGUA">
          68 470 888 -107 callsubr
          -101 -615 -96 callgsubr
          endchar
        </CharString>
        <CharString name="Gbreve">
          68 436 888 -103 callsubr
          -67 -615 -96 callgsubr
          endchar
        </CharString>
        <CharString name="Gbreve.ss01">
          80 444 888 -103 callsubr
          -128 -896 -96 callsubr
          endchar
        </CharString>
        <CharString name="Gcaron">
          68 211 748 -99 callgsubr
          241 -607 -96 callgsubr
          endchar
        </CharString>
        <CharString name="Gcaron.ss01">
          80 219 748 -99 callgsubr
          180 -888 -96 callsubr
          endchar
        </CharString>
        <CharString name="Gcircumflex">
          68 128 748 -106 callgsubr
          241 -483 -96 callgsubr
          endchar
        </CharString>
        <CharString name="Gcircumflex.ss01">
          80 136 748 -106 callgsubr
          180 -764 -96 callsubr
          endchar
        </CharString>
        <CharString name="Gcommaaccent">
          68 369 273 -96 callgsubr
          -96 -498 rmoveto
          -87 callsubr
        </CharString>
        <CharString name="Gcommaaccent.ss01">
          80 316 -8 -96 callsubr
          -103 -217 rmoveto
          -87 callsubr
        </CharString>
        <CharString name="Gdotaccent">
          68 222 -53 callgsubr
          147 -602 -96 callgsubr
          endchar
        </CharString>
        <CharString name="Gdotaccent.ss01">
          80 230 -53 callgsubr
          86 -883 -96 callsubr
          endchar
        </CharString>
        <CharString name="Gtilde.loclGUA.ss01">
          80 478 888 -107 callsubr
          -162 -896 -96 callsubr
          endchar
        </CharString>
        <CharString name="H">
          -23 callgsubr
          endchar
        </CharString>
        <CharString name="Hbar">
          102 380 688 rmoveto
          -89 -143 89 -183 -688 183 228 143 -228 -31 callsubr
          vlineto
          -326 -305 rmoveto
          90 143 -90 vlineto
          endchar
        </CharString>
        <CharString name="Hcircumflex">
          102 147 748 -106 callgsubr
          233 -756 rmoveto
          -15 callgsubr
          endchar
        </CharString>
        <CharString name="I">
          -224 54 hmoveto
          -59 callgsubr
        </CharString>
        <CharString name="IJ">
          145 54 hmoveto
          -58 callsubr
          253 -554 -74 callsubr
        </CharString>
        <CharString name="Iacute">
          -224 57 749 -102 callgsubr
          -3 -754 -61 callgsubr
        </CharString>
        <CharString name="Iacute_J.loclNLD">
          145 78 741 -102 callgsubr
          371 -5 -102 callgsubr
          -395 -746 rmoveto
          -58 callsubr
          253 -554 -74 callsubr
        </CharString>
        <CharString name="Ibreve">
          -224 292 888 -103 callsubr
          -238 7 callsubr
        </CharString>
        <CharString name="Icircumflex">
          -224 -16 749 -106 callgsubr
          70 -757 -61 callgsubr
        </CharString>
        <CharString name="Idieresis">
          -224 -21 778 -88 callsubr
          -121 -891 -61 callgsubr
        </CharString>
        <CharString name="Idotaccent">
          -224 78 -53 callgsubr
          -24 -875 -61 callgsubr
        </CharString>
        <CharString name="Igrave">
          -224 113 750 -92 callgsubr
          49 -892 -61 callgsubr
        </CharString>
        <CharString name="Imacron">
          -224 20 752 -68 callgsubr
          34 7 callsubr
        </CharString>
        <CharString name="Iogonek">
          -224 170 2 callsubr
          -6 0 -3 hhcurveto
          -34 -9 15 19 31 34 33 23 14 hvcurveto
          688 -183 -688 51 vlineto
          -34 -32 -24 -39 -39 vvcurveto
          -45 27 -41 96 vhcurveto
          endchar
        </CharString>
        <CharString name="Itilde">
          -224 326 888 -107 callsubr
          -272 7 callsubr
        </CharString>
        <CharString name="J">
          -146 16 134 -74 callsubr
        </CharString>
        <CharString name="Jcircumflex">
          -146 64 748 -106 callgsubr
          -48 -622 -74 callsubr
        </CharString>
        <CharString name="K">
          -38 callsubr
          endchar
        </CharString>
        <CharString name="Kcommaaccent">
          -38 callsubr
          -47 -503 rmoveto
          -87 callsubr
        </CharString>
        <CharString name="L">
          -51 -16 callsubr
          endchar
        </CharString>
        <CharString name="Lacute">
          -51 98 741 -102 callgsubr
          -44 -746 rmoveto
          -51 callsubr
          endchar
        </CharString>
        <CharString name="Lcaron">
          -51 349 457 -44 callgsubr
          -308 -669 rmoveto
          -51 callsubr
          endchar
        </CharString>
        <CharString name="Lcommaaccent">
          -51 -16 callsubr
          99 -913 rmoveto
          -87 callsubr
        </CharString>
        <CharString name="Ldot">
          -31 -16 callsubr
          247 -385 -91 callgsubr
        </CharString>
        <CharString name="Lslash">
          -53 237 149 rmoveto
          174 vlineto
          118 43 rlineto
          125 vlineto
          -118 -43 rlineto
          240 -183 -308 vlineto
          -49 -18 rlineto
          -125 vlineto
          49 18 rlineto
          -255 393 149 vlineto
          endchar
        </CharString>
        <CharString name="M">
          296 582 hmoveto
          175 688 -258 hlineto
          -88 -403 rlineto
          -8 hlineto
          -90 403 rlineto
          -259 -688 170 449 9 hlineto
          101 -449 rlineto
          138 hlineto
          101 449 rlineto
          9 hlineto
          endchar
        </CharString>
        <CharString name="N">
          107 401 hmoveto
          -83 callgsubr
          endchar
        </CharString>
        <CharString name="Nacute">
          107 244 741 -102 callgsubr
          157 -746 rmoveto
          -83 callgsubr
          endchar
        </CharString>
        <CharString name="Nacute.loclPLK">
          107 244 741 -77 callgsubr
          157 -746 rmoveto
          -83 callgsubr
          endchar
        </CharString>
        <CharString name="Ncaron">
          107 233 748 -99 callgsubr
          251 -880 rmoveto
          -83 callgsubr
          endchar
        </CharString>
        <CharString name="Ncommaaccent">
          107 401 hmoveto
          -83 callgsubr
          -6 -580 rmoveto
          -87 callsubr
        </CharString>
        <CharString name="Ntilde">
          107 492 906 -107 callsubr
          -91 -906 rmoveto
          -83 callgsubr
          endchar
        </CharString>
        <CharString name="O">
          95 305 -8 -105 callsubr
          endchar
        </CharString>
        <CharString name="OE">
          345 305 hmoveto
          512 143 -204 hlineto
          -28 -25 -4 -3 -12 hvcurveto
          14 36 5 47 58 vvcurveto
          212 141 -212 hlineto
          -2 54 -5 44 -11 36 rrcurveto
          -4 13 27 -3 24 hhcurveto
          204 143 -512 hlineto
          -259 -4 -79 -265 -265 4 -79 259 hvcurveto
          143 vmoveto
          -26 callgsubr
          197 197 2 4 77 77 2 -4 -197 -197 -2 -4 -77 hvcurveto
          endchar
        </CharString>
        <CharString name="Oacute">
          93 233 750 -102 callgsubr
          72 -763 -105 callsubr
          endchar
        </CharString>
        <CharString name="Oacute.loclPLK">
          95 237 741 -77 callgsubr
          68 -754 -105 callsubr
          endchar
        </CharString>
        <CharString name="Obreve">
          95 451 888 -103 callsubr
          -146 -896 -105 callsubr
          endchar
        </CharString>
        <CharString name="Ocircumflex">
          93 142 750 -106 callgsubr
          163 -766 -105 callsubr
          endchar
        </CharString>
        <CharString name="Odieresis">
          93 138 778 -88 callsubr
          -29 -899 -105 callsubr
          endchar
        </CharString>
        <CharString name="Ograve">
          93 251 750 -92 callgsubr
          162 -900 -105 callsubr
          endchar
        </CharString>
        <CharString name="Ohorn">
          95 519 778 -90 callsubr
        </CharString>
        <CharString name="Ohungarumlaut">
          95 172 755 -81 callsubr
          -36 -768 -105 callsubr
          endchar
        </CharString>
        <CharString name="Omacron">
          95 179 752 -68 callgsubr
          126 -896 -105 callsubr
          endchar
        </CharString>
        <CharString name="Oslash">
          93 518 642 -66 callsubr
        </CharString>
        <CharString name="Oslash.bold">
          93 518 642 rmoveto
          48 101 rlineto
          -142 hlineto
          -25 -52 rlineto
          3 -27 -31 2 -36 10 callsubr
          -153 1 -92 48 -52 hvcurveto
          -49 -102 rlineto
          141 hlineto
          25 52 rlineto
          -3 28 32 -2 37 hhcurveto
          258 5 81 271 154 -2 93 -48 51 hvcurveto
          -292 -298 rmoveto
          205 2 4 77 11 9 0 -1 8 vhcurveto
          -107 -223 rlineto
          79 -194 rmoveto
          -12 -10 0 1 -8 hvcurveto
          109 228 rlineto
          -20 vlineto
          -205 -2 -4 -77 vhcurveto
          endchar
        </CharString>
        <CharString name="Oslashacute">
          93 461 883 -73 callsubr
          166 -99 -66 callsubr
        </CharString>
        <CharString name="Otilde">
          93 486 905 -107 callsubr
          -181 -913 -105 callsubr
          endchar
        </CharString>
        <CharString name="P">
          49 54 hmoveto
          183 215 109 hlineto
          176 19 96 141 154 -26 82 -169 hvcurveto
          -292 hlineto
          183 -331 rmoveto
          190 48 vlineto
          66 7 -9 -86 -86 -7 -9 -67 hvcurveto
          endchar
        </CharString>
        <CharString name="Q">
          93 418 -115 rmoveto
          189 7 hlineto
          -100 151 rlineto
          52 48 7 90 163 vvcurveto
          -34 callgsubr
          16 16 1 1 14 vhcurveto
          -46 140 -17 callsubr
        </CharString>
        <CharString name="Q.bold">
          95 508 42 rmoveto
          55 51 5 94 157 vvcurveto
          271 -5 81 -258 -259 -4 -81 -271 -271 4 -81 259 16 15 0 1 15 vhcurveto
          67 -108 rlineto
          188 7 hlineto
          -301 661 rmoveto
          77 2 -4 -205 -55 0 -41 -2 -30 hvcurveto
          -154 hlineto
          -2 30 0 41 55 vvcurveto
          205 2 4 77 vhcurveto
          -74 -367 rmoveto
          29 -47 -16 5 -9 12 -4 30 rlinecurve
          endchar
        </CharString>
        <CharString name="R">
          74 565 hmoveto
          -81 callgsubr
        </CharString>
        <CharString name="R.ss01">
          77 544 171 -86 callsubr
        </CharString>
        <CharString name="Racute">
          74 459 883 -73 callsubr
          215 -741 rmoveto
          -81 callgsubr
        </CharString>
        <CharString name="Racute.ss01">
          77 460 883 -73 callsubr
          193 -570 -86 callsubr
        </CharString>
        <CharString name="Rcaron">
          74 373 748 -42 callgsubr
          349 -748 rmoveto
          -81 callgsubr
        </CharString>
        <CharString name="Rcaron.ss01">
          77 374 748 -42 callgsubr
          327 -577 -86 callsubr
        </CharString>
        <CharString name="Rcommaaccent">
          -50 callsubr
          -25 -546 -16 callgsubr
        </CharString>
        <CharString name="Rcommaaccent.ss01">
          -61 callsubr
          -24 -550 -16 callgsubr
        </CharString>
        <CharString name="S">
          -71 callsubr
          endchar
        </CharString>
        <CharString name="Sacute">
          20 200 741 -102 callgsubr
          75 -754 -100 callsubr
          endchar
        </CharString>
        <CharString name="Sacute.loclPLK">
          20 200 741 -77 callgsubr
          75 -754 -100 callsubr
          endchar
        </CharString>
        <CharString name="Scaron">
          18 191 750 -99 callgsubr
          167 -890 -100 callsubr
          endchar
        </CharString>
        <CharString name="Scedilla">
          20 502 219 rmoveto
          59 -8 41 -12 25 vhcurveto
          -25 54 -42 12 -45 7 -103 15 rcurveline
          -47 7 -4 7 47 vvcurveto
          25 2 15 14 9 vhcurveto
          9 12 23 2 42 hhcurveto
          57 63 -5 -5 42 hvcurveto
          133 vlineto
          10 -45 -76 10 -78 hhcurveto
          -137 -102 -29 -181 -114 20 -76 86 -12 hvcurveto
          106 -16 rlineto
          67 -10 7 -5 -53 vvcurveto
          -25 -1 -16 -11 -10 vhcurveto
          -11 -11 -25 -3 -51 hhcurveto
          -41 -67 4 5 -62 hvcurveto
          -135 vlineto
          43 -7 59 -6 58 12 callgsubr
          182 rlineto
          106 8 73 39 179 vvcurveto
          endchar
        </CharString>
        <CharString name="Scircumflex">
          20 106 748 -106 callgsubr
          169 -764 -100 callsubr
          endchar
        </CharString>
        <CharString name="Scommaaccent">
          -71 callsubr
          -92 -217 rmoveto
          -87 callsubr
        </CharString>
        <CharString name="T">
          -1 165 hmoveto
          -42 callsubr
          endchar
        </CharString>
        <CharString name="Tbar">
          -2 502 539 rmoveto
          149 -490 -149 153 -147 -132 -121 132 -271 183 271 132 121 -132 147 vlineto
          endchar
        </CharString>
        <CharString name="Tcaron">
          -1 178 748 -99 callgsubr
          70 -880 rmoveto
          -42 callsubr
          endchar
        </CharString>
        <CharString name="Thorn">
          49 55 hmoveto
          182 116 109 hlineto
          176 19 95 141 154 -25 82 -170 hvcurveto
          -109 100 -182 hlineto
          182 -431 rmoveto
          190 48 vlineto
          66 7 -9 -86 -85 -7 -10 -67 hvcurveto
          endchar
        </CharString>
        <CharString name="U">
          84 364 688 rmoveto
          -419 vlineto
          -101 callgsubr
          378 vlineto
          endchar
        </CharString>
        <CharString name="Uacute">
          84 233 750 -102 callgsubr
          131 -67 rmoveto
          -419 vlineto
          -101 callgsubr
          378 vlineto
          endchar
        </CharString>
        <CharString name="Ubreve">
          84 446 888 -103 callsubr
          -82 -200 rmoveto
          -419 vlineto
          -101 callgsubr
          378 vlineto
          endchar
        </CharString>
        <CharString name="Ucircumflex">
          84 138 750 -106 callgsubr
          226 -70 rmoveto
          -419 vlineto
          -101 callgsubr
          378 vlineto
          endchar
        </CharString>
        <CharString name="Udieresis">
          84 133 778 -88 callsubr
          35 -203 rmoveto
          -419 vlineto
          -101 callgsubr
          378 vlineto
          endchar
        </CharString>
        <CharString name="Ugrave">
          84 245 750 -92 callgsubr
          227 -204 rmoveto
          -419 vlineto
          -101 callgsubr
          378 vlineto
          endchar
        </CharString>
        <CharString name="Uhorn">
          84 518 778 rmoveto
          -32 vlineto
          -44 -8 -14 -57 vhcurveto
          -89 -419 hlineto
          -101 callgsubr
          322 vlineto
          69 13 10 36 78 vvcurveto
          19 vlineto
          endchar
        </CharString>
        <CharString name="Uhungarumlaut">
          84 167 755 -81 callsubr
          28 -72 rmoveto
          -419 vlineto
          -101 callgsubr
          378 vlineto
          endchar
        </CharString>
        <CharString name="Umacron">
          84 174 752 -68 callgsubr
          190 -200 rmoveto
          -419 vlineto
          -101 callgsubr
          378 vlineto
          endchar
        </CharString>
        <CharString name="Uogonek">
          84 364 688 rmoveto
          -419 vlineto
          -124 -2 -9 -63 -63 -2 9 124 vhcurveto
          419 -183 -378 vlineto
          -243 9 -75 238 vhcurveto
          12 hlineto
          -29 -31 -20 -36 -34 vvcurveto
          -46 28 -41 95 21 -11 callgsubr
          -3 hhcurveto
          -36 -7 15 20 46 34 28 40 23 hvcurveto
          74 40 4 88 162 vvcurveto
          378 vlineto
          endchar
        </CharString>
        <CharString name="Uring">
          84 299 714 -91 callsubr
          65 -95 rmoveto
          -419 vlineto
          -101 callgsubr
          378 vlineto
          endchar
        </CharString>
        <CharString name="Utilde">
          84 480 888 -107 callsubr
          -116 -200 rmoveto
          -419 vlineto
          -101 callgsubr
          378 vlineto
          endchar
        </CharString>
        <CharString name="V">
          66 165 hmoveto
          250 hlineto
          161 688 rlineto
          -183 hlineto
          -96 -496 rlineto
          -9 hlineto
          -97 496 rlineto
          -186 hlineto
          endchar
        </CharString>
        <CharString name="W">
          363 517 hmoveto
          -82 callgsubr
        </CharString>
        <CharString name="Wacute">
          363 371 741 -102 callgsubr
          146 -746 rmoveto
          -82 callgsubr
        </CharString>
        <CharString name="Wcircumflex">
          363 277 748 -106 callgsubr
          240 -756 rmoveto
          -82 callgsubr
        </CharString>
        <CharString name="Wdieresis">
          363 273 762 -88 callsubr
          48 -875 rmoveto
          -82 callgsubr
        </CharString>
        <CharString name="Wgrave">
          363 385 741 -92 callgsubr
          240 -883 rmoveto
          -82 callgsubr
        </CharString>
        <CharString name="X">
          93 397 hmoveto
          202 hlineto
          -175 350 172 338 rlineto
          -195 hlineto
          -90 -206 rlineto
          -9 hlineto
          -88 206 rlineto
          -202 hlineto
          173 -342 -176 -346 rlineto
          195 hlineto
          92 213 rlineto
          9 hlineto
          endchar
        </CharString>
        <CharString name="Y">
          53 192 hmoveto
          -80 callgsubr
        </CharString>
        <CharString name="Y.loclGUA">
          55 350 688 -94 callsubr
          endchar
        </CharString>
        <CharString name="Yacute">
          53 224 750 -102 callgsubr
          -32 -755 -78 callgsubr
        </CharString>
        <CharString name="Yacute.loclGUA">
          55 449 883 -73 callsubr
          10 -53 -94 callsubr
          endchar
        </CharString>
        <CharString name="Ycircumflex">
          53 122 748 -106 callgsubr
          70 -756 -78 callgsubr
        </CharString>
        <CharString name="Ycircumflex.loclGUA">
          55 284 820 -73 callgsubr
          118 -60 -94 callsubr
          endchar
        </CharString>
        <CharString name="Ydieresis">
          53 121 778 -88 callsubr
          -125 -891 -78 callgsubr
        </CharString>
        <CharString name="Ydieresis.loclGUA">
          55 255 875 -39 callgsubr
          -102 -74 -94 callsubr
          endchar
        </CharString>
        <CharString name="Ygrave">
          53 230 741 -92 callgsubr
          70 -883 -78 callgsubr
        </CharString>
        <CharString name="Ygrave.loclGUA">
          55 355 741 -69 callgsubr
          119 -53 -94 callsubr
          endchar
        </CharString>
        <CharString name="Z">
          22 35 hmoveto
          -79 callgsubr
          endchar
        </CharString>
        <CharString name="Zacute">
          22 201 741 -102 callgsubr
          -166 -746 rmoveto
          -79 callgsubr
          endchar
        </CharString>
        <CharString name="Zacute.loclPLK">
          22 201 741 -77 callgsubr
          -166 -746 rmoveto
          -79 callgsubr
          endchar
        </CharString>
        <CharString name="Zcaron">
          20 197 751 -99 callgsubr
          -79 -883 rmoveto
          -79 callgsubr
          endchar
        </CharString>
        <CharString name="Zdotaccent">
          22 201 -53 callgsubr
          -166 -875 rmoveto
          -79 callgsubr
          endchar
        </CharString>
        <CharString name="a">
          -13 157 -8 -107 callgsubr
          endchar
        </CharString>
        <CharString name="aacute">
          -13 185 596 -102 callgsubr
          -28 -609 -107 callgsubr
          endchar
        </CharString>
        <CharString name="abreve">
          -13 397 743 -103 callsubr
          -240 -751 -107 callgsubr
          endchar
        </CharString>
        <CharString name="acircumflex">
          -13 92 603 -106 callgsubr
          65 -619 -107 callgsubr
          endchar
        </CharString>
        <CharString name="acute">
          -256 14 596 -102 callgsubr
          endchar
        </CharString>
        <CharString name="acute.case.loclPLK">
          -256 14 741 -77 callgsubr
          endchar
        </CharString>
        <CharString name="acute.loclPLK">
          -256 14 596 -77 callgsubr
          endchar
        </CharString>
        <CharString name="acutecomb">
          -245 596 -102 callgsubr
          endchar
        </CharString>
        <CharString name="acutecomb.case">
          -245 741 -102 callgsubr
          endchar
        </CharString>
        <CharString name="adieresis">
          -13 87 615 -88 callsubr
          -126 -736 -107 callgsubr
          endchar
        </CharString>
        <CharString name="ae">
          237 716 254 -75 callsubr
        </CharString>
        <CharString name="aeacute">
          237 544 738 -73 callsubr
          281 -342 -75 callsubr
        </CharString>
        <CharString name="agrave">
          -13 198 596 -92 callgsubr
          67 -746 -107 callgsubr
          endchar
        </CharString>
        <CharString name="amacron">
          -13 125 607 -68 callgsubr
          32 -751 -107 callgsubr
          endchar
        </CharString>
        <CharString name="ampersand">
          133 373 412 rmoveto
          -288 vlineto
          -1 -17 -16 0 -16 hhcurveto
          -91 -23 8 71 71 15 10 62 hvcurveto
          31 129 -31 hlineto
          -61 -9 11 64 68 14 9 121 55 80 -5 -6 54 hvcurveto
          121 vlineto
          13 -63 -94 9 -66 hhcurveto
          -213 -63 -63 -117 -100 36 -45 71 -18 hvcurveto
          -4 vlineto
          -73 -18 -39 -35 -113 vvcurveto
          -119 46 -72 232 68 95 9 12 66 vhcurveto
          270 89 129 vlineto
          endchar
        </CharString>
        <CharString name="aogonek">
          -13 456 hmoveto
          307 vlineto
          146 -22 65 -196 -73 -65 -8 -8 -46 vhcurveto
          -118 vlineto
          1 13 77 5 42 hhcurveto
          89 12 -3 -68 hvcurveto
          -20 vlineto
          2 -35 -53 2 -22 hhcurveto
          -118 -31 -41 -115 -107 40 -48 89 46 46 10 56 31 hvcurveto
          9 hlineto
          4 -58 rlineto
          32 hlineto
          -36 -33 -25 -38 -40 vvcurveto
          -44 28 -41 95 20 28 2 2 20 vhcurveto
          81 vlineto
          -1 -6 -5 8 callgsubr
          17 32 30 33 29 14 hvcurveto
          -169 191 rmoveto
          -28 -2 -17 -6 -11 vhcurveto
          -15 -8 -13 -5 -24 hhcurveto
          -43 -4 11 37 46 6 7 39 hvcurveto
          55 hlineto
          endchar
        </CharString>
        <CharString name="approxequal">
          -35 49 265 rmoveto
          7 callgsubr
          -7 34 41 -10 38 hhcurveto
          92 2 54 89 hvcurveto
          -87 hlineto
          -28 0 -10 -3 callgsubr
          -53 -90 hvcurveto
          -179 vmoveto
          86 hlineto
          29 1 10 22 16 23 -5 -6 27 vhcurveto
          -7 34 41 -9 38 hhcurveto
          92 2 53 90 hvcurveto
          -87 hlineto
          -29 0 -10 -22 -16 -24 6 5 -26 vhcurveto
          8 -34 -41 9 -38 hhcurveto
          -93 -1 -54 -90 hvcurveto
          endchar
        </CharString>
        <CharString name="aring">
          -13 254 581 -91 callsubr
          -97 -658 -107 callgsubr
          endchar
        </CharString>
        <CharString name="aringacute">
          -13 189 857 -102 callgsubr
          61 -263 -91 callsubr
          -93 -676 -107 callgsubr
          endchar
        </CharString>
        <CharString name="arrowboth">
          368 340 162 rmoveto
          -30 86 rlineto
          262 hlineto
          -29 -86 5 callsubr
          29 -85 rlineto
          -261 hlineto
          29 85 -285 -143 rlineto
          endchar
        </CharString>
        <CharString name="arrowdown">
          -120 198 -85 rmoveto
          142 285 -85 -29 rlineto
          517 -113 -518 vlineto
          -87 30 rlineto
          endchar
        </CharString>
        <CharString name="arrowdown.ss01">
          -170 173 171 rmoveto
          142 285 rlineto
          -285 hlineto
          endchar
        </CharString>
        <CharString name="arrowleft">
          368 310 248 rmoveto
          518 114 -517 hlineto
          29 85 -285 -143 285 -142 rlineto
          endchar
        </CharString>
        <CharString name="arrowleft.ss01">
          -152 315 201 rmoveto
          285 vlineto
          -285 -143 rlineto
          endchar
        </CharString>
        <CharString name="arrowright">
          368 543 162 rmoveto
          5 callsubr
          29 -85 rlineto
          -517 -114 517 hlineto
          endchar
        </CharString>
        <CharString name="arrowright.ss01">
          -152 48 201 rmoveto
          5 callsubr
          rlineto
          endchar
        </CharString>
        <CharString name="arrowup">
          -120 142 -82 rmoveto
          113 517 hlineto
          85 -29 -142 285 -143 -285 87 29 rlineto
          endchar
        </CharString>
        <CharString name="arrowup.ss01">
          -170 30 231 rmoveto
          285 hlineto
          -142 285 rlineto
          endchar
        </CharString>
        <CharString name="arrowupdn">
          -36 callgsubr
          endchar
        </CharString>
        <CharString name="arrowupdnbse">
          -36 callgsubr
          -414 vmoveto
          285 95 -285 hlineto
          endchar
        </CharString>
        <CharString name="asciicircum">
          -107 276 459 rmoveto
          125 hlineto
          -135 290 rlineto
          -124 hlineto
          -135 -290 rlineto
          125 hlineto
          72 179 rlineto
          endchar
        </CharString>
        <CharString name="asciitilde">
          -35 431 381 rmoveto
          -87 hlineto
          -29 0 -9 -3 callgsubr
          -54 -89 hvcurveto
          7 callgsubr
          -8 34 41 -9 38 hhcurveto
          92 2 54 89 hvcurveto
          endchar
        </CharString>
        <CharString name="asterisk">
          -82 248 458 rmoveto
          99 -70 44 76 -110 49 110 51 -44 75 -99 -69 12 118 rlineto
          -87 hlineto
          11 -118 -99 69 -43 -75 109 -51 -109 -49 43 -76 99 70 -11 -119 rlineto
          87 hlineto
          endchar
        </CharString>
        <CharString name="asterisk.ss02">
          302 178 -14 rmoveto
          231 170 231 -170 -90 276 232 174 rlineto
          -288 hlineto
          -85 269 -87 -269 rlineto
          -287 hlineto
          234 -174 rlineto
          endchar
        </CharString>
        <CharString name="at">
          319 418 -108 rmoveto
          113 34 0 2 36 hvcurveto
          66 vlineto
          -3 -35 -74 -1 -73 hhcurveto
          -47 -40 0 1 -25 hvcurveto
          -172 9 -2 48 280 vvcurveto
          253 2 63 126 17 vhcurveto
          4 34 53 0 70 hhcurveto
          73 54 0 -5 35 hvcurveto
          121 -19 2 -65 -248 vvcurveto
          -154 -7 -1 -43 vhcurveto
          -51 199 hlineto
          127 -18 53 -168 -51 -56 -5 -9 -50 vhcurveto
          -101 vlineto
          4 58 30 1 24 hhcurveto
          77 9 -2 -59 hvcurveto
          -17 vlineto
          2 -32 -43 2 -19 hhcurveto
          -100 -26 -31 -102 -90 33 -43 76 41 37 9 49 27 hvcurveto
          7 hlineto
          4 -51 rlineto
          184 hlineto
          93 34 1 218 358 -17 44 -338 -338 -18 -45 -357 -357 18 -45 338 hvcurveto
          -6 281 rmoveto
          -37 -3 10 31 40 5 6 33 hvcurveto
          47 -24 hlineto
          -48 -5 -15 -40 vhcurveto
          endchar
        </CharString>
        <CharString name="atilde">
          -13 432 743 -107 callsubr
          -275 -751 -107 callgsubr
          endchar
        </CharString>
        <CharString name="b">
          6 343 -8 rmoveto
          103 41 54 208 203 -39 61 -105 -51 -42 -13 -48 -26 hvcurveto
          -8 286 -169 -743 162 hlineto
          4 59 rlineto
          9 hlineto
          -55 24 50 -12 47 hhcurveto
          -76 139 rmoveto
          -27 -12 4 23 -6 hvcurveto
          -6 19 0 30 48 vvcurveto
          50 1 31 5 19 vhcurveto
          21 7 12 3 26 hhcurveto
          48 3 -5 -119 -120 -3 -4 -48 hvcurveto
          endchar
        </CharString>
        <CharString name="backslash">
          -130 243 -55 rmoveto
          142 hlineto
          -243 798 rlineto
          -143 hlineto
          endchar
        </CharString>
        <CharString name="bar">
          -241 63 -161 rmoveto
          147 904 -147 hlineto
          endchar
        </CharString>
        <CharString name="bar.ss02">
          -17 -1 hmoveto
          500 696 -500 hlineto
          endchar
        </CharString>
        <CharString name="braceleft">
          -162 224 -150 rmoveto
          107 hlineto
          -47 52 -33 59 69 vvcurveto
          117 vlineto
          76 -33 54 -83 16 vhcurveto
          7 vlineto
          83 16 33 54 75 vvcurveto
          118 vlineto
          69 33 59 47 52 vhcurveto
          -107 hlineto
          -64 -31 -61 -78 -81 vvcurveto
          -115 vlineto
          -54 -14 -43 -64 -10 vhcurveto
          -69 vlineto
          64 -11 14 -43 -54 vvcurveto
          -114 vlineto
          -81 60 -78 65 -31 vhcurveto
          endchar
        </CharString>
        <CharString name="braceright">
          -162 21 -150 rmoveto
          107 hlineto
          65 31 60 78 81 vvcurveto
          114 vlineto
          54 14 43 64 11 vhcurveto
          69 vlineto
          -64 10 -14 43 54 vvcurveto
          115 vlineto
          81 -60 78 -65 31 vhcurveto
          -107 hlineto
          47 -53 33 -58 -69 vvcurveto
          -118 vlineto
          -75 34 -54 82 -16 vhcurveto
          -7 vlineto
          -82 -16 -34 -54 -76 vvcurveto
          -117 vlineto
          -69 -33 -60 -47 -51 vhcurveto
          endchar
        </CharString>
        <CharString name="bracketleft">
          -159 58 -150 rmoveto
          258 101 hlineto
          -106 4 rlineto
          683 vlineto
          106 4 rlineto
          101 -258 vlineto
          endchar
        </CharString>
        <CharString name="bracketleft.ss02">
          -7 callsubr
          hvcurveto
          -348 vlineto
          endchar
        </CharString>
        <CharString name="bracketright">
          -159 40 -150 rmoveto
          258 893 -258 -101 hlineto
          106 -4 rlineto
          -683 vlineto
          -106 -4 rlineto
          endchar
        </CharString>
        <CharString name="bracketright.ss02">
          -118 0 vmoveto
          352 348 hlineto
          5 callgsubr
          vhcurveto
          endchar
        </CharString>
        <CharString name="breve">
          -196 306 743 -103 callsubr
          endchar
        </CharString>
        <CharString name="brokenbar">
          -241 63 390 rmoveto
          147 353 -147 hlineto
          -904 vmoveto
          147 353 -147 hlineto
          endchar
        </CharString>
        <CharString name="bullet">
          -163 291 342 rmoveto
          101 -4 16 -113 -109 -4 -16 -101 -98 4 -16 109 113 4 16 98 vhcurveto
          endchar
        </CharString>
        <CharString name="bullet.ss02">
          268 392 421 rmoveto
          62 50 39 73 90 -76 73 -36 -37 -76 -73 -90 -73 50 -39 63 hvcurveto
          60 vmoveto
          -30 -23 18 34 57 36 46 17 17 35 -46 -57 -34 -23 -18 -29 hvcurveto
          -189 -250 rmoveto
          73 39 50 63 62 -39 50 -73 -90 -73 -76 -36 -37 73 -76 90 hvcurveto
          378 hmoveto
          89 73 76 37 36 -73 76 -89 -74 -39 -50 -62 -63 39 -50 74 hvcurveto
          -378 60 rmoveto
          -57 -46 36 17 17 46 35 57 34 18 -23 -29 -30 -18 -23 -34 hvcurveto
          378 hmoveto
          -35 -18 23 30 29 18 23 35 56 46 -35 -17 -17 -46 -36 -56 hvcurveto
          -189 -299 rmoveto
          36 76 73 90 73 -50 39 -62 -63 -50 -39 -73 -90 76 -73 37 hvcurveto
          60 vmoveto
          -17 -36 46 57 34 23 18 30 29 23 -18 -34 -57 -35 -46 -17 hvcurveto
          endchar
        </CharString>
        <CharString name="c">
          -107 377 9 -85 callgsubr
        </CharString>
        <CharString name="cacute">
          -107 140 596 -102 callgsubr
          237 -592 -85 callgsubr
        </CharString>
        <CharString name="cacute.loclPLK">
          -107 140 596 -77 callgsubr
          237 -592 -85 callgsubr
        </CharString>
        <CharString name="caron">
          -165 96 603 -99 callgsubr
          endchar
        </CharString>
        <CharString name="caron.loclCSY">
          -251 44 425 -44 callgsubr
          endchar
        </CharString>
        <CharString name="ccaron">
          -107 125 603 -99 callgsubr
          335 -726 -85 callgsubr
        </CharString>
        <CharString name="ccedilla">
          -107 377 126 rmoveto
          -4 -29 -38 -2 -26 hhcurveto
          -73 -7 14 121 120 7 15 72 29 38 -3 -3 24 hvcurveto
          118 vlineto
          10 -40 -48 6 -50 hhcurveto
          -188 -15 -94 -169 -137 8 -89 107 -28 hvcurveto
          -70 -185 rlineto
          -5 148 vlineto
          33 181 40 2 41 6 37 9 rlinecurve
          endchar
        </CharString>
        <CharString name="ccircumflex">
          -107 42 603 -106 callgsubr
          335 -602 -85 callgsubr
        </CharString>
        <CharString name="cdotaccent">
          -107 136 -46 callgsubr
          241 -721 -85 callgsubr
        </CharString>
        <CharString name="cedilla">
          -305 14 -13 callsubr
        </CharString>
        <CharString name="cent">
          -99 175 -8 rmoveto
          124 79 hlineto
          28 2 28 5 23 7 rrcurveto
          122 vlineto
          -4 -29 -36 -3 -25 hhcurveto
          -69 -9 15 127 126 9 16 68 28 34 -2 -4 26 hvcurveto
          -4 callsubr
          -30 7 -24 4 -22 2 rrcurveto
          82 -124 -85 vlineto
          -116 -22 -18 -89 -158 vvcurveto
          -156 16 -91 118 -22 vhcurveto
          endchar
        </CharString>
        <CharString name="cent.bold">
          -99 378 207 rmoveto
          -25 -3 -30 -3 -24 -1 rrcurveto
          284 vlineto
          25 -1 29 -2 22 -3 rrcurveto
          -4 callsubr
          -29 7 -24 4 -23 2 rrcurveto
          82 -124 -83 vlineto
          -112 -20 -22 -96 -155 vvcurveto
          -173 28 -77 106 -19 vhcurveto
          -81 124 79 vlineto
          31 3 25 5 23 6 rrcurveto
          endchar
        </CharString>
        <CharString name="circumflex">
          -165 14 603 -106 callgsubr
          endchar
        </CharString>
        <CharString name="colon">
          1 callgsubr
          -510 vmoveto
          178 150 -178 hlineto
          endchar
        </CharString>
        <CharString name="comma">
          -222 55 -87 -21 callgsubr
        </CharString>
        <CharString name="copyright">
          160 337 -8 rmoveto
          259 13 42 310 310 -13 42 -259 -258 -13 -42 -310 -310 13 -42 258 hvcurveto
          60 -22 callgsubr
          19 103 rmoveto
          27 35 3 5 21 hvcurveto
          73 vlineto
          -2 -13 -26 -1 -21 hhcurveto
          -59 -1 8 103 102 1 8 59 14 27 -1 -2 18 hvcurveto
          72 vlineto
          5 -19 -34 4 -29 hhcurveto
          -121 -16 -46 -142 -142 15 -47 122 hvcurveto
          endchar
        </CharString>
        <CharString name="currency">
          101 123 3 rmoveto
          79 80 rlineto
          -6 28 34 -2 43 hhcurveto
          43 35 2 6 28 hvcurveto
          80 -81 89 89 -70 71 rlineto
          14 41 2 59 83 vvcurveto
          82 -2 59 -14 41 vhcurveto
          70 71 -88 88 -80 -81 rlineto
          6 -28 -35 3 -44 hhcurveto
          -43 -34 -2 -6 -28 hvcurveto
          -79 80 -90 -89 70 -69 rlineto
          -15 -42 -2 -58 -83 vvcurveto
          -84 2 -60 15 -41 vhcurveto
          -69 -69 rlineto
          273 111 rmoveto
          -52 0 9 134 133 0 8 52 52 1 -8 -133 -134 -1 -9 -52 hvcurveto
          endchar
        </CharString>
        <CharString name="d">
          6 -79 callsubr
          77 139 -74 callgsubr
          endchar
        </CharString>
        <CharString name="dagger">
          -43 183 hmoveto
          106 hlineto
          9 416 117 11 rlineto
          103 vlineto
          -117 10 -9 148 rlineto
          -106 hlineto
          -9 -148 -117 -10 rlineto
          -103 vlineto
          117 -11 rlineto
          endchar
        </CharString>
        <CharString name="daggerdbl">
          -43 183 hmoveto
          106 hlineto
          9 147 117 10 rlineto
          104 vlineto
          -117 10 rlineto
          145 vlineto
          117 11 rlineto
          103 vlineto
          -117 11 -9 147 rlineto
          -106 hlineto
          -9 -147 -117 -11 rlineto
          -103 vlineto
          117 -11 rlineto
          -145 vlineto
          -117 -10 rlineto
          -104 vlineto
          117 -10 rlineto
          endchar
        </CharString>
        <CharString name="dcaron">
          94 -79 callsubr
          326 433 -44 callgsubr
          -262 -506 -74 callgsubr
          endchar
        </CharString>
        <CharString name="dcroat">
          6 522 688 rmoveto
          -48 55 -169 -55 -107 -121 107 -110 -9 hlineto
          48 -26 -42 13 -51 hhcurveto
          -105 -39 -61 -203 -209 41 -53 103 48 49 12 55 24 hvcurveto
          10 -14 callgsubr
          567 48 hlineto
          -223 -406 rmoveto
          -5 callgsubr
          -49 -3 4 120 119 3 5 49 29 13 -5 -32 5 hvcurveto
          3 -19 1 -28 -40 vvcurveto
          -43 -1 -29 -5 -22 vhcurveto
          endchar
        </CharString>
        <CharString name="degree">
          -153 182 -25 callgsubr
          73 vmoveto
          -9 callgsubr
          endchar
        </CharString>
        <CharString name="dialog">
          290 306 -212 rmoveto
          213 212 rlineto
          227 688 -687 -688 247 60 -187 568 567 -568 -192 hlineto
          -188 -187 rlineto
          endchar
        </CharString>
        <CharString name="dieresis">
          -157 13 617 -88 callsubr
          endchar
        </CharString>
        <CharString name="divide">
          -6 191 379 rmoveto
          126 103 -126 hlineto
          -127 -292 rmoveto
          -8 callgsubr
          127 -291 rmoveto
          126 103 -126 hlineto
          endchar
        </CharString>
        <CharString name="dollar">
          -37 180 -8 rmoveto
          124 79 hlineto
          79 10 53 37 126 vvcurveto
          131 -44 21 -76 10 vhcurveto
          -76 10 rlineto
          -35 5 -2 3 30 vvcurveto
          31 11 4 70 26 51 -3 -5 49 vhcurveto
          122 vlineto
          -23 5 -44 7 -39 2 rrcurveto
          79 -124 -81 vlineto
          -83 -10 -56 -38 -111 vvcurveto
          -101 16 -53 112 -17 vhcurveto
          68 -10 rlineto
          35 -5 3 -2 -31 vvcurveto
          -34 -7 -5 -80 -38 -53 4 4 -41 vhcurveto
          -122 vlineto
          33 -6 50 -5 41 -3 rrcurveto
          endchar
        </CharString>
        <CharString name="dollar.bold">
          -37 436 244 rmoveto
          131 -44 21 -76 10 vhcurveto
          -12 2 rlineto
          81 vlineto
          28 -1 40 -3 38 -4 rrcurveto
          122 vlineto
          -24 5 -39 6 -43 3 rrcurveto
          79 -124 -80 vlineto
          -96 -14 -43 -45 -101 vvcurveto
          -101 16 -53 112 -17 vhcurveto
          11 -2 rlineto
          -85 vlineto
          -36 1 -50 3 -38 4 rrcurveto
          -122 vlineto
          45 -7 40 -5 39 -3 rrcurveto
          -77 124 79 vlineto
          98 14 34 49 110 vvcurveto
          endchar
        </CharString>
        <CharString name="dotaccent">
          -351 14 -46 callgsubr
          endchar
        </CharString>
        <CharString name="dotbelowcomb">
          -235 -212 -91 callgsubr
        </CharString>
        <CharString name="dotlessi">
          -250 47 hmoveto
          171 510 -171 hlineto
          endchar
        </CharString>
        <CharString name="e">
          -19 460 254 -105 callgsubr
          endchar
        </CharString>
        <CharString name="eacute">
          -19 422 738 -73 callsubr
          147 -342 -105 callgsubr
          endchar
        </CharString>
        <CharString name="ebreve">
          -19 247 599 rmoveto
          -72 callgsubr
          hvcurveto
          -94 hlineto
          -32 -1 -23 -52 -52 0 23 32 vhcurveto
          -93 hlineto
          -84 18 -60 127 vhcurveto
          213 -345 -105 callgsubr
          endchar
        </CharString>
        <CharString name="ecaron">
          -19 326 603 -42 callgsubr
          291 -349 -105 callgsubr
          endchar
        </CharString>
        <CharString name="ecircumflex">
          -19 256 675 -73 callgsubr
          256 -349 -105 callgsubr
          endchar
        </CharString>
        <CharString name="edieresis">
          -19 226 728 -39 callgsubr
          37 -361 -105 callgsubr
          endchar
        </CharString>
        <CharString name="edotaccent">
          -19 316 12 callsubr
          144 -363 -105 callgsubr
          endchar
        </CharString>
        <CharString name="egrave">
          -19 324 596 -69 callgsubr
          260 -342 -105 callgsubr
          endchar
        </CharString>
        <CharString name="eight">
          75 295 -57 callsubr
          -8 7 67 68 8 8 60 61 8 -8 -68 -67 -9 -1 callsubr
          61 12 -7 -72 -71 -13 -7 -60 hvcurveto
          endchar
        </CharString>
        <CharString name="eight.dnom">
          -173 171 -4 -97 callsubr
        </CharString>
        <CharString name="eight.numr">
          -173 171 304 -97 callsubr
        </CharString>
        <CharString name="eight.tnum">
          61 288 -57 callsubr
          -9 7 67 68 9 8 60 60 8 -8 -68 -67 -8 -1 callsubr
          60 13 -7 -72 -71 -13 -7 -60 hvcurveto
          endchar
        </CharString>
        <CharString name="ellipsis">
          366 58 hmoveto
          178 150 -178 hlineto
          293 -150 rmoveto
          178 150 -178 hlineto
          294 -150 -91 callgsubr
        </CharString>
        <CharString name="emacron">
          -19 373 743 3 callsubr
          87 -353 -105 callgsubr
          endchar
        </CharString>
        <CharString name="emdash">
          336 41 243 rmoveto
          769 123 -769 hlineto
          endchar
        </CharString>
        <CharString name="endash">
          -50 41 243 rmoveto
          383 123 -383 hlineto
          endchar
        </CharString>
        <CharString name="eng">
          10 347 518 rmoveto
          -31 callgsubr
          hvcurveto
          -52 callsubr
          -510 169 265 hlineto
          100 2 13 46 43 3 -3 -103 vhcurveto
          -301 vlineto
          -37 -3 -15 -65 -4 callgsubr
          196 41 18 199 hvcurveto
          308 vlineto
          -53 callsubr
          vhcurveto
          endchar
        </CharString>
        <CharString name="eogonek">
          -19 460 254 rmoveto
          194 -1 70 -207 -206 -13 -79 -185 -185 11 -77 223 vhcurveto
          23 hlineto
          -37 -31 -25 -34 -40 vvcurveto
          -41 27 -42 96 21 30 2 2 17 vhcurveto
          81 vlineto
          -1 -6 -5 8 callgsubr
          16 38 50 35 33 16 hvcurveto
          -99 callsubr
          endchar
        </CharString>
        <CharString name="equal">
          -6 64 290 rmoveto
          -8 callgsubr
          -324 vmoveto
          -8 callgsubr
          endchar
        </CharString>
        <CharString name="estimated">
          93 225 323 rmoveto
          341 21 hlineto
          -34 callgsubr
          195 41 32 176 11 vhcurveto
          -36 hlineto
          -168 -10 -40 -6 -153 hhcurveto
          -83 -4 6 291 hvcurveto
          79 339 rmoveto
          75 4 -6 -299 hvcurveto
          -158 hlineto
          299 3 6 76 vhcurveto
          endchar
        </CharString>
        <CharString name="eth">
          -5 255 -8 rmoveto
          209 11 59 206 74 -4 63 -8 46 hvcurveto
          -12 72 -17 53 -22 44 55 9 rcurveline
          92 vlineto
          -112 -16 -13 17 -12 16 -17 16 rlinecurve
          -178 -4 hlineto
          20 -20 21 -22 20 -25 -60 -8 rcurveline
          -92 vlineto
          113 15 11 -23 10 -25 8 -28 rlinecurve
          -5 -4 rlineto
          7 -24 -22 4 -31 hhcurveto
          -147 -16 -81 -183 -35 callgsubr
        </CharString>
        <CharString name="exclam">
          -196 106 234 rmoveto
          -59 callsubr
          -29 -234 -43 callgsubr
          endchar
        </CharString>
        <CharString name="exclam.case">
          -196 106 234 rmoveto
          -59 callsubr
          -29 -234 -43 callgsubr
          endchar
        </CharString>
        <CharString name="exclam.ss02">
          279 397 -8 rmoveto
          194 158 158 194 194 -158 158 -194 -194 -158 -158 -194 -194 158 -158 194 hvcurveto
          45 vmoveto
          -169 -138 138 169 169 138 138 169 169 138 -138 -169 -169 -138 -138 -169 hvcurveto
          -20 231 rmoveto
          40 hlineto
          7 49 7 88 75 vvcurveto
          99 -68 -99 vlineto
          -75 7 -88 7 -49 vhcurveto
          -14 -159 rmoveto
          68 82 -68 hlineto
          endchar
        </CharString>
        <CharString name="exclamdbl">
          54 106 234 rmoveto
          -59 callsubr
          250 hmoveto
          -59 callsubr
          -279 -234 -43 callgsubr
          250 -150 -43 callgsubr
          endchar
        </CharString>
        <CharString name="exclamdown">
          -210 63 360 -37 callgsubr
        </CharString>
        <CharString name="exclamdown.case">
          -199 64 538 -37 callgsubr
        </CharString>
        <CharString name="f">
          -130 92 hmoveto
          -34 callsubr
        </CharString>
        <CharString name="f_f">
          255 92 hmoveto
          -55 callgsubr
          385 -382 rmoveto
          -34 callsubr
        </CharString>
        <CharString name="fi">
          135 431 -47 callsubr
          -339 -36 callsubr
          340 -382 -69 callsubr
          endchar
        </CharString>
        <CharString name="five">
          32 56 144 rmoveto
          -132 vlineto
          -12 59 84 -8 60 hhcurveto
          203 46 72 165 130 -37 9 callsubr
          245 144 -405 -18 callgsubr
        </CharString>
        <CharString name="five.dnom">
          -193 39 82 -70 callgsubr
          endchar
        </CharString>
        <CharString name="five.numr">
          -193 39 390 -70 callgsubr
          endchar
        </CharString>
        <CharString name="five.tnum">
          61 72 144 rmoveto
          -132 vlineto
          -12 60 84 -8 59 hhcurveto
          203 47 72 165 130 -38 9 callsubr
          246 144 -406 -18 callgsubr
        </CharString>
        <CharString name="fiveeighths">
          297 39 390 -70 callgsubr
          105 -390 rmoveto
          -27 callgsubr
          95 -692 -97 callsubr
        </CharString>
        <CharString name="fl">
          135 432 -32 callsubr
          -340 -36 callsubr
          endchar
        </CharString>
        <CharString name="florin">
          -25 453 627 rmoveto
          25 115 rlineto
          -237 -37 -11 -218 -46 hvcurveto
          -1 -3 rlineto
          -75 hlineto
          -28 -128 rlineto
          76 hlineto
          -85 -398 rlineto
          -60 -13 -8 -5 -92 hhcurveto
          -24 -115 rlineto
          233 38 10 169 36 hvcurveto
          85 399 rlineto
          101 hlineto
          27 128 rlineto
          -102 hlineto
          112 25 4 5 98 hhcurveto
          endchar
        </CharString>
        <CharString name="four">
          54 301 -1 callgsubr
          -53 -152 rlineto
          -96 hlineto
          186 414 rlineto
          -193 hlineto
          -178 -431 rlineto
          -125 276 vlineto
          endchar
        </CharString>
        <CharString name="four.dnom">
          -188 173 hmoveto
          -28 callsubr
        </CharString>
        <CharString name="four.numr">
          -188 173 308 rmoveto
          -28 callsubr
        </CharString>
        <CharString name="four.ss01">
          63 305 hmoveto
          180 131 71 143 -71 414 -263 hlineto
          -197 -432 rlineto
          -125 280 vlineto
          -122 143 rmoveto
          115 266 rlineto
          7 -266 hlineto
          endchar
        </CharString>
        <CharString name="four.tnum">
          61 302 -1 callgsubr
          -52 -152 rlineto
          -98 hlineto
          187 414 rlineto
          -193 hlineto
          -179 -431 rlineto
          -125 277 vlineto
          endchar
        </CharString>
        <CharString name="fraction">
          -367 -178 hmoveto
          -27 callgsubr
          endchar
        </CharString>
        <CharString name="g">
          5 239 -205 -101 callsubr
        </CharString>
        <CharString name="g_tilde.loclGUA">
          5 440 743 -107 callsubr
          -201 -948 -101 callsubr
        </CharString>
        <CharString name="gbreve">
          5 406 743 -103 callsubr
          -167 -948 -101 callsubr
        </CharString>
        <CharString name="gcaron">
          5 181 603 -99 callgsubr
          141 -940 -101 callsubr
        </CharString>
        <CharString name="gcircumflex">
          5 98 603 -106 callgsubr
          141 -816 -101 callsubr
        </CharString>
        <CharString name="gcommaaccent">
          5 346 -19 callsubr
          -107 -968 -101 callsubr
        </CharString>
        <CharString name="gdotaccent">
          5 192 -46 callgsubr
          47 -935 -101 callsubr
        </CharString>
        <CharString name="germandbls">
          22 289 hmoveto
          180 35 68 172 130 -38 48 -75 15 hvcurveto
          4 vlineto
          72 13 33 43 87 vvcurveto
          110 -49 60 -176 -171 -53 -63 -135 vhcurveto
          -552 169 541 vlineto
          74 12 8 44 40 13 -8 -57 -55 -4 -9 -49 vhcurveto
          -9 -128 9 hlineto
          51 10 -5 -111 -120 -7 -2 -53 hvcurveto
          -11 -128 hlineto
          endchar
        </CharString>
        <CharString name="grave">
          -256 122 596 -92 callgsubr
          endchar
        </CharString>
        <CharString name="gravecomb">
          -137 596 -92 callgsubr
          endchar
        </CharString>
        <CharString name="gravecomb.case">
          -137 741 -92 callgsubr
          endchar
        </CharString>
        <CharString name="greater">
          -6 64 55 rmoveto
          381 136 rlineto
          124 vlineto
          -381 136 rlineto
          -124 vlineto
          227 -74 -227 -74 rlineto
          endchar
        </CharString>
        <CharString name="greaterequal">
          -3 66 180 rmoveto
          382 136 rlineto
          124 vlineto
          -382 137 rlineto
          -125 vlineto
          228 -74 -228 -73 rlineto
          -291 vmoveto
          382 124 -382 hlineto
          endchar
        </CharString>
        <CharString name="guillemotleft">
          -44 133 109 -10 callgsubr
          296 -200 -10 callgsubr
          endchar
        </CharString>
        <CharString name="guillemotright">
          -44 43 109 -39 callsubr
          100 -200 -39 callsubr
          endchar
        </CharString>
        <CharString name="guilsinglleft">
          -229 133 109 rmoveto
          109 hlineto
          -84 200 84 201 rlineto
          -109 hlineto
          -111 -201 rlineto
          endchar
        </CharString>
        <CharString name="guilsinglright">
          -229 43 109 -39 callsubr
          endchar
        </CharString>
        <CharString name="h">
          10 310 hmoveto
          -62 callsubr
          endchar
        </CharString>
        <CharString name="hbar">
          10 347 518 rmoveto
          -46 -49 -14 -52 -28 hvcurveto
          -8 115 107 121 -107 55 -169 -55 -49 -121 49 -567 169 265 hlineto
          100 2 13 46 43 3 -3 -103 vhcurveto
          -272 -24 callgsubr
          vlineto
          -53 callsubr
          vhcurveto
          endchar
        </CharString>
        <CharString name="hcircumflex">
          10 -31 781 -106 callgsubr
          341 -789 rmoveto
          -62 callsubr
          endchar
        </CharString>
        <CharString name="hookabovecomb">
          -227 611 -104 callsubr
          endchar
        </CharString>
        <CharString name="hookabovecomb.case">
          -227 -95 callgsubr
          endchar
        </CharString>
        <CharString name="house">
          156 35 hmoveto
          600 hlineto
          1 398 -238 299 rlineto
          -125 hlineto
          -238 -299 rlineto
          131 -290 rmoveto
          263 vlineto
          170 216 168 -216 rlineto
          -263 vlineto
          endchar
        </CharString>
        <CharString name="hungarumlaut">
          -128 14 610 -81 callsubr
          endchar
        </CharString>
        <CharString name="hyphen">
          -3 callsubr
        </CharString>
        <CharString name="i">
          3 callgsubr
          1 -743 -69 callsubr
          endchar
        </CharString>
        <CharString name="i.loclTRK">
          -250 64 -46 callgsubr
          -17 -730 -69 callsubr
          endchar
        </CharString>
        <CharString name="iacute">
          -250 48 596 -102 callgsubr
          -1 -601 -69 callsubr
          endchar
        </CharString>
        <CharString name="iacute_j.loclNLD">
          15 68 596 -102 callgsubr
          265 -5 -102 callgsubr
          -286 -601 -69 callsubr
          197 -708 -76 callgsubr
        </CharString>
        <CharString name="ibreve">
          -250 278 743 -103 callsubr
          -231 -743 -69 callsubr
          endchar
        </CharString>
        <CharString name="icircumflex">
          -250 -29 603 -106 callgsubr
          76 -611 -69 callsubr
          endchar
        </CharString>
        <CharString name="idieresis">
          -250 -34 615 -88 callsubr
          -115 -728 -69 callsubr
          endchar
        </CharString>
        <CharString name="igrave">
          -250 94 596 -92 callgsubr
          61 -738 -69 callsubr
          endchar
        </CharString>
        <CharString name="ij">
          15 -12 callsubr
          265 -135 -50 callgsubr
          -264 -743 -69 callsubr
          197 -708 -76 callgsubr
        </CharString>
        <CharString name="imacron">
          -250 6 607 -68 callgsubr
          41 -743 -69 callsubr
          endchar
        </CharString>
        <CharString name="infinity">
          404 255 34 rmoveto
          112 59 51 66 34 hvcurveto
          -66 34 58 -51 113 hhcurveto
          167 42 80 142 141 -42 81 -167 -113 -58 -52 -64 -34 hvcurveto
          64 -34 -59 52 -112 hhcurveto
          -167 -44 -81 -141 -142 44 -80 167 hvcurveto
          11 115 rmoveto
          -73 -18 33 74 73 18 35 73 80 30 -49 -59 18 hvcurveto
          -58 -18 -30 -49 -80 hhcurveto
          388 hmoveto
          -80 -30 49 58 -18 hvcurveto
          59 18 30 49 80 hhcurveto
          73 17 -35 -73 -74 -17 -33 -73 hvcurveto
          endchar
        </CharString>
        <CharString name="integral">
          -107 36 -190 rmoveto
          203 66 4 155 11 -1 18 -3 48 hvcurveto
          -28 445 rlineto
          -1 14 -1 15 11 vvcurveto
          46 15 3 81 vhcurveto
          116 vlineto
          -204 -65 -4 -152 -16 1 -19 1 -15 hvcurveto
          28 -446 rlineto
          3 -50 1 -17 -7 vvcurveto
          -41 -17 -3 -79 vhcurveto
          endchar
        </CharString>
        <CharString name="iogonek">
          -250 200 12 callsubr
          18 -617 rmoveto
          510 -171 -510 40 vlineto
          -35 -32 -25 -38 -41 vvcurveto
          -44 28 -41 95 20 -11 callgsubr
          -4 hhcurveto
          -33 -9 16 17 32 29 33 29 14 hvcurveto
          endchar
        </CharString>
        <CharString name="itilde">
          -250 312 743 -107 callsubr
          -265 -743 -69 callsubr
          endchar
        </CharString>
        <CharString name="j">
          3 callgsubr
          -67 -941 -76 callgsubr
        </CharString>
        <CharString name="jcircumflex">
          -250 -30 603 -106 callgsubr
          9 -809 -76 callgsubr
        </CharString>
        <CharString name="k">
          -45 callsubr
          426 -169 -743 169 189 20 hlineto
          endchar
        </CharString>
        <CharString name="kcommaaccent">
          -45 callsubr
          426 -169 -743 169 189 20 hlineto
          -61 -414 rmoveto
          -87 callsubr
        </CharString>
        <CharString name="kgreenlandic">
          -45 callsubr
          193 -169 -510 169 189 20 hlineto
          endchar
        </CharString>
        <CharString name="l">
          -250 47 -32 callsubr
          endchar
        </CharString>
        <CharString name="lacute">
          -250 68 774 -102 callgsubr
          -21 -779 rmoveto
          171 743 -171 hlineto
          endchar
        </CharString>
        <CharString name="lcaron">
          -154 47 -32 callsubr
          201 -318 -44 callgsubr
          endchar
        </CharString>
        <CharString name="lcommaaccent">
          -250 47 -32 callsubr
          -968 vmoveto
          -87 callsubr
        </CharString>
        <CharString name="ldot">
          -131 47 -32 callsubr
          203 -519 rmoveto
          153 150 -153 hlineto
          endchar
        </CharString>
        <CharString name="leftOpenDialog">
          105 626 628 rmoveto
          60 -626 -688 626 60 -566 568 vlineto
          endchar
        </CharString>
        <CharString name="less">
          -6 446 55 rmoveto
          124 vlineto
          -229 74 229 74 rlineto
          124 vlineto
          -382 -136 rlineto
          -124 vlineto
          endchar
        </CharString>
        <CharString name="lessequal">
          -6 445 180 rmoveto
          125 vlineto
          -228 73 228 74 rlineto
          125 vlineto
          -381 -137 rlineto
          -124 vlineto
          -302 vmoveto
          381 124 -381 hlineto
          endchar
        </CharString>
        <CharString name="logicalnot">
          -6 319 59 rmoveto
          125 254 -380 -125 255 hlineto
          endchar
        </CharString>
        <CharString name="longs">
          -147 92 hmoveto
          171 559 -70 callsubr
          endchar
        </CharString>
        <CharString name="lozenge">
          -15 183 hmoveto
          134 hlineto
          158 344 -158 344 rlineto
          -134 hlineto
          -158 -344 rlineto
          225 -235 rmoveto
          -98 235 98 235 98 -235 rlineto
          endchar
        </CharString>
        <CharString name="lslash">
          -230 56 hmoveto
          171 340 hlineto
          49 18 rlineto
          125 vlineto
          -49 -18 rlineto
          278 -171 -336 vlineto
          -48 -17 rlineto
          -124 vlineto
          48 17 rlineto
          endchar
        </CharString>
        <CharString name="m">
          260 560 hmoveto
          169 329 hlineto
          125 -20 64 -111 -49 -48 -15 -52 -28 vhcurveto
          -9 hlineto
          46 -15 -34 21 -69 hhcurveto
          -50 -47 -15 -52 -28 hvcurveto
          -52 callsubr
          -510 169 265 hlineto
          101 2 12 43 38 4 -3 -103 vhcurveto
          -272 169 265 vlineto
          101 2 12 43 38 5 -3 -103 vhcurveto
          endchar
        </CharString>
        <CharString name="macron">
          -172 46 607 -68 callgsubr
          endchar
        </CharString>
        <CharString name="minus">
          -6 64 190 rmoveto
          -8 callgsubr
          endchar
        </CharString>
        <CharString name="minute">
          -251 42 365 -21 callsubr
          endchar
        </CharString>
        <CharString name="multiply">
          -22 246 165 rmoveto
          95 -95 89 89 -95 95 95 94 -88 88 -95 -94 -95 95 -89 -89 95 -95 -94 -94 88 -88 rlineto
          endchar
        </CharString>
        <CharString name="n">
          10 310 hmoveto
          -90 callgsubr
          endchar
        </CharString>
        <CharString name="nacute">
          10 198 596 -102 callgsubr
          112 -601 rmoveto
          -90 callgsubr
          endchar
        </CharString>
        <CharString name="nacute.loclPLK">
          10 198 596 -77 callgsubr
          112 -601 rmoveto
          -90 callgsubr
          endchar
        </CharString>
        <CharString name="napostrophe">
          158 -22 callsubr
          438 -548 rmoveto
          -90 callgsubr
          endchar
        </CharString>
        <CharString name="ncaron">
          10 183 603 -99 callgsubr
          210 -735 rmoveto
          -90 callgsubr
          endchar
        </CharString>
        <CharString name="ncommaaccent">
          10 310 hmoveto
          -90 callgsubr
          -133 -497 rmoveto
          -87 callsubr
        </CharString>
        <CharString name="nine">
          61 266 -8 rmoveto
          130 70 29 84 37 hvcurveto
          23 51 8 79 109 vvcurveto
          102 -5 73 -15 55 vhcurveto
          103 -28 -67 19 -141 hhcurveto
          -196 -44 -66 -175 -176 67 -30 119 79 32 30 18 12 hvcurveto
          6 hlineto
          -142 -12 -21 -108 -33 -65 5 7 -64 vhcurveto
          -132 vlineto
          -13 60 81 -9 54 hhcurveto
          18 398 rmoveto
          -60 -13 5 79 77 14 5 59 51 16 -2 -88 -62 -5 -14 -62 hvcurveto
          endchar
        </CharString>
        <CharString name="nine.dnom">
          -181 153 -4 -65 callgsubr
        </CharString>
        <CharString name="nine.numr">
          -181 153 304 -65 callgsubr
        </CharString>
        <CharString name="nine.ss01">
          48 93 hmoveto
          205 hlineto
          93 75 145 181 190 vvcurveto
          150 -36 100 -219 -218 -36 -91 -133 -117 19 -104 160 34 32 6 10 28 vhcurveto
          3 -5 -49 -105 -96 -98 -65 -52 rlinecurve
          188 383 rmoveto
          -64 -15 5 78 76 14 7 65 55 18 -3 -86 -64 -9 -13 -64 hvcurveto
          endchar
        </CharString>
        <CharString name="nine.tnum">
          61 265 -8 rmoveto
          138 70 32 78 30 hvcurveto
          24 64 7 74 104 vvcurveto
          141 -10 85 -28 47 vhcurveto
          67 -41 -65 12 -113 hhcurveto
          -195 -45 -66 -175 -176 68 -30 118 70 35 22 26 18 hvcurveto
          7 hlineto
          -142 -13 -21 -108 -32 -66 5 7 -64 vhcurveto
          -132 vlineto
          -13 61 81 -9 53 hhcurveto
          19 398 rmoveto
          -60 -13 5 79 77 13 5 60 50 17 -2 -88 -62 -5 -14 -62 hvcurveto
          endchar
        </CharString>
        <CharString name="notequal">
          -6 227 91 rmoveto
          218 125 -160 hlineto
          35 74 rlineto
          125 124 -67 hlineto
          39 84 rlineto
          -105 hlineto
          -40 -84 rlineto
          -208 -124 151 hlineto
          -35 -74 rlineto
          -116 -125 58 hlineto
          -37 -79 rlineto
          105 hlineto
          endchar
        </CharString>
        <CharString name="ntilde">
          10 447 743 -107 callsubr
          -137 -743 rmoveto
          -90 callgsubr
          endchar
        </CharString>
        <CharString name="numbersign">
          123 303 hmoveto
          113 hlineto
          31 174 rlineto
          113 105 -93 hlineto
          24 129 rlineto
          99 105 -79 6 callgsubr
          -101 6 callgsubr
          -109 -105 89 hlineto
          -23 -129 rlineto
          -96 -105 76 hlineto
          -32 -174 rlineto
          112 hlineto
          32 174 rlineto
          102 hlineto
          43 234 rmoveto
          -23 -129 rlineto
          -102 hlineto
          24 129 rlineto
          endchar
        </CharString>
        <CharString name="o">
          -6 254 -8 -104 callgsubr
          endchar
        </CharString>
        <CharString name="oacute">
          -6 185 596 -102 callgsubr
          69 -609 -104 callgsubr
          endchar
        </CharString>
        <CharString name="oacute.loclPLK">
          -6 191 596 -77 callgsubr
          63 -609 -104 callgsubr
          endchar
        </CharString>
        <CharString name="obreve">
          -6 401 743 -103 callsubr
          -147 -751 -104 callgsubr
          endchar
        </CharString>
        <CharString name="ocircumflex">
          -6 94 603 -106 callgsubr
          160 -619 -104 callgsubr
          endchar
        </CharString>
        <CharString name="odieresis">
          -6 90 615 -88 callsubr
          -32 -736 -104 callgsubr
          endchar
        </CharString>
        <CharString name="oe">
          257 736 254 rmoveto
          194 -2 70 -198 -62 -46 -12 -25 -34 vhcurveto
          26 -32 -46 11 -66 hhcurveto
          -204 -13 -56 -207 -207 13 -56 204 67 46 11 26 33 hvcurveto
          -25 36 50 -12 69 hhcurveto
          61 71 7 10 37 hvcurveto
          117 vlineto
          -3 -46 -59 -3 -32 hhcurveto
          -101 -6 5 90 hvcurveto
          260 hlineto
          -209 -14 callsubr
          45 7 -6 -91 hvcurveto
          -103 hlineto
          89 6 8 45 vhcurveto
          -273 -278 -44 callsubr
        </CharString>
        <CharString name="ogonek">
          -324 191 -192 rmoveto
          -40 callgsubr
        </CharString>
        <CharString name="ograve">
          -6 198 596 -92 callgsubr
          164 -746 -104 callgsubr
          endchar
        </CharString>
        <CharString name="ohorn">
          -6 428 600 -89 callgsubr
        </CharString>
        <CharString name="ohungarumlaut">
          -6 122 610 -81 callsubr
          -37 -623 -104 callgsubr
          endchar
        </CharString>
        <CharString name="omacron">
          -6 129 607 -68 callgsubr
          125 -751 -104 callgsubr
          endchar
        </CharString>
        <CharString name="one">
          -154 123 hmoveto
          -31 callsubr
          -129 hlineto
          -165 -84 rlineto
          -146 vlineto
          111 44 rlineto
          endchar
        </CharString>
        <CharString name="one.dnom">
          -302 71 hmoveto
          -2 callgsubr
        </CharString>
        <CharString name="one.numr">
          -302 71 308 rmoveto
          -2 callgsubr
        </CharString>
        <CharString name="one.tnum">
          61 81 hmoveto
          448 142 -127 546 -129 hlineto
          -188 -87 rlineto
          -144 vlineto
          134 45 rlineto
          -360 -138 vlineto
          endchar
        </CharString>
        <CharString name="oneeighth">
          250 -55 callsubr
          94 -692 -97 callsubr
        </CharString>
        <CharString name="onehalf">
          228 93 314 rmoveto
          112 374 -77 hlineto
          -94 -48 rlineto
          -93 vlineto
          59 25 rlineto
          390 116 rmoveto
          -403 -688 rlineto
          103 hlineto
          402 688 rlineto
          -32 -590 rmoveto
          19 5 7 20 9 vhcurveto
          22 9 21 8 23 11 rrcurveto
          37 15 21 25 70 vvcurveto
          101 -59 10 -69 -39 -52 -5 -7 -32 vhcurveto
          -85 vlineto
          4 37 40 4 20 hhcurveto
          34 8 -2 -25 -22 -4 -4 -22 -11 hvcurveto
          -75 -35 rlineto
          -42 -20 -2 -34 -82 vvcurveto
          -58 257 91 -149 vlineto
          endchar
        </CharString>
        <CharString name="onequarter">
          193 -55 callsubr
          41 -688 rmoveto
          110 66 36 90 -36 82 -68 hlineto
          -34 -82 rlineto
          -46 hlineto
          105 219 rlineto
          -119 hlineto
          -97 -233 rlineto
          -76 149 vlineto
          endchar
        </CharString>
        <CharString name="ordfeminine">
          -136 122 310 rmoveto
          34 33 7 42 22 hvcurveto
          6 hlineto
          3 -44 rlineto
          120 226 hlineto
          108 -15 47 -143 -45 -49 -5 -8 -40 vhcurveto
          -87 vlineto
          3 46 27 2 21 hhcurveto
          67 8 -2 -49 hvcurveto
          -15 vlineto
          1 -25 -39 2 -16 hhcurveto
          -86 -22 -30 -83 -78 28 -37 65 hvcurveto
          57 90 rmoveto
          -31 -3 9 27 33 5 6 27 hvcurveto
          40 -20 hlineto
          -18 -1 -14 -4 -7 vhcurveto
          -12 -5 -10 -4 -18 hhcurveto
          endchar
        </CharString>
        <CharString name="ordmasculine">
          -120 197 310 rmoveto
          141 20 34 159 159 -20 34 -141 -140 -21 -34 -159 -159 21 -34 140 hvcurveto
          95 vmoveto
          -37 0 6 92 92 0 7 37 37 1 -7 -92 -92 -1 -6 -37 hvcurveto
          endchar
        </CharString>
        <CharString name="orn.001">
          -178 289 341 rmoveto
          105 -6 17 -117 -112 -6 -17 -105 -102 6 -16 112 117 6 16 102 vhcurveto
          endchar
        </CharString>
        <CharString name="orn.002">
          34 210 -60 callgsubr
          63 101 -54 callgsubr
          121 87 -13 callgsubr
          -29 -21 22 28 29 21 21 29 28 22 -21 -29 -28 -22 -22 -28 hvcurveto
          endchar
        </CharString>
        <CharString name="orn.003">
          -100 211 -60 callgsubr
          63 101 -54 callgsubr
          63 101 -30 callsubr
          endchar
        </CharString>
        <CharString name="orn.007">
          -178 168 222 rmoveto
          67 54 53 67 67 -54 54 -67 -67 -53 -54 -67 -67 53 -53 67 hvcurveto
          endchar
        </CharString>
        <CharString name="orn.010">
          279 397 hmoveto
          352 348 hlineto
          5 callgsubr
          -207 -145 -143 -205 -204 145 -144 207 vhcurveto
          endchar
        </CharString>
        <CharString name="orn.015">
          -2 callsubr
          187 60 -187 hlineto
          187 -272 rmoveto
          213 212 rlineto
          167 60 -192 hlineto
          -188 -187 rlineto
          endchar
        </CharString>
        <CharString name="orn.016">
          -2 callsubr
          567 60 -567 hlineto
          endchar
        </CharString>
        <CharString name="orn.017">
          -455 0 vmoveto
          60 688 -60 hlineto
          endchar
        </CharString>
        <CharString name="orn.018">
          277 211 -60 callgsubr
          370 hmoveto
          99 62 67 110 126 vvcurveto
          125 -67 111 -99 62 vhcurveto
          -32 -51 rlineto
          82 -51 56 -92 -104 vvcurveto
          -105 -55 -91 -83 -52 vhcurveto
          -275 51 -54 callgsubr
          244 hmoveto
          65 41 44 73 83 vvcurveto
          83 -44 73 -66 41 vhcurveto
          -32 -51 rlineto
          49 -31 33 -54 -61 vvcurveto
          -62 -33 -53 -48 -31 vhcurveto
          -149 50 -30 callsubr
          118 hmoveto
          -26 callsubr
        </CharString>
        <CharString name="orn.019">
          34 338 -57 callgsubr
          -89 36 -13 callgsubr
          -28 -22 22 28 29 22 21 28 29 21 -21 -29 -28 -21 -22 -29 hvcurveto
          endchar
        </CharString>
        <CharString name="orn.020">
          -100 204 -57 callgsubr
          -31 50 rmoveto
          -26 callsubr
        </CharString>
        <CharString name="orn.021">
          238 376 -116 rmoveto
          135 70 197 192 218 vvcurveto
          188 -149 144 -183 -183 -148 -144 -188 -217 197 -193 134 -70 vhcurveto
          endchar
        </CharString>
        <CharString name="orn.022">
          -126 171 220 rmoveto
          98 80 83 40 40 -80 83 -98 -81 -42 -55 -68 -68 42 -55 81 hvcurveto
          endchar
        </CharString>
        <CharString name="oslash">
          -6 34 -55 -64 callsubr
        </CharString>
        <CharString name="oslash.bold">
          -6 433 476 rmoveto
          43 89 rlineto
          -141 hlineto
          -24 -49 rlineto
          1 -17 -19 1 -21 10 callgsubr
          -115 4 -69 40 -38 hvcurveto
          -43 -88 rlineto
          140 hlineto
          24 49 rlineto
          -1 17 18 -1 21 hhcurveto
          209 13 56 207 115 -4 68 -39 38 hvcurveto
          -183 -86 rmoveto
          -48 -99 rlineto
          90 1 5 9 42 hhcurveto
          9 -270 rmoveto
          48 98 -1 -88 -5 -9 -42 -1 rlinecurve
          endchar
        </CharString>
        <CharString name="oslashacute">
          -6 191 596 -102 callgsubr
          -157 -656 -64 callsubr
        </CharString>
        <CharString name="otilde">
          -6 437 743 -107 callsubr
          -183 -751 -104 callgsubr
          endchar
        </CharString>
        <CharString name="p">
          6 47 -198 rmoveto
          169 251 9 hlineto
          -48 25 42 -13 51 hhcurveto
          105 39 61 203 209 -41 53 -103 -47 -50 -12 -55 -24 hvcurveto
          -9 hlineto
          -4 59 rlineto
          -162 hlineto
          220 -379 rmoveto
          -28 -13 5 30 -6 hvcurveto
          -4 15 0 29 45 vvcurveto
          46 0 29 5 19 vhcurveto
          25 6 12 5 28 0 callgsubr
        </CharString>
        <CharString name="paragraph">
          65 233 -144 rmoveto
          113 832 -113 hlineto
          -185 -12 -31 -203 -203 12 -29 185 hvcurveto
          172 -366 rmoveto
          114 832 -114 hlineto
          endchar
        </CharString>
        <CharString name="parenleft">
          -178 200 -150 -27 callsubr
          -69 102 -36 46 299 vvcurveto
          298 36 46 69 102 vhcurveto
          -116 hlineto
          -109 -126 -38 -58 -262 vvcurveto
          -263 38 -48 109 -136 vhcurveto
          endchar
        </CharString>
        <CharString name="parenleft.ss02">
          -7 callsubr
          -204 145 -144 207 hvcurveto
          endchar
        </CharString>
        <CharString name="parenright">
          -178 20 -150 -27 callsubr
          109 136 39 48 263 vvcurveto
          262 -39 58 -109 126 vhcurveto
          -116 hlineto
          70 -102 35 -46 -298 vvcurveto
          -299 -36 -46 -69 -102 vhcurveto
          endchar
        </CharString>
        <CharString name="parenright.ss02">
          -118 0 vmoveto
          207 145 144 204 5 callgsubr
          hvcurveto
          endchar
        </CharString>
        <CharString name="partialdiff">
          -6 255 -8 rmoveto
          209 12 59 206 80 -7 67 -14 73 hvcurveto
          -22 119 -54 81 -66 66 rrcurveto
          -178 -4 hlineto
          54 -57 56 -68 32 -104 -4 -3 rcurveline
          7 -23 -28 4 -20 hhcurveto
          -150 -19 -76 -188 -35 callgsubr
        </CharString>
        <CharString name="percent">
          309 188 311 rmoveto
          128 16 33 159 160 -16 33 -128 -128 -15 -33 -160 -159 15 -33 128 hvcurveto
          -31 -311 rmoveto
          100 hlineto
          410 688 rlineto
          -100 hlineto
          -379 -299 rmoveto
          -39 -1 3 111 112 1 3 39 39 1 -3 -112 -111 -1 -3 -39 hvcurveto
          447 -397 rmoveto
          128 16 32 160 159 -16 34 -128 -128 -15 -34 -159 -160 15 -32 128 hvcurveto
          78 vmoveto
          -38 -1 3 111 111 1 4 38 40 0 -4 -111 -111 0 -3 -40 hvcurveto
          endchar
        </CharString>
        <CharString name="period">
          -222 58 hmoveto
          178 150 -178 hlineto
          endchar
        </CharString>
        <CharString name="periodcentered">
          -222 58 224 -91 callgsubr
        </CharString>
        <CharString name="perthousand">
          462 171 359 rmoveto
          115 11 30 139 138 -11 30 -115 -115 -11 -30 -138 -139 11 -30 115 hvcurveto
          -86 -359 rmoveto
          100 hlineto
          418 688 rlineto
          -100 hlineto
          -332 -260 rmoveto
          -34 -1 3 97 96 1 3 34 34 1 -3 -96 -97 -1 -3 -34 hvcurveto
          347 -436 rmoveto
          115 11 29 139 139 -11 30 -115 2 callgsubr
          288 hmoveto
          114 12 29 139 139 -12 30 -114 2 callgsubr
          -288 69 rmoveto
          -34 -1 3 96 97 1 3 34 34 1 -3 -97 -96 -1 -3 -34 hvcurveto
          288 hmoveto
          -34 -1 3 96 97 1 3 34 34 0 -3 -97 -96 0 -3 -34 hvcurveto
          endchar
        </CharString>
        <CharString name="pi">
          9 305 hmoveto
          171 510 -427 -510 171 384 85 hlineto
          endchar
        </CharString>
        <CharString name="plus">
          -6 191 62 -18 callsubr
          endchar
        </CharString>
        <CharString name="plusminus">
          -6 191 193 -18 callsubr
          -127 -307 rmoveto
          381 124 -381 hlineto
          endchar
        </CharString>
        <CharString name="product">
          109 385 -189 rmoveto
          184 877 -514 -877 185 737 145 hlineto
          endchar
        </CharString>
        <CharString name="q">
          6 305 -198 rmoveto
          169 708 -162 hlineto
          -4 -59 rlineto
          -10 hlineto
          55 -24 -49 12 -48 hhcurveto
          -103 -41 -54 -208 -204 39 -60 105 51 42 13 48 26 hvcurveto
          9 hlineto
          -51 78 rmoveto
          -49 -3 5 119 119 3 5 49 25 13 -4 -21 6 hvcurveto
          6 -19 1 -31 -49 vvcurveto
          -51 -1 -30 -5 -15 vhcurveto
          -24 -7 -12 -4 -26 hhcurveto
          endchar
        </CharString>
        <CharString name="question">
          -63 callgsubr
        </CharString>
        <CharString name="question.case">
          -63 callgsubr
        </CharString>
        <CharString name="questiondown">
          -95 184 360 -62 callgsubr
        </CharString>
        <CharString name="questiondown.case">
          -55 184 538 -62 callgsubr
        </CharString>
        <CharString name="quotedbl">
          -50 -8 callsubr
          218 -212 -27 callsubr
          17 212 rlineto
          51 -151 -51 vlineto
          endchar
        </CharString>
        <CharString name="quotedblbase">
          -10 -20 callsubr
          221 hmoveto
          -37 callsubr
          105 -167 -141 60 -15 vlineto
          -52 -8 -15 -54 vhcurveto
          endchar
        </CharString>
        <CharString name="quotedblleft">
          -10 -19 callgsubr
          221 -106 rmoveto
          167 141 -60 15 hlineto
          52 9 16 54 vhcurveto
          63 vlineto
          -152 -18 -39 -142 hvcurveto
          endchar
        </CharString>
        <CharString name="quotedblright">
          -10 56 465 rmoveto
          -35 callsubr
          -8 -16 -54 vhcurveto
          221 hmoveto
          -35 callsubr
          -9 -16 -53 vhcurveto
          endchar
        </CharString>
        <CharString name="quoteleft">
          -231 -19 callgsubr
          endchar
        </CharString>
        <CharString name="quoteright">
          -231 56 465 rmoveto
          -35 callsubr
          -8 -16 -54 vhcurveto
          endchar
        </CharString>
        <CharString name="quotesinglbase">
          -231 -20 callsubr
          endchar
        </CharString>
        <CharString name="quotesingle">
          -251 -8 callsubr
          endchar
        </CharString>
        <CharString name="r">
          -33 callsubr
          endchar
        </CharString>
        <CharString name="racute">
          -138 125 596 -102 callgsubr
          -78 -601 rmoveto
          -78 callsubr
          endchar
        </CharString>
        <CharString name="radical">
          176 240 -106 rmoveto
          216 hlineto
          193 876 rlineto
          -157 hlineto
          -151 -724 -120 307 -197 -83 31 -84 56 23 rlineto
          endchar
        </CharString>
        <CharString name="rcaron">
          -138 110 603 -99 callgsubr
          20 -735 rmoveto
          -78 callsubr
          endchar
        </CharString>
        <CharString name="rcommaaccent">
          -33 callsubr
          -1 -735 rmoveto
          -87 callsubr
        </CharString>
        <CharString name="registered">
          160 337 696 rmoveto
          -258 -14 -42 -310 -311 14 -41 258 259 13 41 311 310 -13 42 -259 hvcurveto
          -644 -22 callgsubr
          134 355 rmoveto
          79 -13 42 -94 vhcurveto
          -156 -369 95 126 39 hlineto
          1 hlineto
          37 -126 rlineto
          99 hlineto
          -48 141 rlineto
          35 19 5 40 48 vvcurveto
          -168 44 rmoveto
          34 hlineto
          35 3 -5 -41 -41 -4 -5 -35 hvcurveto
          -33 hlineto
          endchar
        </CharString>
        <CharString name="rightCloseDialog">
          96 624 688 rmoveto
          -625 -60 565 -568 -190 hlineto
          -188 -187 rlineto
          -85 vlineto
          213 212 rlineto
          225 hlineto
          -438 60 rmoveto
          -187 -60 187 hlineto
          endchar
        </CharString>
        <CharString name="rightOpenDialog">
          97 625 688 rmoveto
          -626 -60 566 -568 -566 -60 626 hlineto
          endchar
        </CharString>
        <CharString name="ring">
          -205 154 599 -91 callsubr
          endchar
        </CharString>
        <CharString name="s">
          -67 callsubr
          endchar
        </CharString>
        <CharString name="sacute">
          -74 157 596 -102 callgsubr
          71 -609 -98 callsubr
          endchar
        </CharString>
        <CharString name="sacute.loclPLK">
          -74 157 596 -77 callgsubr
          71 -609 -98 callsubr
          endchar
        </CharString>
        <CharString name="scaron">
          -74 145 603 -99 callgsubr
          166 -743 -98 callsubr
          endchar
        </CharString>
        <CharString name="scedilla">
          -74 415 160 rmoveto
          126 -44 18 -56 8 vhcurveto
          -90 12 rlineto
          -37 5 -2 3 28 vvcurveto
          30 10 4 70 26 52 -4 -4 44 -5 callsubr
          8 -37 -70 7 -58 hhcurveto
          -114 -82 -24 -132 -97 15 -51 67 -9 hvcurveto
          102 -14 rlineto
          42 -6 3 -3 -29 vvcurveto
          -32 -7 -5 -78 -34 -53 3 5 -43 -4 callgsubr
          33 -6 45 -5 44 12 callgsubr
          183 rlineto
          83 7 56 34 125 vvcurveto
          endchar
        </CharString>
        <CharString name="scircumflex">
          -74 59 603 -106 callgsubr
          169 -619 -98 callsubr
          endchar
        </CharString>
        <CharString name="scommaaccent">
          -67 callsubr
          -92 -217 rmoveto
          -87 callsubr
        </CharString>
        <CharString name="second">
          -54 42 365 -21 callsubr
          173 -323 -21 callsubr
          endchar
        </CharString>
        <CharString name="section">
          87 285 -171 rmoveto
          122 89 30 142 38 -5 28 -12 23 hvcurveto
          69 18 22 47 105 vvcurveto
          129 -55 21 -78 28 vhcurveto
          -119 41 rlineto
          -41 13 -4 3 27 vvcurveto
          28 10 7 50 62 68 -4 -3 31 vhcurveto
          128 vlineto
          8 -27 -70 10 -80 hhcurveto
          -123 -88 -30 -141 -39 4 -29 12 -22 hvcurveto
          -70 -19 -21 -46 -105 vvcurveto
          -129 54 -21 84 -29 vhcurveto
          118 -40 rlineto
          37 -14 5 -2 -26 vvcurveto
          -29 -10 -7 -51 -60 -67 4 3 -33 vhcurveto
          -128 vlineto
          -8 29 70 -10 78 hhcurveto
          104 345 rmoveto
          -3 -8 2 6 -17 hvcurveto
          -131 47 rlineto
          -29 10 -8 13 36 vvcurveto
          44 6 19 14 4 10 -3 -7 17 vhcurveto
          134 -47 rlineto
          22 -8 8 -13 -36 vvcurveto
          -44 -5 -19 -14 vhcurveto
          endchar
        </CharString>
        <CharString name="semicolon">
          1 callgsubr
          -3 -597 -21 callgsubr
        </CharString>
        <CharString name="seven">
          -10 74 hmoveto
          197 hlineto
          210 558 rlineto
          130 -455 -144 265 vlineto
          endchar
        </CharString>
        <CharString name="seven.dnom">
          -223 44 hmoveto
          -25 callsubr
          endchar
        </CharString>
        <CharString name="seven.numr">
          -223 44 308 rmoveto
          -25 callsubr
          endchar
        </CharString>
        <CharString name="seven.tnum">
          61 110 hmoveto
          197 hlineto
          224 558 rlineto
          130 -482 -144 292 vlineto
          endchar
        </CharString>
        <CharString name="seveneighths">
          231 44 308 rmoveto
          -25 callsubr
          -88 -606 rmoveto
          -27 callgsubr
          95 -692 -97 callsubr
        </CharString>
        <CharString name="six">
          61 298 -8 rmoveto
          196 44 66 175 176 -67 30 -119 -81 -30 -31 -17 -11 hvcurveto
          -7 hlineto
          142 12 21 108 33 66 -5 -7 63 vhcurveto
          132 vlineto
          13 -63 -81 9 -51 hhcurveto
          -140 -70 -33 -96 -34 hvcurveto
          -18 -50 -6 -74 -99 vvcurveto
          -111 6 -76 15 -42 vhcurveto
          -106 35 68 -17 132 -10 callsubr
          -14 -5 -59 hvcurveto
          endchar
        </CharString>
        <CharString name="six.dnom">
          -181 174 -4 -64 callgsubr
        </CharString>
        <CharString name="six.numr">
          -181 174 304 -64 callgsubr
        </CharString>
        <CharString name="six.ss01">
          48 281 -8 rmoveto
          219 36 90 133 118 -19 103 -160 -34 -32 -5 -10 -28 hvcurveto
          -3 5 46 95 93 104 71 56 rlinecurve
          7 -206 vlineto
          -114 -98 -123 -181 -167 vvcurveto
          -151 36 -99 218 vhcurveto
          1 140 rmoveto
          -55 -18 2 87 64 9 13 64 64 15 -5 -78 -77 -14 -6 -65 hvcurveto
          endchar
        </CharString>
        <CharString name="six.tnum">
          61 298 -8 rmoveto
          196 45 66 175 176 -68 30 -119 -68 -36 -22 -26 -18 hvcurveto
          -7 hlineto
          142 13 21 107 33 66 -5 -7 64 vhcurveto
          132 vlineto
          13 -61 -81 9 -53 hhcurveto
          -133 -71 -30 -81 -34 hvcurveto
          -23 -55 -8 -78 -108 vvcurveto
          -119 8 -79 18 -45 vhcurveto
          -94 37 67 -15 126 -10 callsubr
          -13 -5 -60 hvcurveto
          endchar
        </CharString>
        <CharString name="slash">
          -130 -1 -55 rmoveto
          142 hlineto
          244 798 rlineto
          -142 hlineto
          endchar
        </CharString>
        <CharString name="space">
          -292 endchar
        </CharString>
        <CharString name="sterling">
          15 285 142 rmoveto
          143 138 136 -138 5 vlineto
          67 4 31 22 17 vhcurveto
          11 13 24 2 37 hhcurveto
          22 44 -4 -4 34 hvcurveto
          134 vlineto
          9 -35 -60 7 -49 hhcurveto
          -196 -42 -77 -193 hvcurveto
          -5 -67 -136 66 -143 -66 -142 457 142 vlineto
          endchar
        </CharString>
        <CharString name="summation">
          109 55 -189 rmoveto
          513 140 -297 hlineto
          225 298 -225 299 rlineto
          297 140 -513 -136 hlineto
          229 -303 -229 -302 rlineto
          endchar
        </CharString>
        <CharString name="t">
          -143 91 hmoveto
          -48 callgsubr
          endchar
        </CharString>
        <CharString name="tbar">
          -143 356 382 rmoveto
          128 -94 148 -171 -148 -75 -128 75 -87 -73 -121 73 -174 171 174 92 121 -92 87 vlineto
          endchar
        </CharString>
        <CharString name="tcaron">
          -21 384 425 -44 callgsubr
          -306 -637 rmoveto
          -48 callgsubr
          endchar
        </CharString>
        <CharString name="thorn">
          6 47 -190 rmoveto
          169 243 8 hlineto
          -48 26 43 -13 50 hhcurveto
          105 39 60 204 208 -41 54 -103 -47 -47 -12 -54 -24 hvcurveto
          -9 291 -169 hlineto
          220 -612 rmoveto
          -30 -12 5 35 -6 hvcurveto
          -3 15 0 28 41 vvcurveto
          41 0 28 4 19 vhcurveto
          31 5 13 5 29 0 callgsubr
        </CharString>
        <CharString name="three">
          15 239 -8 rmoveto
          198 52 65 126 -45 callgsubr
          -62 -7 callgsubr
          48 hhcurveto
          82 13 -5 -62 -61 -11 -8 -55 hvcurveto
          -102 -140 102 hlineto
          56 16 -9 -67 -64 -19 -4 -74 -42 -73 4 6 -62 hvcurveto
          -131 vlineto
          -12 57 85 -9 61 hhcurveto
          endchar
        </CharString>
        <CharString name="three.dnom">
          -206 139 -4 -75 callgsubr
          endchar
        </CharString>
        <CharString name="three.numr">
          -206 139 304 -75 callgsubr
          endchar
        </CharString>
        <CharString name="three.tnum">
          61 263 -8 rmoveto
          199 52 65 126 -45 callgsubr
          -63 -7 callgsubr
          49 hhcurveto
          82 13 -5 -62 -61 -12 -8 -55 hvcurveto
          -101 -140 101 hlineto
          57 15 -9 -67 -64 -19 -4 -73 -42 -74 4 6 -61 hvcurveto
          -131 vlineto
          -12 57 85 -9 60 hhcurveto
          endchar
        </CharString>
        <CharString name="threeeighths">
          284 139 304 -75 callgsubr
          -8 -304 rmoveto
          -27 callgsubr
          95 -692 -97 callsubr
        </CharString>
        <CharString name="threequarters">
          250 39 402 rmoveto
          4 callgsubr
          112 29 36 72 52 -20 25 -33 11 hvcurveto
          4 vlineto
          33 13 17 26 48 vvcurveto
          72 -36 31 -102 -34 -48 -5 -7 -31 vhcurveto
          -85 vlineto
          5 36 35 -29 callsubr
          98 -402 rmoveto
          -27 callgsubr
          41 -688 rmoveto
          110 66 36 90 -36 82 -68 hlineto
          -34 -82 rlineto
          -46 hlineto
          105 219 rlineto
          -119 hlineto
          -97 -233 rlineto
          -76 149 vlineto
          endchar
        </CharString>
        <CharString name="tilde">
          -126 375 743 -107 callsubr
          endchar
        </CharString>
        <CharString name="tildecomb">
          -14 743 -107 callsubr
          endchar
        </CharString>
        <CharString name="tildecomb.case">
          -14 888 -107 callsubr
          endchar
        </CharString>
        <CharString name="trademark">
          193 128 388 rmoveto
          85 227 76 73 -236 -73 75 hlineto
          195 -227 rmoveto
          78 200 4 hlineto
          51 -200 rlineto
          60 hlineto
          51 200 rlineto
          4 -200 80 300 -118 hlineto
          -42 -178 rlineto
          -6 hlineto
          -44 178 rlineto
          -118 hlineto
          endchar
        </CharString>
        <CharString name="two">
          23 218 153 rmoveto
          34 1 17 6 13 vhcurveto
          5 10 13 6 14 7 141 62 rcurveline
          59 -56 callsubr
        </CharString>
        <CharString name="two.dnom">
          -201 130 86 -63 callsubr
        </CharString>
        <CharString name="two.numr">
          -201 130 394 -63 callsubr
        </CharString>
        <CharString name="two.tnum">
          61 238 153 rmoveto
          33 1 18 6 12 vhcurveto
          6 11 12 6 15 7 42 19 55 24 44 19 rrcurveto
          58 -56 callsubr
        </CharString>
        <CharString name="u">
          10 316 hmoveto
          162 510 -169 -102 callsubr
          endchar
        </CharString>
        <CharString name="uacute">
          10 202 596 -102 callgsubr
          114 -601 rmoveto
          162 510 -169 -102 callsubr
          endchar
        </CharString>
        <CharString name="ubreve">
          10 408 743 -103 callsubr
          -92 -743 rmoveto
          162 510 -169 -102 callsubr
          endchar
        </CharString>
        <CharString name="ucircumflex">
          10 101 603 -106 callgsubr
          215 -611 rmoveto
          162 510 -169 -102 callsubr
          endchar
        </CharString>
        <CharString name="udieresis">
          10 96 615 -88 callsubr
          24 -728 rmoveto
          162 510 -169 -102 callsubr
          endchar
        </CharString>
        <CharString name="ugrave">
          10 204 596 -92 callgsubr
          220 -738 rmoveto
          162 510 -169 -102 callsubr
          endchar
        </CharString>
        <CharString name="uhorn">
          10 444 600 rmoveto
          -32 vlineto
          -44 -8 -14 -57 vhcurveto
          -70 -102 callsubr
          4 -59 rlineto
          162 455 hlineto
          64 14 10 36 76 vvcurveto
          19 vlineto
          endchar
        </CharString>
        <CharString name="uhungarumlaut">
          10 129 610 -81 callsubr
          18 -615 rmoveto
          162 510 -169 -102 callsubr
          endchar
        </CharString>
        <CharString name="umacron">
          10 136 607 -68 callgsubr
          180 -743 rmoveto
          162 510 -169 -102 callsubr
          endchar
        </CharString>
        <CharString name="underscore">
          -132 -189 vmoveto
          383 123 -383 hlineto
          endchar
        </CharString>
        <CharString name="underscoredbl">
          -132 -161 vmoveto
          383 100 -383 hlineto
          -228 vmoveto
          383 100 -383 hlineto
          endchar
        </CharString>
        <CharString name="uni00AD">
          -3 callsubr
        </CharString>
        <CharString name="uni00B2">
          -178 149 412 rmoveto
          -54 callsubr
          91 -149 vlineto
          endchar
        </CharString>
        <CharString name="uni00B3">
          -180 154 306 rmoveto
          112 29 36 72 52 -20 25 -34 11 hvcurveto
          4 vlineto
          33 13 18 26 48 vvcurveto
          72 -37 31 -101 -34 -48 -5 -7 -32 vhcurveto
          -85 vlineto
          5 36 36 -29 callsubr
          4 callgsubr
          endchar
        </CharString>
        <CharString name="uni00B5">
          -46 callsubr
        </CharString>
        <CharString name="uni00B9">
          -266 94 314 rmoveto
          111 374 -77 hlineto
          -94 -48 rlineto
          -93 vlineto
          60 25 rlineto
          endchar
        </CharString>
        <CharString name="uni0162">
          -1 12 688 rmoveto
          -149 153 -539 36 1 callsubr
          35 539 154 149 hlineto
          endchar
        </CharString>
        <CharString name="uni0163">
          -143 262 510 rmoveto
          148 -171 -148 -75 -128 75 -382 30 1 callsubr
          29 382 94 128 hlineto
          endchar
        </CharString>
        <CharString name="uni018F">
          90 279 696 rmoveto
          -59 -70 -7 -10 -40 hvcurveto
          -134 vlineto
          5 36 52 3 38 hhcurveto
          115 20 -12 -123 3 hvcurveto
          -332 -74 hlineto
          -272 4 -80 252 255 5 80 272 268 -30 84 -249 vhcurveto
          19 -562 rmoveto
          -67 -10 4 139 -2 hvcurveto
          162 hlineto
          -139 -2 -11 -4 -70 hhcurveto
          endchar
        </CharString>
        <CharString name="uni019D">
          107 394 688 rmoveto
          -315 -6 vlineto
          -151 315 rlineto
          -183 -717 hlineto
          -37 -3 -15 -65 -4 callgsubr
          201 41 18 199 hvcurveto
          336 5 vlineto
          168 -355 rlineto
          168 688 hlineto
          endchar
        </CharString>
        <CharString name="uni01C4">
          614 779 748 -99 callgsubr
          -642 -880 rmoveto
          222 hlineto
          270 4 77 267 267 -4 77 -270 hvcurveto
          -222 hlineto
          573 -688 rmoveto
          -79 callgsubr
          -390 7 rmoveto
          402 39 vlineto
          88 3 -3 -198 -197 -3 -4 -88 hvcurveto
          endchar
        </CharString>
        <CharString name="uni01C5">
          547 753 603 -99 callgsubr
          -616 -735 rmoveto
          -76 callsubr
          351 -143 rmoveto
          -84 callgsubr
          endchar
        </CharString>
        <CharString name="uni01C6">
          476 -79 callsubr
          497 611 -99 callgsubr
          -35 -735 rmoveto
          -84 callgsubr
          -302 11 -74 callgsubr
          endchar
        </CharString>
        <CharString name="uni01C7">
          318 -16 callsubr
          426 -554 -74 callsubr
        </CharString>
        <CharString name="uni01C8">
          214 510 -47 callsubr
          -456 -743 rmoveto
          -51 callsubr
          389 -886 -76 callgsubr
        </CharString>
        <CharString name="uni01C9">
          15 47 -32 callsubr
          264 -135 -50 callgsubr
          -67 -941 -76 callgsubr
        </CharString>
        <CharString name="uni01CA">
          476 401 hmoveto
          -83 callgsubr
          405 -221 -74 callsubr
        </CharString>
        <CharString name="uni01CB">
          372 668 -47 callsubr
          -267 -743 rmoveto
          -83 callgsubr
          368 -553 -76 callgsubr
        </CharString>
        <CharString name="uni01CC">
          275 571 -47 callsubr
          -261 -743 rmoveto
          -90 callgsubr
          194 -470 -76 callgsubr
        </CharString>
        <CharString name="uni01CD">
          92 225 748 -99 callgsubr
          279 -880 rmoveto
          -103 callgsubr
          endchar
        </CharString>
        <CharString name="uni01CD.ss01">
          84 221 748 -99 callgsubr
          226 -880 rmoveto
          -106 callsubr
          endchar
        </CharString>
        <CharString name="uni01CE">
          -13 172 603 -99 callgsubr
          68 -743 -107 callgsubr
          endchar
        </CharString>
        <CharString name="uni01CF">
          -224 67 748 -99 callgsubr
          70 -880 -61 callgsubr
        </CharString>
        <CharString name="uni01D0">
          -250 53 603 -99 callgsubr
          77 -735 -69 callsubr
          endchar
        </CharString>
        <CharString name="uni01D1">
          95 226 748 -99 callgsubr
          162 -888 -105 callsubr
          endchar
        </CharString>
        <CharString name="uni01D2">
          -6 176 603 -99 callgsubr
          161 -743 -104 callgsubr
          endchar
        </CharString>
        <CharString name="uni01D3">
          84 221 748 -99 callgsubr
          226 -192 rmoveto
          -419 vlineto
          -101 callgsubr
          378 vlineto
          endchar
        </CharString>
        <CharString name="uni01D4">
          10 183 603 -99 callgsubr
          216 -735 rmoveto
          162 510 -169 -102 callsubr
          endchar
        </CharString>
        <CharString name="uni01D5">
          84 270 867 rmoveto
          60 -105 137 113 -40 102 -251 -102 -42 -113 136 hlineto
          94 -74 rmoveto
          -419 vlineto
          -101 callgsubr
          378 vlineto
          endchar
        </CharString>
        <CharString name="uni01D6">
          10 138 767 -68 callgsubr
          -42 -286 -88 callsubr
          24 -730 rmoveto
          162 510 -169 -102 callsubr
          endchar
        </CharString>
        <CharString name="uni01D7">
          6 callsubr
          -105 hlineto
          104 135 -38 callgsubr
          -70 -140 rlineto
          -101 -113 136 hlineto
          94 -74 rmoveto
          -419 vlineto
          -101 callgsubr
          378 vlineto
          endchar
        </CharString>
        <CharString name="uni01D8">
          10 200 756 -102 callgsubr
          -104 -144 -88 callsubr
          24 -730 rmoveto
          162 510 -169 -102 callsubr
          endchar
        </CharString>
        <CharString name="uni01D9">
          84 270 875 rmoveto
          60 -113 137 113 -87 hlineto
          -41 callsubr
          -89 -113 136 hlineto
          94 -74 rmoveto
          -419 vlineto
          -101 callgsubr
          378 vlineto
          endchar
        </CharString>
        <CharString name="uni01DA">
          10 185 763 -99 callgsubr
          -6 -278 -88 callsubr
          24 -730 rmoveto
          162 510 -169 -102 callsubr
          endchar
        </CharString>
        <CharString name="uni01DB">
          6 callsubr
          -96 hlineto
          -70 140 rlineto
          -161 -5 hlineto
          103 -135 rlineto
          -109 -113 136 hlineto
          94 -74 rmoveto
          -419 vlineto
          -101 callgsubr
          378 vlineto
          endchar
        </CharString>
        <CharString name="uni01DC">
          10 204 756 -92 callgsubr
          -281 vmoveto
          -93 callgsubr
          24 -730 rmoveto
          162 510 -169 -102 callsubr
          endchar
        </CharString>
        <CharString name="uni01EA">
          93 406 -196 rmoveto
          19 28 2 2 20 hvcurveto
          81 vlineto
          -1 -7 -4 0 -4 hhcurveto
          -34 -9 15 18 41 27 37 45 25 hvcurveto
          77 44 2 96 180 vvcurveto
          -34 callgsubr
          vhcurveto
          22 hlineto
          -27 -32 -17 -35 -35 vvcurveto
          -45 27 -41 97 vhcurveto
          -102 330 -17 callsubr
        </CharString>
        <CharString name="uni01EB">
          -6 254 518 rmoveto
          8 callsubr
          -209 13 -52 205 -2 hvcurveto
          8 hlineto
          -25 -31 -16 -37 -34 vvcurveto
          -45 28 -41 96 21 29 2 2 18 vhcurveto
          9 callgsubr
          -4 hhcurveto
          -35 -8 16 19 45 34 32 28 19 hvcurveto
          57 35 6 66 135 vvcurveto
          207 -13 56 -209 vhcurveto
          -52 -263 rmoveto
          127 1 8 51 52 1 -8 -30 callgsubr
          -1 -8 -52 -51 -1 -33 callgsubr
          vhcurveto
          endchar
        </CharString>
        <CharString name="uni01F1">
          614 54 hmoveto
          222 hlineto
          270 4 77 267 267 -4 77 -270 hvcurveto
          -222 hlineto
          573 -688 rmoveto
          -79 callgsubr
          -390 7 rmoveto
          402 39 vlineto
          88 3 -3 -198 -197 -3 -4 -88 hvcurveto
          endchar
        </CharString>
        <CharString name="uni01F2">
          547 54 hmoveto
          -76 callsubr
          351 -143 rmoveto
          -84 callgsubr
          endchar
        </CharString>
        <CharString name="uni01F3">
          476 -79 callsubr
          379 8 rmoveto
          -84 callgsubr
          -302 11 -74 callgsubr
          endchar
        </CharString>
        <CharString name="uni01F4">
          68 222 741 -102 callgsubr
          147 -473 -96 callgsubr
          endchar
        </CharString>
        <CharString name="uni01F4.ss01">
          80 230 741 -102 callgsubr
          86 -754 -96 callsubr
          endchar
        </CharString>
        <CharString name="uni01F5">
          5 196 596 -102 callgsubr
          43 -806 -101 callsubr
        </CharString>
        <CharString name="uni0200">
          92 278 755 -97 callgsubr
          74 -755 rmoveto
          -103 callgsubr
          endchar
        </CharString>
        <CharString name="uni0200.ss01">
          84 274 755 -97 callgsubr
          21 -755 rmoveto
          -106 callsubr
          endchar
        </CharString>
        <CharString name="uni0201">
          -13 225 610 -97 callgsubr
          -137 -618 -107 callgsubr
          endchar
        </CharString>
        <CharString name="uni0202">
          92 157 749 -87 callgsubr
          264 -749 rmoveto
          -103 callgsubr
          endchar
        </CharString>
        <CharString name="uni0202.ss01">
          84 153 749 -87 callgsubr
          211 -749 rmoveto
          -106 callsubr
          endchar
        </CharString>
        <CharString name="uni0203">
          -13 104 604 -87 callgsubr
          53 -612 -107 callgsubr
          endchar
        </CharString>
        <CharString name="uni0204">
          7 239 755 -97 callgsubr
          -254 -755 rmoveto
          -94 callgsubr
          endchar
        </CharString>
        <CharString name="uni0205">
          -19 222 610 -97 callgsubr
          169 -356 -105 callgsubr
          endchar
        </CharString>
        <CharString name="uni0206">
          7 118 749 -87 callgsubr
          -64 -749 rmoveto
          -94 callgsubr
          endchar
        </CharString>
        <CharString name="uni0207">
          -19 248 659 -47 callgsubr
          212 -405 -105 callgsubr
          endchar
        </CharString>
        <CharString name="uni0208">
          -224 120 755 -97 callgsubr
          -135 -755 -61 callgsubr
        </CharString>
        <CharString name="uni0209">
          -250 106 610 -97 callgsubr
          -128 -610 -69 callsubr
          endchar
        </CharString>
        <CharString name="uni020A">
          -224 -1 749 -87 callgsubr
          55 -749 -61 callgsubr
        </CharString>
        <CharString name="uni020B">
          -250 -15 604 -87 callgsubr
          62 -604 -69 callsubr
          endchar
        </CharString>
        <CharString name="uni020C">
          95 279 755 -97 callgsubr
          -43 -763 -105 callsubr
          endchar
        </CharString>
        <CharString name="uni020D">
          -6 229 610 -97 callgsubr
          -44 -618 -104 callgsubr
          endchar
        </CharString>
        <CharString name="uni020E">
          95 158 749 -87 callgsubr
          147 -757 -105 callsubr
          endchar
        </CharString>
        <CharString name="uni020F">
          -6 108 604 -87 callgsubr
          146 -612 -104 callgsubr
          endchar
        </CharString>
        <CharString name="uni0210">
          74 269 755 -97 callgsubr
          227 -755 rmoveto
          -81 callgsubr
        </CharString>
        <CharString name="uni0210.ss01">
          77 270 755 -97 callgsubr
          205 -584 -86 callsubr
        </CharString>
        <CharString name="uni0211">
          -138 163 610 -97 callgsubr
          -185 -610 rmoveto
          -78 callsubr
          endchar
        </CharString>
        <CharString name="uni0212">
          74 295 804 -47 callgsubr
          270 -804 rmoveto
          -81 callgsubr
        </CharString>
        <CharString name="uni0212.ss01">
          77 296 804 -47 callgsubr
          248 -633 -86 callsubr
        </CharString>
        <CharString name="uni0213">
          -138 42 604 -87 callgsubr
          5 -604 rmoveto
          -78 callsubr
          endchar
        </CharString>
        <CharString name="uni0214">
          84 274 755 -97 callgsubr
          21 -67 rmoveto
          -419 vlineto
          -101 callgsubr
          378 vlineto
          endchar
        </CharString>
        <CharString name="uni0215">
          10 236 610 -97 callgsubr
          11 -610 rmoveto
          162 510 -169 -102 callsubr
          endchar
        </CharString>
        <CharString name="uni0216">
          84 153 749 -87 callgsubr
          211 -61 rmoveto
          -419 vlineto
          -101 callgsubr
          378 vlineto
          endchar
        </CharString>
        <CharString name="uni0217">
          10 115 604 -87 callgsubr
          201 -604 rmoveto
          162 510 -169 -102 callsubr
          endchar
        </CharString>
        <CharString name="uni021A">
          -1 165 hmoveto
          -42 callsubr
          7 -764 rmoveto
          -87 callsubr
        </CharString>
        <CharString name="uni021B">
          -143 91 hmoveto
          -48 callgsubr
          1 -607 rmoveto
          -87 callsubr
        </CharString>
        <CharString name="uni0232">
          53 158 752 -68 callgsubr
          34 -888 -78 callgsubr
        </CharString>
        <CharString name="uni0232.loclGUA">
          55 410 888 3 callsubr
          -60 -64 -94 callsubr
          endchar
        </CharString>
        <CharString name="uni0233">
          10 136 607 -68 callgsubr
          110 -948 -98 callgsubr
          endchar
        </CharString>
        <CharString name="uni0233.loclGUA">
          -20 381 743 3 callsubr
          -62 -97 -85 callsubr
        </CharString>
        <CharString name="uni0237">
          -250 -21 -198 -76 callgsubr
        </CharString>
        <CharString name="uni0259">
          -19 229 518 rmoveto
          -65 -74 -7 -10 -38 hvcurveto
          -117 vlineto
          3 49 57 3 31 hhcurveto
          101 6 -5 -90 hvcurveto
          -260 -39 hlineto
          -194 1 -70 207 206 13 79 185 185 -11 77 -223 vhcurveto
          15 -406 rmoveto
          -44 -7 6 91 hvcurveto
          103 hlineto
          -89 -7 -8 -45 vhcurveto
          endchar
        </CharString>
        <CharString name="uni0272">
          10 -21 -198 rmoveto
          196 41 18 199 hvcurveto
          246 vlineto
          100 2 13 46 43 3 -3 -103 vhcurveto
          -272 -24 callgsubr
          vlineto
          -53 callsubr
          -31 callgsubr
          vhcurveto
          -52 callsubr
          -539 hlineto
          -37 -3 -15 -65 vhcurveto
          endchar
        </CharString>
        <CharString name="uni02BC">
          -305 -22 callsubr
          endchar
        </CharString>
        <CharString name="uni02C9">
          -172 46 607 -68 callgsubr
          endchar
        </CharString>
        <CharString name="uni0302">
          -336 603 -106 callgsubr
          endchar
        </CharString>
        <CharString name="uni0302.case">
          -336 748 -106 callgsubr
          endchar
        </CharString>
        <CharString name="uni03020300">
          -119 769 -92 callgsubr
          -109 -308 -106 callgsubr
          endchar
        </CharString>
        <CharString name="uni03020300.case">
          -119 900 -92 callgsubr
          -109 -308 -106 callgsubr
          endchar
        </CharString>
        <CharString name="uni03020301">
          -162 769 -84 callsubr
          endchar
        </CharString>
        <CharString name="uni03020301.case">
          -162 903 -84 callsubr
          endchar
        </CharString>
        <CharString name="uni03020303">
          8 916 -107 callsubr
          -344 -313 -106 callgsubr
          endchar
        </CharString>
        <CharString name="uni03020303.case">
          8 1047 -107 callsubr
          -344 -313 -106 callgsubr
          endchar
        </CharString>
        <CharString name="uni03020309">
          -127 763 -104 callsubr
          -209 -171 -106 callgsubr
          endchar
        </CharString>
        <CharString name="uni03020309.case">
          -127 894 -104 callsubr
          -209 -171 -106 callgsubr
          endchar
        </CharString>
        <CharString name="uni0304">
          -297 607 -68 callgsubr
          endchar
        </CharString>
        <CharString name="uni0304.case">
          -297 752 -68 callgsubr
          endchar
        </CharString>
        <CharString name="uni0306">
          -13 743 -103 callsubr
          endchar
        </CharString>
        <CharString name="uni0306.case">
          -13 888 -103 callsubr
          endchar
        </CharString>
        <CharString name="uni03060300">
          -217 769 -92 callgsubr
          312 -168 -103 callsubr
          endchar
        </CharString>
        <CharString name="uni03060300.case">
          -217 914 -92 callgsubr
          312 -168 -103 callsubr
          endchar
        </CharString>
        <CharString name="uni03060301">
          -230 769 -102 callgsubr
          217 -31 -103 callsubr
          endchar
        </CharString>
        <CharString name="uni03060301.case">
          -230 914 -102 callgsubr
          217 -31 -103 callsubr
          endchar
        </CharString>
        <CharString name="uni03060303">
          24 943 -107 callsubr
          -37 -200 -103 callsubr
          endchar
        </CharString>
        <CharString name="uni03060303.case">
          24 1088 -107 callsubr
          -37 -200 -103 callsubr
          endchar
        </CharString>
        <CharString name="uni03060309">
          -209 750 -104 callsubr
          196 -18 -103 callsubr
          endchar
        </CharString>
        <CharString name="uni03060309.case">
          -209 895 -104 callsubr
          196 -18 -103 callsubr
          endchar
        </CharString>
        <CharString name="uni0307">
          -150 -46 callgsubr
          endchar
        </CharString>
        <CharString name="uni0307.case">
          -150 -53 callgsubr
          endchar
        </CharString>
        <CharString name="uni0308">
          -345 617 -88 callsubr
          endchar
        </CharString>
        <CharString name="uni0308.case">
          -345 762 -88 callsubr
          endchar
        </CharString>
        <CharString name="uni030A">
          -156 599 -91 callsubr
          endchar
        </CharString>
        <CharString name="uni030A.case">
          -156 714 -91 callsubr
          endchar
        </CharString>
        <CharString name="uni030B">
          -373 610 -81 callsubr
          endchar
        </CharString>
        <CharString name="uni030B.case">
          -373 755 -81 callsubr
          endchar
        </CharString>
        <CharString name="uni030C">
          -254 603 -99 callgsubr
          endchar
        </CharString>
        <CharString name="uni030C.case">
          -254 748 -99 callgsubr
          endchar
        </CharString>
        <CharString name="uni030F">
          -183 610 -97 callgsubr
          endchar
        </CharString>
        <CharString name="uni030F.case">
          -183 755 -97 callgsubr
          endchar
        </CharString>
        <CharString name="uni0311">
          -306 604 -87 callgsubr
          endchar
        </CharString>
        <CharString name="uni0311.case">
          -306 749 -87 callgsubr
          endchar
        </CharString>
        <CharString name="uni0312">
          -190 -19 callsubr
          endchar
        </CharString>
        <CharString name="uni031B">
          -285 510 rmoveto
          -41 -63 41 hlineto
          154 19 29 105 hvcurveto
          19 -108 -32 vlineto
          -44 -8 -14 -57 vhcurveto
          endchar
        </CharString>
        <CharString name="uni0326">
          -228 -225 rmoveto
          -87 callsubr
        </CharString>
        <CharString name="uni0327">
          -196 -13 callsubr
        </CharString>
        <CharString name="uni0328">
          -192 vmoveto
          -40 callgsubr
        </CharString>
        <CharString name="uni0335">
          -299 285 rmoveto
          300 126 -300 hlineto
          endchar
        </CharString>
        <CharString name="uni0336">
          -54 473 rmoveto
          126 -509 -126 vlineto
          endchar
        </CharString>
        <CharString name="uni0394">
          -32 callgsubr
        </CharString>
        <CharString name="uni03A9">
          -68 callsubr
        </CharString>
        <CharString name="uni03BC">
          -46 callsubr
        </CharString>
        <CharString name="uni1E0C">
          77 54 hmoveto
          -76 callsubr
          -69 -355 -91 callgsubr
        </CharString>
        <CharString name="uni1E0D">
          6 -79 callsubr
          77 139 -74 callgsubr
          -83 -343 -91 callgsubr
        </CharString>
        <CharString name="uni1E24">
          -23 callgsubr
          -160 -480 -91 callgsubr
        </CharString>
        <CharString name="uni1E25">
          10 310 hmoveto
          -62 callsubr
          -137 -484 -91 callgsubr
        </CharString>
        <CharString name="uni1E44">
          107 244 -53 callgsubr
          157 -875 rmoveto
          -83 callgsubr
          endchar
        </CharString>
        <CharString name="uni1E45">
          10 194 -46 callgsubr
          116 -730 rmoveto
          -90 callgsubr
          endchar
        </CharString>
        <CharString name="uni1E5A">
          -50 callsubr
          -31 -584 -91 callgsubr
        </CharString>
        <CharString name="uni1E5A.ss01">
          -61 callsubr
          -30 -588 -91 callgsubr
        </CharString>
        <CharString name="uni1E5B">
          -33 callsubr
          -5 -722 -91 callgsubr
        </CharString>
        <CharString name="uni1E62">
          -71 callsubr
          -96 -204 -91 callgsubr
        </CharString>
        <CharString name="uni1E63">
          -67 callsubr
          -96 -204 -91 callgsubr
        </CharString>
        <CharString name="uni1E6C">
          -1 165 hmoveto
          -42 callsubr
          3 -751 -91 callgsubr
        </CharString>
        <CharString name="uni1E6D">
          -143 91 hmoveto
          -48 callgsubr
          -3 -594 -91 callgsubr
        </CharString>
        <CharString name="uni1E92">
          22 35 hmoveto
          -79 callgsubr
          145 -348 -91 callgsubr
        </CharString>
        <CharString name="uni1E93">
          -45 35 hmoveto
          -84 callgsubr
          111 -332 -91 callgsubr
        </CharString>
        <CharString name="uni1E9E">
          169 490 380 rmoveto
          125 167 rlineto
          120 vlineto
          14 -79 -110 15 -103 hhcurveto
          -240 -32 -74 -284 hvcurveto
          -338 183 338 vlineto
          195 4 21 110 16 26 -1 -3 31 vhcurveto
          -113 -152 rlineto
          -120 80 vlineto
          61 16 -9 -67 -63 -15 -5 -72 -22 -38 4 6 -31 hvcurveto
          -131 vlineto
          -12 36 54 -9 39 hhcurveto
          181 51 63 128 138 -54 47 -104 12 hvcurveto
          endchar
        </CharString>
        <CharString name="uni1EA0">
          92 421 hmoveto
          -103 callgsubr
          -82 -743 -91 callgsubr
        </CharString>
        <CharString name="uni1EA0.ss01">
          84 364 hmoveto
          -106 callsubr
          -153 -631 -91 callgsubr
        </CharString>
        <CharString name="uni1EA1">
          -13 157 -8 -107 callgsubr
          -72 -327 -91 callgsubr
        </CharString>
        <CharString name="uni1EA2">
          92 231 -95 callgsubr
          190 -736 rmoveto
          -103 callgsubr
          endchar
        </CharString>
        <CharString name="uni1EA2.ss01">
          84 227 -95 callgsubr
          137 -736 rmoveto
          -106 callsubr
          endchar
        </CharString>
        <CharString name="uni1EA3">
          -13 178 611 -104 callsubr
          -21 -630 -107 callgsubr
          endchar
        </CharString>
        <CharString name="uni1EA4">
          92 316 903 -84 callsubr
          279 -745 rmoveto
          -103 callgsubr
          endchar
        </CharString>
        <CharString name="uni1EA4.ss01">
          84 312 903 -84 callsubr
          226 -745 rmoveto
          -106 callsubr
          endchar
        </CharString>
        <CharString name="uni1EA5">
          -13 263 769 -84 callsubr
          68 -619 -107 callgsubr
          endchar
        </CharString>
        <CharString name="uni1EA6">
          92 350 900 -92 callgsubr
          -109 -308 -106 callgsubr
          288 -742 rmoveto
          -103 callgsubr
          endchar
        </CharString>
        <CharString name="uni1EA6.ss01">
          84 346 900 -92 callgsubr
          -109 -308 -106 callgsubr
          235 -742 rmoveto
          -106 callsubr
          endchar
        </CharString>
        <CharString name="uni1EA7">
          -13 297 769 -92 callgsubr
          -109 -308 -106 callgsubr
          77 -619 -107 callgsubr
          endchar
        </CharString>
        <CharString name="uni1EA8">
          92 351 894 -104 callsubr
          -209 -171 -106 callgsubr
          279 -742 rmoveto
          -103 callgsubr
          endchar
        </CharString>
        <CharString name="uni1EA8.ss01">
          84 347 894 -104 callsubr
          -209 -171 -106 callgsubr
          226 -742 rmoveto
          -106 callsubr
          endchar
        </CharString>
        <CharString name="uni1EA9">
          -13 298 763 -104 callsubr
          -209 -171 -106 callgsubr
          68 -619 -107 callgsubr
          endchar
        </CharString>
        <CharString name="uni1EAA">
          92 484 1047 -107 callsubr
          -344 -313 -106 callgsubr
          281 -742 rmoveto
          -103 callgsubr
          endchar
        </CharString>
        <CharString name="uni1EAA.ss01">
          84 480 1047 -107 callsubr
          -344 -313 -106 callgsubr
          228 -742 rmoveto
          -106 callsubr
          endchar
        </CharString>
        <CharString name="uni1EAB">
          -13 431 916 -107 callsubr
          -344 -313 -106 callgsubr
          70 -619 -107 callgsubr
          endchar
        </CharString>
        <CharString name="uni1EAC">
          92 142 748 -106 callgsubr
          279 -756 rmoveto
          -103 callgsubr
          -82 -743 -91 callgsubr
        </CharString>
        <CharString name="uni1EAC.ss01">
          84 138 748 -106 callgsubr
          226 -756 rmoveto
          -106 callsubr
          -153 -631 -91 callgsubr
        </CharString>
        <CharString name="uni1EAD">
          -13 89 603 -106 callgsubr
          68 -619 -107 callgsubr
          -72 -327 -91 callgsubr
        </CharString>
        <CharString name="uni1EAE">
          92 232 914 -102 callgsubr
          217 -31 -103 callsubr
          -28 -888 rmoveto
          -103 callgsubr
          endchar
        </CharString>
        <CharString name="uni1EAE.ss01">
          84 228 914 -102 callgsubr
          217 -31 -103 callsubr
          -81 -888 rmoveto
          -106 callsubr
          endchar
        </CharString>
        <CharString name="uni1EAF">
          -13 170 769 -102 callgsubr
          217 -31 -103 callsubr
          -230 -751 -107 callgsubr
          endchar
        </CharString>
        <CharString name="uni1EB0">
          92 249 914 -92 callgsubr
          312 -168 -103 callsubr
          -32 -888 rmoveto
          -103 callgsubr
          endchar
        </CharString>
        <CharString name="uni1EB0.ss01">
          84 245 914 -92 callgsubr
          312 -168 -103 callsubr
          -85 -888 rmoveto
          -106 callsubr
          endchar
        </CharString>
        <CharString name="uni1EB1">
          -13 205 769 -92 callgsubr
          312 -168 -103 callsubr
          -252 -751 -107 callgsubr
          endchar
        </CharString>
        <CharString name="uni1EB2">
          92 250 895 -104 callsubr
          196 -18 -103 callsubr
          -25 -888 rmoveto
          -103 callgsubr
          endchar
        </CharString>
        <CharString name="uni1EB2.ss01">
          84 288 946 rmoveto
          -14 -4 -32 -10 -11 -11 -2 -33 rlinecurve
          -75 hlineto
          -84 18 -60 127 -72 callgsubr
          vhcurveto
          -94 hlineto
          -32 -1 -23 -52 -38 -10 13 19 -3 vhcurveto
          73 -93 callsubr
          11 -250 rmoveto
          -240 -8 -75 -243 hvcurveto
          -378 183 178 130 -178 183 378 vlineto
          243 -9 75 -239 vhcurveto
          65 -373 rmoveto
          -130 96 hlineto
          123 2 10 63 63 2 -10 -123 vhcurveto
          endchar
        </CharString>
        <CharString name="uni1EB3">
          -13 197 750 -104 callsubr
          196 -18 -103 callsubr
          -236 -751 -107 callgsubr
          endchar
        </CharString>
        <CharString name="uni1EB4">
          92 485 1088 -107 callsubr
          -37 -200 -103 callsubr
          -27 -888 rmoveto
          -103 callgsubr
          endchar
        </CharString>
        <CharString name="uni1EB4.ss01">
          84 481 1088 -107 callsubr
          -37 -200 -103 callsubr
          -80 -888 rmoveto
          -106 callsubr
          endchar
        </CharString>
        <CharString name="uni1EB5">
          -13 432 943 -107 callsubr
          -37 -200 -103 callsubr
          -238 -751 -107 callgsubr
          endchar
        </CharString>
        <CharString name="uni1EB6">
          92 450 888 -103 callsubr
          -29 -888 rmoveto
          -103 callgsubr
          -82 -743 -91 callgsubr
        </CharString>
        <CharString name="uni1EB6.ss01">
          84 446 888 -103 callsubr
          -82 -888 rmoveto
          -106 callsubr
          -153 -631 -91 callgsubr
        </CharString>
        <CharString name="uni1EB7">
          -13 397 743 -103 callsubr
          -240 -751 -107 callgsubr
          -72 -327 -91 callgsubr
        </CharString>
        <CharString name="uni1EB8">
          7 54 hmoveto
          -94 callgsubr
          122 -900 -91 callgsubr
        </CharString>
        <CharString name="uni1EB9">
          -19 460 254 -105 callgsubr
          -93 -610 -91 callgsubr
        </CharString>
        <CharString name="uni1EBA">
          7 192 -95 callgsubr
          -138 -736 rmoveto
          -94 callgsubr
          endchar
        </CharString>
        <CharString name="uni1EBB">
          -19 268 -80 callsubr
          192 -466 -105 callgsubr
          endchar
        </CharString>
        <CharString name="uni1EBC">
          7 445 888 -107 callsubr
          -391 -888 rmoveto
          -94 callgsubr
          endchar
        </CharString>
        <CharString name="uni1EBD">
          -19 173 628 -92 callsubr
          287 -374 -105 callgsubr
          endchar
        </CharString>
        <CharString name="uni1EBE">
          7 277 903 -84 callsubr
          -49 -745 rmoveto
          -94 callgsubr
          endchar
        </CharString>
        <CharString name="uni1EBF">
          -19 331 916 rmoveto
          -71 -142 rlineto
          -5 -4 callsubr
          109 -49 callgsubr
          5 vlineto
          -245 -241 -66 callgsubr
        </CharString>
        <CharString name="uni1EC0">
          7 311 900 -92 callgsubr
          -109 -308 -106 callgsubr
          -40 -742 rmoveto
          -94 callgsubr
          endchar
        </CharString>
        <CharString name="uni1EC1">
          -19 418 769 -69 callgsubr
          -56 -94 -73 callgsubr
          274 -349 -105 callgsubr
          endchar
        </CharString>
        <CharString name="uni1EC2">
          7 312 894 -104 callsubr
          -209 -171 -106 callgsubr
          -49 -742 rmoveto
          -94 callgsubr
          endchar
        </CharString>
        <CharString name="uni1EC3">
          -19 361 982 rmoveto
          -39 -52 -5 -7 -34 hvcurveto
          -81 vlineto
          3 29 45 2 29 hhcurveto
          38 11 -2 -20 -15 -6 -4 -28 -9 hvcurveto
          -77 callsubr
          -11 92 vlineto
          17 4 3 -60 callsubr
          6 rlineto
          44 15 20 15 55 vvcurveto
          89 -60 8 -77 vhcurveto
          -114 -307 -66 callgsubr
        </CharString>
        <CharString name="uni1EC4">
          7 445 1047 -107 callsubr
          -344 -313 -106 callgsubr
          -47 -742 rmoveto
          -94 callgsubr
          endchar
        </CharString>
        <CharString name="uni1EC5">
          -19 173 801 -92 callsubr
          -7 -58 rmoveto
          -82 -132 rlineto
          -8 109 vlineto
          52 72 53 -72 rlineto
          110 8 hlineto
          -85 132 rlineto
          137 -489 -105 callgsubr
          endchar
        </CharString>
        <CharString name="uni1EC6">
          7 103 748 -106 callgsubr
          -49 -756 rmoveto
          -94 callgsubr
          122 -900 -91 callgsubr
        </CharString>
        <CharString name="uni1EC7">
          -19 247 675 -73 callgsubr
          265 -349 -105 callgsubr
          -93 -610 -91 callgsubr
        </CharString>
        <CharString name="uni1EC8">
          -224 73 -95 callgsubr
          -19 -736 -61 callgsubr
        </CharString>
        <CharString name="uni1EC9">
          -250 59 611 -104 callsubr
          -12 -622 -69 callsubr
          endchar
        </CharString>
        <CharString name="uni1ECA">
          -224 54 hmoveto
          -58 callsubr
          3 -900 -91 callgsubr
        </CharString>
        <CharString name="uni1ECB">
          3 callgsubr
          1 -743 -69 callsubr
          11 -722 -91 callgsubr
        </CharString>
        <CharString name="uni1ECC">
          95 305 -8 -105 callsubr
          -89 -347 -91 callgsubr
        </CharString>
        <CharString name="uni1ECD">
          -6 254 -8 -104 callgsubr
          -88 -332 -91 callgsubr
        </CharString>
        <CharString name="uni1ECE">
          95 232 -95 callgsubr
          73 -744 -105 callsubr
          endchar
        </CharString>
        <CharString name="uni1ECF">
          -6 182 611 -104 callsubr
          72 -630 -104 callgsubr
          endchar
        </CharString>
        <CharString name="uni1ED0">
          95 317 903 -84 callsubr
          162 -753 -105 callsubr
          endchar
        </CharString>
        <CharString name="uni1ED1">
          -6 267 769 -84 callsubr
          161 -619 -104 callgsubr
          endchar
        </CharString>
        <CharString name="uni1ED2">
          95 351 900 -92 callgsubr
          -109 -308 -106 callgsubr
          171 -750 -105 callsubr
          endchar
        </CharString>
        <CharString name="uni1ED3">
          -6 301 769 -92 callgsubr
          -109 -308 -106 callgsubr
          170 -619 -104 callgsubr
          endchar
        </CharString>
        <CharString name="uni1ED4">
          95 352 894 -104 callsubr
          -209 -171 -106 callgsubr
          162 -750 -105 callsubr
          endchar
        </CharString>
        <CharString name="uni1ED5">
          -6 302 763 -104 callsubr
          -209 -171 -106 callgsubr
          161 -619 -104 callgsubr
          endchar
        </CharString>
        <CharString name="uni1ED6">
          95 485 1047 -107 callsubr
          -344 -313 -106 callgsubr
          164 -750 -105 callsubr
          endchar
        </CharString>
        <CharString name="uni1ED7">
          -6 435 916 -107 callsubr
          -344 -313 -106 callgsubr
          163 -619 -104 callgsubr
          endchar
        </CharString>
        <CharString name="uni1ED8">
          95 143 748 -106 callgsubr
          162 -764 -105 callsubr
          -89 -347 -91 callgsubr
        </CharString>
        <CharString name="uni1ED9">
          -6 93 603 -106 callgsubr
          161 -619 -104 callgsubr
          -88 -332 -91 callgsubr
        </CharString>
        <CharString name="uni1EDA">
          95 469 883 -73 callsubr
          159 37 -90 callsubr
        </CharString>
        <CharString name="uni1EDB">
          -6 423 738 -73 callsubr
          114 4 -89 callgsubr
        </CharString>
        <CharString name="uni1EDC">
          95 375 741 -69 callgsubr
          268 37 -90 callsubr
        </CharString>
        <CharString name="uni1EDD">
          -6 319 596 -69 callgsubr
          233 4 -89 callgsubr
        </CharString>
        <CharString name="uni1EDE">
          95 325 -72 callsubr
          194 -56 -90 callsubr
        </CharString>
        <CharString name="uni1EDF">
          -6 275 -80 callsubr
          153 -120 -89 callgsubr
        </CharString>
        <CharString name="uni1EE0">
          95 230 773 -92 callsubr
          289 5 -90 callsubr
        </CharString>
        <CharString name="uni1EE1">
          -6 180 628 -92 callsubr
          248 -28 -89 callgsubr
        </CharString>
        <CharString name="uni1EE2">
          95 519 778 -89 callsubr
          -89 -347 -91 callgsubr
        </CharString>
        <CharString name="uni1EE3">
          -6 428 600 -88 callgsubr
          -88 -332 -91 callgsubr
        </CharString>
        <CharString name="uni1EE4">
          84 364 688 rmoveto
          -419 vlineto
          -101 callgsubr
          378 vlineto
          -336 -900 -91 callgsubr
        </CharString>
        <CharString name="uni1EE5">
          10 316 hmoveto
          162 510 -169 -102 callsubr
          -149 -271 -91 callgsubr
        </CharString>
        <CharString name="uni1EE6">
          84 227 -95 callgsubr
          137 -48 rmoveto
          -419 vlineto
          -101 callgsubr
          378 vlineto
          endchar
        </CharString>
        <CharString name="uni1EE7">
          10 189 611 -104 callsubr
          127 -622 rmoveto
          162 510 -169 -102 callsubr
          endchar
        </CharString>
        <CharString name="uni1EE8">
          84 464 883 -73 callsubr
          163 37 rmoveto
          -32 vlineto
          -44 -8 -14 -57 vhcurveto
          -89 -419 hlineto
          -101 callgsubr
          322 vlineto
          69 13 10 36 78 vvcurveto
          19 vlineto
          endchar
        </CharString>
        <CharString name="uni1EE9">
          10 430 738 -73 callsubr
          123 4 rmoveto
          -32 vlineto
          -44 -8 -14 -57 vhcurveto
          -70 -102 callsubr
          4 -59 rlineto
          162 455 hlineto
          64 14 10 36 76 vvcurveto
          19 vlineto
          endchar
        </CharString>
        <CharString name="uni1EEA">
          84 370 741 -69 callgsubr
          272 37 rmoveto
          -32 vlineto
          -44 -8 -14 -57 vhcurveto
          -89 -419 hlineto
          -101 callgsubr
          322 vlineto
          69 13 10 36 78 vvcurveto
          19 vlineto
          endchar
        </CharString>
        <CharString name="uni1EEB">
          10 326 596 -69 callgsubr
          242 4 rmoveto
          -32 vlineto
          -44 -8 -14 -57 vhcurveto
          -70 -102 callsubr
          4 -59 rlineto
          162 455 hlineto
          64 14 10 36 76 vvcurveto
          19 vlineto
          endchar
        </CharString>
        <CharString name="uni1EEC">
          84 320 -72 callsubr
          198 -56 rmoveto
          -32 vlineto
          -44 -8 -14 -57 vhcurveto
          -89 -419 hlineto
          -101 callgsubr
          322 vlineto
          69 13 10 36 78 vvcurveto
          19 vlineto
          endchar
        </CharString>
        <CharString name="uni1EED">
          10 282 -80 callsubr
          162 -120 rmoveto
          -32 vlineto
          -44 -8 -14 -57 vhcurveto
          -70 -102 callsubr
          4 -59 rlineto
          162 455 hlineto
          64 14 10 36 76 vvcurveto
          19 vlineto
          endchar
        </CharString>
        <CharString name="uni1EEE">
          84 225 773 -92 callsubr
          293 5 rmoveto
          -32 vlineto
          -44 -8 -14 -57 vhcurveto
          -89 -419 hlineto
          -101 callgsubr
          322 vlineto
          69 13 10 36 78 vvcurveto
          19 vlineto
          endchar
        </CharString>
        <CharString name="uni1EEF">
          10 187 628 -92 callsubr
          257 -28 rmoveto
          -32 vlineto
          -44 -8 -14 -57 vhcurveto
          -70 -102 callsubr
          4 -59 rlineto
          162 455 hlineto
          64 14 10 36 76 vvcurveto
          19 vlineto
          endchar
        </CharString>
        <CharString name="uni1EF0">
          84 518 778 rmoveto
          -32 vlineto
          -44 -8 -14 -57 vhcurveto
          -89 -419 hlineto
          -101 callgsubr
          322 vlineto
          69 13 10 36 78 vvcurveto
          19 vlineto
          -415 -990 -91 callgsubr
        </CharString>
        <CharString name="uni1EF1">
          10 444 600 rmoveto
          -32 vlineto
          -44 -8 -14 -57 vhcurveto
          -70 -102 callsubr
          4 -59 rlineto
          162 455 hlineto
          64 14 10 36 76 vvcurveto
          19 vlineto
          -389 -812 -91 callgsubr
        </CharString>
        <CharString name="uni1EF4">
          53 192 hmoveto
          -83 callsubr
          3 -443 -91 callgsubr
        </CharString>
        <CharString name="uni1EF4.loclGUA">
          55 350 688 -94 callsubr
          -337 -900 -91 callgsubr
        </CharString>
        <CharString name="uni1EF5">
          10 246 -205 -98 callgsubr
          -89 -212 -91 callgsubr
        </CharString>
        <CharString name="uni1EF5.loclGUA">
          -20 317 -192 rmoveto
          170 702 rlineto
          -168 hlineto
          -65 -354 rlineto
          -9 hlineto
          -67 354 rlineto
          -170 hlineto
          124 -510 rlineto
          63 hlineto
          -46 -192 rlineto
          11 -212 -91 callgsubr
        </CharString>
        <CharString name="uni1EF6">
          53 211 -95 callgsubr
          -19 -736 -78 callgsubr
        </CharString>
        <CharString name="uni1EF6.loclGUA">
          55 305 -72 callsubr
          45 -146 -94 callsubr
          endchar
        </CharString>
        <CharString name="uni1EF7">
          10 189 611 -104 callsubr
          57 -827 -98 callgsubr
          endchar
        </CharString>
        <CharString name="uni1EF7.loclGUA">
          -20 276 -80 callsubr
          43 -210 -85 callsubr
        </CharString>
        <CharString name="uni1EF8">
          53 464 888 -107 callsubr
          -272 -888 -78 callgsubr
        </CharString>
        <CharString name="uni1EF8.loclGUA">
          55 210 773 -92 callsubr
          140 -85 -94 callsubr
          endchar
        </CharString>
        <CharString name="uni1EF9">
          10 442 743 -107 callsubr
          -196 -948 -98 callgsubr
          endchar
        </CharString>
        <CharString name="uni1EF9.loclGUA">
          -20 181 628 -92 callsubr
          138 -118 -85 callsubr
        </CharString>
        <CharString name="uni2002">
          -215 endchar
        </CharString>
        <CharString name="uni20B2">
          39 282 394 rmoveto
          -105 51 -16 vlineto
          -56 -3 -5 -50 -48 -9 6 126 131 7 4 109 29 61 -5 -7 59 vhcurveto
          -40 callsubr
          11 8 61 141 vvcurveto
          107 vlineto
          endchar
        </CharString>
        <CharString name="uni20B2.bold">
          39 349 394 rmoveto
          85 vlineto
          32 -1 54 -5 53 -6 rrcurveto
          -40 callsubr
          12 8 66 135 vvcurveto
          107 vlineto
          -287 -50 rmoveto
          29 0 22 2 18 vhcurveto
          -141 vlineto
          -1 18 -1 24 30 vvcurveto
          endchar
        </CharString>
        <CharString name="uni2113">
          -18 231 196 rmoveto
          153 49 75 120 140 vvcurveto
          112 -51 78 -131 -152 -78 -95 -276 vhcurveto
          -13 vlineto
          -16 -16 0 1 -16 hvcurveto
          -140 vlineto
          -1 20 19 0 20 hhcurveto
          -129 24 64 -49 127 hhcurveto
          51 42 8 16 55 hvcurveto
          151 vlineto
          -24 -62 -38 -8 -28 hhcurveto
          -36 -18 16 44 -8 hvcurveto
          47 358 rmoveto
          20 9 -17 -27 -70 -30 -53 -53 -34 hvcurveto
          148 1 11 53 42 hhcurveto
          endchar
        </CharString>
        <CharString name="uni2116">
          435 769 -25 callgsubr
          -368 -397 rmoveto
          -83 callgsubr
          536 115 rmoveto
          -9 callgsubr
          -126 -280 rmoveto
          252 125 -252 hlineto
          endchar
        </CharString>
        <CharString name="uni2126">
          -68 callsubr
        </CharString>
        <CharString name="uni2153">
          232 -55 callsubr
          -33 -600 rmoveto
          4 callgsubr
          112 29 37 72 52 -20 25 -33 10 hvcurveto
          4 vlineto
          33 13 17 26 49 vvcurveto
          71 -36 31 -102 -34 -47 -5 -7 -32 vhcurveto
          -84 vlineto
          4 36 35 3 24 hhcurveto
          38 5 -3 -28 -30 -5 -3 -22 hvcurveto
          -62 -80 62 hlineto
          24 6 -4 -31 -30 -8 -2 -34 -20 -37 2 4 -44 hvcurveto
          endchar
        </CharString>
        <CharString name="uni2154">
          289 297 405 rmoveto
          -149 7 hlineto
          -54 callsubr
          vlineto
          251 374 rmoveto
          -403 -688 rlineto
          103 hlineto
          402 688 rlineto
          60 -500 rmoveto
          4 vlineto
          33 13 18 26 49 vvcurveto
          71 -37 31 -101 -34 -48 -5 -7 -32 vhcurveto
          -84 vlineto
          4 36 36 3 23 hhcurveto
          38 6 -3 -28 -30 -5 -3 -23 hvcurveto
          -62 -80 62 hlineto
          24 7 -4 -31 -30 -9 -2 -34 -19 -37 2 4 -45 hvcurveto
          -84 vlineto
          -7 35 47 -5 34 hhcurveto
          111 29 37 72 52 -20 25 -33 10 hvcurveto
          endchar
        </CharString>
        <CharString name="uni2206">
          -32 callgsubr
        </CharString>
        <CharString name="uniA78B">
          -307 29 265 -27 callsubr
          34 256 rlineto
          167 -150 vlineto
          endchar
        </CharString>
        <CharString name="uniA78C">
          -307 29 265 -27 callsubr
          34 256 rlineto
          222 -150 vlineto
          endchar
        </CharString>
        <CharString name="uniF8FF">
          326 72 hmoveto
          697 698 -697 hlineto
          546 -316 rmoveto
          -66 vlineto
          -100 -72 -81 -124 -125 -73 81 100 vhcurveto
          66 vlineto
          100 73 81 125 124 72 -81 -100 vhcurveto
          -135 -92 rmoveto
          118 vlineto
          33 -27 27 -34 -35 -27 -27 -33 vhcurveto
          -118 vlineto
          -33 27 -27 35 34 27 27 33 vhcurveto
          endchar
        </CharString>
        <CharString name="uogonek">
          10 478 hmoveto
          510 -169 -265 vlineto
          -100 callgsubr
          4 -59 rlineto
          31 hlineto
          -35 -32 -27 -38 -42 vvcurveto
          -43 28 -41 95 21 28 2 2 19 vhcurveto
          81 vlineto
          -1 -7 -4 8 callgsubr
          17 33 36 32 24 14 hvcurveto
          endchar
        </CharString>
        <CharString name="uring">
          10 261 599 -91 callsubr
          55 -668 rmoveto
          162 510 -169 -102 callsubr
          endchar
        </CharString>
        <CharString name="utilde">
          10 442 743 -107 callsubr
          -126 -743 rmoveto
          162 510 -169 -102 callsubr
          endchar
        </CharString>
        <CharString name="v">
          -20 132 hmoveto
          231 hlineto
          124 510 rlineto
          -168 hlineto
          -64 -354 rlineto
          -10 hlineto
          -67 354 rlineto
          -170 hlineto
          endchar
        </CharString>
        <CharString name="w">
          244 436 hmoveto
          -82 callsubr
        </CharString>
        <CharString name="wacute">
          244 316 596 -102 callgsubr
          120 -601 rmoveto
          -82 callsubr
        </CharString>
        <CharString name="wcircumflex">
          244 218 603 -106 callgsubr
          218 -611 rmoveto
          -82 callsubr
        </CharString>
        <CharString name="wdieresis">
          244 214 617 -88 callsubr
          26 -730 rmoveto
          -82 callsubr
        </CharString>
        <CharString name="wgrave">
          244 320 596 -92 callgsubr
          224 -738 rmoveto
          -82 callsubr
        </CharString>
        <CharString name="x">
          -5 323 hmoveto
          182 hlineto
          -141 260 135 250 rlineto
          -172 hlineto
          -63 -140 rlineto
          -7 hlineto
          -65 140 rlineto
          -181 hlineto
          135 -251 -140 -259 rlineto
          172 hlineto
          68 150 rlineto
          8 hlineto
          endchar
        </CharString>
        <CharString name="y">
          10 246 -205 -98 callgsubr
          endchar
        </CharString>
        <CharString name="y.loclGUA">
          -20 319 510 -85 callsubr
        </CharString>
        <CharString name="yacute">
          10 196 596 -102 callgsubr
          50 -806 -98 callgsubr
          endchar
        </CharString>
        <CharString name="yacute.loclGUA">
          -20 424 738 -73 callsubr
          4 -86 -85 callsubr
        </CharString>
        <CharString name="ycircumflex">
          10 100 603 -106 callgsubr
          146 -816 -98 callgsubr
          endchar
        </CharString>
        <CharString name="ycircumflex.loclGUA">
          -20 255 675 -73 callgsubr
          116 -93 -85 callsubr
        </CharString>
        <CharString name="ydieresis">
          10 96 615 -88 callsubr
          -46 -933 -98 callgsubr
          endchar
        </CharString>
        <CharString name="ydieresis.loclGUA">
          -20 226 730 -39 callgsubr
          -104 -107 -85 callsubr
        </CharString>
        <CharString name="yen">
          60 196 hmoveto
          11 callsubr
          29 68 rlineto
          108 84 -74 hlineto
          97 247 rlineto
          -177 hlineto
          -83 -276 rlineto
          -8 hlineto
          -85 276 rlineto
          -180 hlineto
          96 -247 rlineto
          -74 -84 107 hlineto
          31 -68 rlineto
          -138 -85 153 hlineto
          endchar
        </CharString>
        <CharString name="yen.bold">
          60 554 688 rmoveto
          -177 hlineto
          -74 -247 rlineto
          -26 hlineto
          -76 247 rlineto
          -180 hlineto
          99 -247 rlineto
          -77 -84 111 hlineto
          27 -68 rlineto
          -138 -85 153 -204 11 callsubr
          27 68 rlineto
          110 84 -76 hlineto
          endchar
        </CharString>
        <CharString name="ygrave">
          10 202 596 -92 callgsubr
          152 -943 -98 callgsubr
          endchar
        </CharString>
        <CharString name="ygrave.loclGUA">
          -20 320 596 -69 callgsubr
          123 -86 -85 callsubr
        </CharString>
        <CharString name="z">
          -45 35 hmoveto
          -84 callgsubr
          endchar
        </CharString>
        <CharString name="zacute">
          -45 171 596 -102 callgsubr
          -136 -601 rmoveto
          -84 callgsubr
          endchar
        </CharString>
        <CharString name="zacute.loclPLK">
          -45 171 596 -77 callgsubr
          -136 -601 rmoveto
          -84 callgsubr
          endchar
        </CharString>
        <CharString name="zcaron">
          -45 162 603 -99 callgsubr
          -44 -735 rmoveto
          -84 callgsubr
          endchar
        </CharString>
        <CharString name="zdotaccent">
          -45 167 -46 callgsubr
          -132 -730 rmoveto
          -84 callgsubr
          endchar
        </CharString>
        <CharString name="zero">
          60 287 -8 rmoveto
          230 16 59 293 293 -16 59 -230 -229 -16 -59 -293 -293 16 -59 229 hvcurveto
          142 vmoveto
          -61 -2 4 206 206 2 4 61 62 2 -4 -206 -206 -2 -4 -62 hvcurveto
          endchar
        </CharString>
        <CharString name="zero.dnom">
          -180 168 -4 -48 callsubr
        </CharString>
        <CharString name="zero.numr">
          -180 168 304 -48 callsubr
        </CharString>
        <CharString name="zero.tnum">
          -28 callgsubr
          142 vmoveto
          -61 -1 4 206 206 1 4 61 61 1 -4 -206 -206 -1 -4 -61 hvcurveto
          endchar
        </CharString>
        <CharString name="zero.zero">
          -28 callgsubr
          -66 412 rmoveto
          144 1 6 6 59 hhcurveto
          57 8 -6 -144 1 hvcurveto
          -66 -270 rmoveto
          -59 -6 5 144 -1 hvcurveto
          132 hlineto
          -144 -1 -7 -5 -58 hhcurveto
          endchar
        </CharString>
      <CharString index="0">
        rmoveto
        46 46 10 56 31 hvcurveto
        9 hlineto
        4 -58 rlineto
        163 307 hlineto
        146 -22 65 -196 -73 -65 -8 -8 -46 vhcurveto
        -118 vlineto
        3 37 52 3 43 hhcurveto
        89 12 -3 -68 hvcurveto
        -20 vlineto
        2 -35 -53 2 -22 hhcurveto
        -118 -31 -41 -115 -107 40 -48 89 hvcurveto
        77 123 rmoveto
        -43 -4 11 37 46 6 7 39 hvcurveto
        55 -25 hlineto
        -28 -2 -17 -6 -11 vhcurveto
        -15 -8 -13 -5 -24 hhcurveto
        return
      </CharString>
      <CharString index="1">
        rmoveto
        109 hlineto
        52 72 53 -72 rlineto
        110 8 hlineto
        -85 132 rlineto
        -157 hlineto
        -82 -132 rlineto
        return
      </CharString>
      <CharString index="2">
        rmoveto
        194 -1 70 -207 -9 callsubr
        vhcurveto
        -99 callsubr
        return
      </CharString>
      <CharString index="3">
        rmoveto
        209 13 56 207 207 -13 56 -209 8 callsubr
        -207 13 -56 208 hvcurveto
        128 vmoveto
        -51 -1 -33 callgsubr
        127 1 8 51 52 1 -8 -30 callgsubr
        -1 -8 -52 hvcurveto
        return
      </CharString>
      <CharString index="4">
        183 hlineto
        -172 688 rlineto
        -257 hlineto
        -172 -688 -20 callgsubr
        hlineto
        26 124 rlineto
        184 hlineto
        -89 407 rmoveto
        58 -268 rlineto
        -122 hlineto
        57 268 rlineto
        return
      </CharString>
      <CharString index="5">
        rmoveto
        123 hlineto
        109 -51 callgsubr
        -71 -142 rlineto
        return
      </CharString>
      <CharString index="6">
        -124 -2 -9 -63 -63 -2 9 124 vhcurveto
        419 -183 -378 vlineto
        -243 9 -75 239 240 8 75 243 vhcurveto
        return
      </CharString>
      <CharString index="7">
        -100 -3 -13 -45 -43 -3 3 103 vhcurveto
        272 -169 -327 vlineto
        -126 16 -65 116 48 50 14 53 27 vhcurveto
        9 hlineto
        return
      </CharString>
      <CharString index="8">
        rmoveto
        157 hlineto
        84 132 rlineto
        8 -109 vlineto
        -52 -72 -53 72 rlineto
        -110 -8 hlineto
        return
      </CharString>
      <CharString index="9">
        rmoveto
        221 11 87 176 hvcurveto
        452 -169 -253 vlineto
        -101 -2 -13 -46 -43 -3 4 102 vhcurveto
        261 -169 -308 vlineto
        -132 15 -66 117 48 48 14 52 26 vhcurveto
        9 -47 hlineto
        -92 -2 -8 -103 vhcurveto
        -38 -42 1 -43 hhcurveto
        -116 vlineto
        -8 39 68 -5 58 hhcurveto
        return
      </CharString>
      <CharString index="10">
        rmoveto
        5 vlineto
        -59 115 rlineto
        -131 -4 hlineto
        88 -116 rlineto
        271 hmoveto
        5 vlineto
        -58 115 rlineto
        -131 -4 hlineto
        89 -116 rlineto
        return
      </CharString>
      <CharString index="11">
        rmoveto
        -140 vlineto
        -1 -15 -21 -1 -12 hhcurveto
        -89 -9 29 184 206 12 3 142 35 75 -7 -5 44 hvcurveto
        133 vlineto
        10 -50 -90 12 -72 hhcurveto
        -227 -50 -73 -279 -284 48 -68 225 66 91 9 13 61 hvcurveto
        392 -232 -133 vlineto
        return
      </CharString>
      <CharString index="12">
        725 rmoveto
        92 -93 callsubr
        -6 callsubr
        return
      </CharString>
      <CharString index="13">
        425 143 -242 134 204 141 -204 127 242 143 -425 hlineto
        return
      </CharString>
      <CharString index="14">
        136 113 -136 hlineto
        196 -113 rmoveto
        137 113 -137 hlineto
        return
      </CharString>
      <CharString index="15">
        rmoveto
        124 5 hlineto
        -71 -49 callgsubr
        -161 -5 hlineto
        return
      </CharString>
      <CharString index="16">
        rmoveto
        178 150 -178 hlineto
        endchar
      </CharString>
      <CharString index="17">
        -12 callgsubr
        -31 callgsubr
        vhcurveto
        -52 callsubr
        -510 169 265 hlineto
        100 2 13 46 43 3 -3 -103 vhcurveto
        return
      </CharString>
      <CharString index="18">
        -88 callgsubr
        endchar
      </CharString>
      <CharString index="19">
        rmoveto
        -32 vlineto
        -44 -8 -14 -57 vhcurveto
        -3 hlineto
        6 -28 -35 2 -43 10 callgsubr
        -207 13 -56 208 209 13 56 207 94 -3 63 -22 40 hvcurveto
        74 13 11 36 80 vvcurveto
        19 vlineto
        -282 -480 rmoveto
        -51 -1 -33 callgsubr
        127 1 8 51 52 1 -8 -30 callgsubr
        -1 -8 -52 hvcurveto
        return
      </CharString>
      <CharString index="20">
        rmoveto
        94 hlineto
        32 1 23 52 52 0 -23 -32 vhcurveto
        93 hlineto
        84 -18 60 -30 callgsubr
        -20 -60 -84 vhcurveto
        return
      </CharString>
      <CharString index="21">
        rmoveto
        134 vlineto
        -5 -32 -48 -3 -35 hhcurveto
        -113 -3 16 193 192 3 17 113 21 34 -3 -5 57 hvcurveto
        133 vlineto
        10 -36 -63 8 -54 hhcurveto
        -229 -30 -84 -268 -269 29 -83 230 53 65 -23 callsubr
        hvcurveto
        endchar
      </CharString>
      <CharString index="22">
        rmoveto
        117 vlineto
        -4 -29 -38 -2 -26 hhcurveto
        -73 -7 14 121 120 7 15 72 29 38 -3 -3 24 hvcurveto
        118 vlineto
        10 -40 -48 6 -50 hhcurveto
        -188 -15 -94 -169 -167 12 -96 191 46 51 6 11 44 hvcurveto
        endchar
      </CharString>
      <CharString index="23">
        400 128 -194 hlineto
        192 262 rlineto
        120 -389 -128 183 vlineto
        -192 -262 rlineto
        return
      </CharString>
      <CharString index="24">
        168 688 -175 -315 -6 hlineto
        -151 315 rlineto
        -183 -688 174 355 5 hlineto
        return
      </CharString>
      <CharString index="25">
        238 hlineto
        118 688 -24 callsubr
        -58 -488 rlineto
        -8 hlineto
        -82 488 rlineto
        -198 hlineto
        -80 -488 rlineto
        -9 hlineto
        -64 488 -24 callsubr
        118 -688 rlineto
        238 hlineto
        71 416 rlineto
        8 hlineto
        endchar
      </CharString>
      <CharString index="26">
        -90 262 rlineto
        65 37 10 76 87 vvcurveto
        147 -25 79 -173 vhcurveto
        -298 -688 183 235 69 hlineto
        70 -235 rlineto
        -83 372 rmoveto
        -56 175 56 hlineto
        70 4 -11 -76 -79 -8 -9 -66 hvcurveto
        endchar
      </CharString>
      <CharString index="27">
        -83 callsubr
        endchar
      </CharString>
      <CharString index="28">
        466 143 -251 hlineto
        251 412 rlineto
        133 -456 -143 239 vlineto
        -249 -409 rlineto
        return
      </CharString>
      <CharString index="29">
        rmoveto
        -80 callgsubr
      </CharString>
      <CharString index="30">
        rmoveto
        123 hlineto
        74 -51 callgsubr
        -36 -142 rlineto
        return
      </CharString>
      <CharString index="31">
        rmoveto
        198 41 18 199 hvcurveto
        491 -171 -539 vlineto
        -37 -3 -15 -65 vhcurveto
        endchar
      </CharString>
      <CharString index="32">
        rmoveto
        112 30 35 70 63 -21 19 -42 10 hvcurveto
        3 vlineto
        40 9 20 25 55 vvcurveto
        71 -36 29 -102 -34 -49 -5 -6 -32 vhcurveto
        -77 vlineto
        4 28 39 2 27 hhcurveto
        46 7 -2 -32 -32 -6 -5 -31 hvcurveto
        -57 -80 57 hlineto
        31 8 -3 -36 -34 -9 -2 -41 -24 -41 3 3 -35 hvcurveto
        -76 vlineto
        -7 33 48 -4 34 hhcurveto
        return
      </CharString>
      <CharString index="33">
        rmoveto
        -49 -3 4 120 119 3 5 49 29 13 -5 -32 5 hvcurveto
        3 -19 1 -28 -40 vvcurveto
        -43 -1 -29 -5 -22 vhcurveto
        -5 callgsubr
        return
      </CharString>
      <CharString index="34">
        rmoveto
        53 -72 rlineto
        110 8 hlineto
        -85 132 rlineto
        -157 hlineto
        -82 -132 rlineto
        -8 109 vlineto
        return
      </CharString>
      <CharString index="35">
        127 20 60 84 return
      </CharString>
      <CharString index="36">
        -15 -6 -4 -28 -9 hvcurveto
        return
      </CharString>
      <CharString index="37">
        rmoveto
        -75 vlineto
        -7 35 47 -4 34 hhcurveto
        115 27 40 91 73 -21 44 -86 -19 -21 -2 -2 -15 hvcurveto
        58 139 82 -231 -221 vlineto
        3 28 37 1 27 hhcurveto
        48 7 -4 -39 -40 -7 -3 -48 -23 -41 3 2 -32 hvcurveto
        return
      </CharString>
      <CharString index="38">
        rmoveto
        5 vlineto
        -71 -49 callgsubr
        -161 -5 hlineto
        108 -142 rlineto
        return
      </CharString>
      <CharString index="39">
        rmoveto
        251 136 -251 hlineto
        return
      </CharString>
      <CharString index="40" raw="1">
        441d7d0b   
      </CharString>
      <CharString index="41">
        -73 callgsubr
        57 -85 rmoveto
        -9 callsubr
        hvcurveto
        117 vlineto
        -3 -49 -57 -3 -31 hhcurveto
        -101 -6 5 90 hvcurveto
        260 39 hlineto
        194 -1 70 -207 vhcurveto
        -120 vmoveto
        0 callsubr
      </CharString>
      <CharString index="42">
        rmoveto
        77 41 16 48 20 hvcurveto
        13 29 4 42 59 vvcurveto
        55 -3 40 -8 31 vhcurveto
        58 -15 -40 11 -81 hhcurveto
        -113 -26 -37 -97 -98 40 -16 67 46 18 16 10 6 hvcurveto
        4 hlineto
        -75 -7 -11 -62 -19 -38 3 4 -36 vhcurveto
        -77 vlineto
        -6 34 47 -5 31 hhcurveto
        11 221 rmoveto
        -34 -7 3 41 42 7 2 34 29 9 -1 -46 -34 -3 -7 -35 hvcurveto
        endchar
      </CharString>
      <CharString index="43">
        rmoveto
        112 26 37 97 98 -39 16 -67 -48 -17 -17 -9 -6 hvcurveto
        -4 hlineto
        75 7 10 62 19 38 -3 -3 36 vhcurveto
        76 vlineto
        7 -36 -46 5 -30 hhcurveto
        -83 -40 -19 -54 -19 hvcurveto
        -9 -28 -4 -40 -54 vvcurveto
        -58 3 -41 7 -24 vhcurveto
        -62 18 39 -9 81 hhcurveto
        -4 80 rmoveto
        -29 -9 1 45 34 3 7 35 34 7 -3 -41 -41 -7 -2 -34 hvcurveto
        endchar
      </CharString>
      <CharString index="44">
        -52 114 234 rmoveto
        150 31 hlineto
        55 2 1 37 19 vhcurveto
        18 8 rlineto
        59 29 38 23 119 vvcurveto
        153 -90 24 -111 -58 -78 -7 -11 -48 vhcurveto
        -133 vlineto
        5 33 65 4 33 hhcurveto
        56 19 -3 -52 -42 -7 -8 -33 -16 hvcurveto
        -21 -10 rlineto
        -44 -19 -20 -20 -77 vvcurveto
        -13 -307 -43 callgsubr
        endchar
      </CharString>
      <CharString index="45">
        -43 callgsubr
        61 -696 rmoveto
        59 77 7 11 48 hvcurveto
        133 vlineto
        -5 -41 -56 -4 -34 hhcurveto
        -56 -19 3 52 41 6 8 36 18 hvcurveto
        20 9 rlineto
        43 19 20 20 77 vvcurveto
        73 -150 -31 vlineto
        -54 -2 -1 -30 -15 vhcurveto
        -39 -18 rlineto
        -61 -28 -22 -34 -104 vvcurveto
        -141 70 -36 131 vhcurveto
        endchar
      </CharString>
      <CharString index="46">
        rmoveto
        -59 callgsubr
      </CharString>
      <CharString index="47">
        46 rmoveto
        32 50 rlineto
        -83 52 -55 91 105 vvcurveto
        104 56 92 82 51 vhcurveto
        -32 51 rlineto
        -99 -62 -67 -111 -125 vvcurveto
        -126 67 -110 99 -62 vhcurveto
        return
      </CharString>
      <CharString index="48">
        -58 callsubr
        endchar
      </CharString>
      <CharString index="49">
        rmoveto
        136 113 -136 hlineto
        return
      </CharString>
      <CharString index="50">
        46 rmoveto
        99 62 67 110 126 vvcurveto
        125 -67 111 -99 62 vhcurveto
        -32 -51 rlineto
        82 -51 56 -92 -104 vvcurveto
        -105 -55 -91 -83 -52 vhcurveto
        -31 51 rmoveto
        65 41 44 73 83 vvcurveto
        83 -44 73 -66 41 vhcurveto
        -32 -51 rlineto
        49 -31 33 -54 -61 vvcurveto
        -62 -33 -53 -48 -31 vhcurveto
        return
      </CharString>
      <CharString index="51">
        397 143 -241 hlineto
        -17 134 rlineto
        220 141 -237 hlineto
        -16 127 rlineto
        291 143 -561 hlineto
        -256 -688 rlineto
        179 hlineto
        41 125 rlineto
        186 hlineto
        -44 415 rmoveto
        30 -276 rlineto
        -126 hlineto
        89 276 rlineto
        endchar
      </CharString>
      <CharString index="52">
        171 382 100 128 -100 49 -70 callsubr
        return
      </CharString>
      <CharString index="53">
        rmoveto
        32 51 rlineto
        -48 31 -33 53 62 vvcurveto
        61 33 54 49 31 vhcurveto
        -32 51 rlineto
        -66 -41 -44 -73 -83 vvcurveto
        -83 44 -73 65 -41 vhcurveto
        return
      </CharString>
      <CharString index="54">
        762 -58 callgsubr
        return
      </CharString>
      <CharString index="55">
        78 54 hmoveto
        222 hlineto
        270 4 77 267 267 -4 77 -270 hvcurveto
        -222 -277 -55 -126 55 hlineto
        222 -142 rmoveto
        -39 142 64 126 -64 134 39 hlineto
        88 3 -3 -198 -197 -3 -4 -88 hvcurveto
        endchar
      </CharString>
      <CharString index="56">
        142 -38 callgsubr
        return
      </CharString>
      <CharString index="57">
        rmoveto
        172 135 -172 hlineto
        return
      </CharString>
      <CharString index="58">
        142 rlineto
        return
      </CharString>
      <CharString index="59">
        171 382 94 128 -94 148 -171 -148 -75 -128 75 hlineto
        return
      </CharString>
      <CharString index="60">
        rmoveto
        52 0 -23 -32 hvcurveto
        93 hlineto
        84 -18 60 -30 callgsubr
        -20 -60 -84 vhcurveto
        94 hlineto
        32 1 23 52 vhcurveto
        return
      </CharString>
      <CharString index="61">
        617 -58 callgsubr
        return
      </CharString>
      <CharString index="62">
        113 -39 35 -73 18 hvcurveto
        4 vlineto
        71 18 35 45 100 vvcurveto
        126 return
      </CharString>
      <CharString index="63">
        -27 callsubr
        47 212 rlineto
        51 -150 -51 vlineto
        return
      </CharString>
      <CharString index="64">
        rmoveto
        177 150 -177 hlineto
        return
      </CharString>
</ttFont>
